<?xml version="1.0" encoding="utf-8"?>
<!-- Generator: Adobe Illustrator 25.2.1, SVG Export Plug-In . SVG Version: 6.00 Build 0)  -->
<svg version="1.1" id="Layer_1" xmlns="http://www.w3.org/2000/svg" xmlns:xlink="http://www.w3.org/1999/xlink" x="0px" y="0px"
	 viewBox="0 0 584.76 74.12" style="enable-background:new 0 0 584.76 74.12;" xml:space="preserve">
<style type="text/css">
	.st0{opacity:0.5;fill:#231F20;enable-background:new    ;}
	.st1{fill:#FFFFFF;}
	.st2{opacity:0.41;}
	.st3{fill:#231F20;}
	.st4{opacity:0.38;}
	.st5{opacity:0.36;}
	.st6{opacity:0.4;}
	.st7{opacity:0.32;}
	.st8{opacity:0.33;}
	.st9{opacity:0.43;}
	.st10{opacity:0.35;}
	.st11{opacity:0.44;}
	.st12{opacity:0.51;}
	.st13{opacity:0.42;}
	.st14{opacity:0.34;}
	.st15{opacity:0.47;}
	.st16{opacity:0.5;}
	.st17{opacity:0.37;}
	.st18{opacity:0.45;}
	.st19{opacity:0.39;}
	.st20{opacity:0.48;}
	.st21{opacity:0.49;}
	.st22{opacity:0.52;}
</style>
<g>
	<path class="st0" d="M-1502.09,953.29c-0.05,1.34-1,2.38-2.12,2.31c-1.12-0.06-1.98-1.2-1.93-2.54c0.05-1.34,1-2.38,2.12-2.31
		C-1502.9,950.81-1502.03,951.95-1502.09,953.29z"/>
</g>
<g>
	<rect x="0.66" y="0.23" class="st1" width="583.87" height="73.65"/>
	<g class="st2">
		<path class="st3" d="M150.92,54.86c-0.02-0.04-0.02-0.08-0.02-0.12l1.35-8.46c0.02-0.12,0.13-0.2,0.25-0.18s0.2,0.13,0.19,0.24
			l-1.35,8.46c-0.02,0.12-0.13,0.2-0.25,0.18C151.01,54.97,150.95,54.92,150.92,54.86z"/>
	</g>
	<path class="st3" d="M153.21,46.01c0.17,0.39-0.01,0.84-0.42,1.01s-0.88-0.01-1.05-0.4s0.01-0.84,0.42-1.01
		C152.56,45.44,153.03,45.62,153.21,46.01z"/>
	<path class="st3" d="M151.87,54.46c0.18,0.4-0.01,0.86-0.43,1.03c-0.41,0.17-0.89-0.01-1.07-0.41c-0.18-0.4,0.01-0.86,0.43-1.03
		S151.7,54.06,151.87,54.46z"/>
	<g>
		<g class="st4">
			<path class="st3" d="M456.8,28.21c-0.03,0.01-0.07,0-0.11-0.01c-0.12-0.04-0.18-0.18-0.14-0.3l4.05-11.82
				c0.04-0.13,0.18-0.2,0.3-0.15c0.12,0.04,0.18,0.18,0.14,0.3l-4.05,11.82C456.96,28.14,456.88,28.2,456.8,28.21z"/>
		</g>
		<g class="st5">
			<path class="st3" d="M471.78,31.27c-0.08,0.01-0.15-0.02-0.2-0.08l-10.93-14.9c-0.07-0.1-0.05-0.24,0.04-0.32
				c0.1-0.08,0.23-0.06,0.3,0.04l10.93,14.9c0.07,0.1,0.05,0.24-0.04,0.32C471.85,31.25,471.82,31.27,471.78,31.27z"/>
		</g>
		<g class="st6">
			<path class="st3" d="M437.26,32.1c-0.13,0.02-0.25-0.07-0.27-0.21c-0.02-0.14,0.07-0.27,0.2-0.3l19.54-3.88
				c0.13-0.03,0.26,0.06,0.29,0.2c0.02,0.14-0.07,0.27-0.2,0.3l-19.54,3.88C437.27,32.1,437.26,32.1,437.26,32.1z"/>
		</g>
		<g class="st4">
			<path class="st3" d="M468.83,53.18c-0.02,0-0.04,0-0.06,0c-0.13-0.02-0.22-0.14-0.2-0.27l2.95-21.89
				c0.02-0.13,0.13-0.23,0.26-0.21c0.13,0.02,0.22,0.14,0.2,0.27l-2.95,21.89C469.02,53.08,468.94,53.16,468.83,53.18z"/>
		</g>
		<g class="st4">
			<path class="st3" d="M471.78,31.29c-0.03,0-0.05,0-0.08,0l-14.98-3.08c-0.13-0.03-0.21-0.16-0.18-0.29
				c0.03-0.13,0.15-0.22,0.28-0.19l14.98,3.08c0.13,0.03,0.21,0.16,0.18,0.29C471.96,31.2,471.88,31.28,471.78,31.29z"/>
		</g>
		<g class="st7">
			<path class="st3" d="M451.43,65.79c-0.07,0.01-0.14-0.02-0.18-0.08l-12.42-19.59c-0.06-0.09-0.03-0.21,0.06-0.27
				s0.2-0.04,0.26,0.05l12.42,19.59c0.06,0.09,0.03,0.21-0.06,0.27C451.48,65.78,451.45,65.79,451.43,65.79z"/>
		</g>
		<g class="st8">
			<path class="st3" d="M459.79,69.75c-0.04,0.01-0.08,0-0.12-0.02c-0.09-0.05-0.12-0.17-0.07-0.26l9.03-16.62
				c0.05-0.09,0.17-0.13,0.26-0.08s0.12,0.17,0.07,0.26l-9.03,16.62C459.9,69.7,459.85,69.74,459.79,69.75z"/>
		</g>
		<g class="st9">
			<path class="st3" d="M459.8,69.84c-0.05,0.01-0.1,0-0.15-0.02l-8.37-3.95c-0.14-0.07-0.2-0.24-0.13-0.38
				c0.07-0.15,0.23-0.21,0.37-0.14l8.37,3.95c0.14,0.07,0.2,0.24,0.13,0.38C459.98,69.77,459.9,69.83,459.8,69.84z"/>
		</g>
		<g class="st10">
			<path class="st3" d="M218.08,18.63c-0.03,0-0.06,0-0.09-0.01l-15.74-6.17c-0.09-0.04-0.14-0.14-0.1-0.24
				c0.04-0.1,0.14-0.14,0.23-0.11l15.74,6.17c0.09,0.04,0.14,0.14,0.1,0.24C218.2,18.58,218.14,18.62,218.08,18.63z"/>
		</g>
		<g class="st4">
			<path class="st3" d="M193.99,34.07c-0.09,0.01-0.18-0.04-0.22-0.13l-4.1-9.94c-0.05-0.11,0-0.24,0.11-0.29
				c0.11-0.05,0.23,0,0.27,0.11l4.1,9.94c0.05,0.11,0,0.24-0.11,0.29C194.03,34.06,194.01,34.07,193.99,34.07z"/>
		</g>
		<g class="st11">
			<path class="st3" d="M203.27,26.43c-0.03,0-0.05,0-0.08,0l-13.36-2.24c-0.14-0.02-0.24-0.16-0.21-0.31
				c0.03-0.15,0.16-0.25,0.31-0.23l13.37,2.24c0.14,0.02,0.24,0.16,0.21,0.31C203.47,26.32,203.38,26.41,203.27,26.43z"/>
		</g>
		<g class="st12">
			<path class="st3" d="M189.91,24.26c-0.06,0.01-0.13,0-0.2-0.03l-5.06-2.58c-0.17-0.08-0.23-0.3-0.15-0.47
				c0.09-0.17,0.29-0.25,0.46-0.16l5.06,2.58c0.17,0.09,0.23,0.3,0.15,0.47C190.12,24.18,190.02,24.25,189.91,24.26z"/>
		</g>
		<g class="st4">
			<path class="st3" d="M193.99,34.08c-0.07,0.01-0.15-0.02-0.2-0.08l-9.16-12.52c-0.07-0.1-0.05-0.24,0.04-0.31
				c0.1-0.08,0.23-0.06,0.3,0.04l9.16,12.52c0.07,0.1,0.05,0.24-0.04,0.31C194.06,34.06,194.03,34.07,193.99,34.08z"/>
		</g>
		<g class="st7">
			<path class="st3" d="M203.25,26.32c-0.02,0-0.04,0-0.06,0l-18.43-4.82c-0.09-0.02-0.14-0.12-0.12-0.21
				c0.02-0.09,0.12-0.15,0.2-0.12l18.43,4.82c0.09,0.02,0.14,0.12,0.12,0.21C203.37,26.27,203.32,26.32,203.25,26.32z"/>
		</g>
		<g class="st8">
			<path class="st3" d="M167.03,18c-0.05,0.01-0.11-0.01-0.15-0.05c-0.08-0.07-0.08-0.19-0.01-0.27l8.88-10.26
				c0.07-0.08,0.19-0.09,0.26-0.02c0.08,0.07,0.08,0.19,0.01,0.27l-8.88,10.26C167.11,17.97,167.07,17.99,167.03,18z"/>
		</g>
		<g class="st13">
			<path class="st3" d="M174.84,30.35c-0.1,0.01-0.2-0.03-0.26-0.12l-7.8-12.26c-0.08-0.13-0.05-0.3,0.08-0.39s0.29-0.05,0.38,0.07
				l7.8,12.26c0.08,0.13,0.05,0.3-0.08,0.39C174.92,30.33,174.88,30.34,174.84,30.35z"/>
		</g>
		<g class="st6">
			<path class="st3" d="M167.03,18.07c-0.01,0-0.02,0-0.03,0l-8.94,0.34c-0.14,0.01-0.26-0.11-0.26-0.25c0-0.15,0.11-0.27,0.25-0.27
				l8.94-0.34c0.14-0.01,0.26,0.11,0.26,0.25C167.26,17.93,167.16,18.05,167.03,18.07z"/>
		</g>
		<g class="st14">
			<path class="st3" d="M156.33,43.34c-0.01,0-0.03,0-0.04,0c-0.11-0.01-0.19-0.1-0.18-0.22l1.75-24.99
				c0.01-0.11,0.11-0.2,0.21-0.19c0.11,0.01,0.19,0.1,0.18,0.22l-1.75,24.99C156.5,43.25,156.42,43.33,156.33,43.34z"/>
		</g>
		<g class="st4">
			<path class="st3" d="M219.53,29.56c-0.12,0.02-0.22-0.06-0.24-0.18l-1.45-10.89c-0.02-0.12,0.07-0.23,0.18-0.25
				c0.1-0.02,0.22,0.06,0.24,0.18l1.45,10.89C219.74,29.43,219.65,29.54,219.53,29.56C219.54,29.56,219.54,29.56,219.53,29.56z"/>
		</g>
		<g class="st5">
			<path class="st3" d="M238.88,19.82c-0.01,0-0.03,0-0.04,0l-20.8-1.17c-0.11-0.01-0.2-0.1-0.19-0.22s0.11-0.2,0.22-0.2l20.8,1.17
				c0.11,0.01,0.2,0.1,0.19,0.22C239.05,19.73,238.97,19.81,238.88,19.82z"/>
		</g>
		<g class="st13">
			<path class="st3" d="M203.26,26.41c-0.1,0.01-0.2-0.04-0.25-0.14c-0.06-0.12-0.01-0.28,0.11-0.34l14.82-7.71
				c0.12-0.06,0.27-0.01,0.33,0.11s0.01,0.28-0.11,0.34l-14.82,7.71C203.31,26.39,203.29,26.4,203.26,26.41z"/>
		</g>
		<g class="st6">
			<path class="st3" d="M219.54,29.58c-0.02,0-0.05,0-0.08,0l-16.28-3.18c-0.13-0.02-0.21-0.15-0.18-0.28s0.15-0.22,0.28-0.19
				l16.28,3.18c0.13,0.02,0.21,0.15,0.18,0.28C219.72,29.49,219.63,29.56,219.54,29.58z"/>
		</g>
		<g class="st5">
			<path class="st3" d="M193.99,34.06c-0.07,0.01-0.13-0.02-0.18-0.07c-0.07-0.09-0.05-0.21,0.03-0.28l9.27-7.7
				c0.08-0.07,0.21-0.06,0.27,0.03c0.07,0.09,0.05,0.21-0.03,0.28l-9.27,7.7C194.06,34.04,194.02,34.05,193.99,34.06z"/>
		</g>
		<g class="st7">
			<path class="st3" d="M198.01,44.47c-0.07,0.01-0.15-0.03-0.18-0.11l-4.02-10.44c-0.03-0.09,0.01-0.19,0.09-0.23
				c0.09-0.04,0.18,0,0.22,0.09l4.02,10.44c0.03,0.09-0.01,0.19-0.09,0.23C198.04,44.46,198.02,44.46,198.01,44.47z"/>
		</g>
		<g class="st7">
			<path class="st3" d="M209.3,43.7c-0.04,0.01-0.08,0-0.11-0.02l-15.32-9.66c-0.08-0.05-0.1-0.16-0.05-0.24s0.16-0.11,0.24-0.06
				l15.32,9.66c0.08,0.05,0.1,0.16,0.05,0.24C209.4,43.66,209.35,43.69,209.3,43.7z"/>
		</g>
		<g class="st7">
			<path class="st3" d="M187.43,49.32c-0.08,0.01-0.15-0.03-0.18-0.11l-5.1-12.37c-0.04-0.09,0-0.2,0.09-0.24
				c0.09-0.04,0.19,0,0.23,0.09l5.1,12.37c0.04,0.09,0,0.2-0.09,0.24C187.46,49.31,187.45,49.32,187.43,49.32z"/>
		</g>
		<g class="st4">
			<path class="st3" d="M198.01,44.52c-0.04,0.01-0.08,0-0.12-0.02l-15.67-7.53c-0.11-0.05-0.16-0.19-0.1-0.31
				c0.05-0.12,0.19-0.17,0.3-0.11l15.67,7.53c0.11,0.05,0.16,0.19,0.1,0.31C198.15,44.47,198.09,44.51,198.01,44.52z"/>
		</g>
		<g class="st9">
			<path class="st3" d="M182.35,37.04c-0.07,0.01-0.15-0.01-0.21-0.06l-7.51-6.7c-0.11-0.1-0.12-0.28-0.02-0.4s0.27-0.13,0.38-0.03
				l7.51,6.7c0.11,0.1,0.12,0.28,0.02,0.4C182.47,37,182.41,37.03,182.35,37.04z"/>
		</g>
		<g class="st7">
			<path class="st3" d="M179.19,52.2c-0.03,0-0.06,0-0.09-0.01l-22.86-8.87c-0.1-0.04-0.14-0.15-0.11-0.25
				c0.04-0.1,0.15-0.15,0.24-0.11l22.86,8.87c0.1,0.04,0.14,0.15,0.11,0.25C179.32,52.14,179.26,52.19,179.19,52.2z"/>
		</g>
		<g class="st8">
			<path class="st3" d="M244.06,34.23c-0.08,0.01-0.17-0.04-0.2-0.12l-5.18-14.43c-0.04-0.1,0.01-0.21,0.11-0.25
				c0.1-0.04,0.2,0.01,0.24,0.11l5.18,14.43c0.04,0.1-0.01,0.21-0.11,0.25C244.09,34.23,244.07,34.23,244.06,34.23z"/>
		</g>
		<g class="st2">
			<path class="st3" d="M219.54,29.59c-0.1,0.02-0.21-0.04-0.26-0.14c-0.06-0.13,0-0.28,0.12-0.34l19.34-9.73
				c0.12-0.06,0.27-0.01,0.33,0.12c0.06,0.13,0,0.28-0.12,0.34l-19.34,9.73C219.59,29.58,219.56,29.59,219.54,29.59z"/>
		</g>
		<g class="st7">
			<path class="st3" d="M244.06,34.22c-0.02,0-0.04,0-0.06,0l-24.53-4.7c-0.09-0.02-0.15-0.11-0.13-0.21s0.11-0.16,0.2-0.14
				l24.53,4.7c0.09,0.02,0.15,0.11,0.13,0.21C244.19,34.15,244.13,34.21,244.06,34.22z"/>
		</g>
		<g class="st8">
			<path class="st3" d="M223.16,50.33c-0.03,0-0.07,0-0.1-0.02l-13.86-6.62c-0.09-0.04-0.13-0.16-0.09-0.26
				c0.05-0.1,0.16-0.14,0.25-0.1l13.86,6.62c0.09,0.04,0.13,0.16,0.09,0.26C223.28,50.28,223.23,50.32,223.16,50.33z"/>
		</g>
		<g class="st15">
			<path class="st3" d="M224.68,44.74c-0.02,0-0.04,0-0.06,0l-15.37-0.88c-0.18-0.01-0.31-0.17-0.3-0.35
				c0.01-0.19,0.17-0.33,0.35-0.32l15.37,0.88c0.18,0.01,0.31,0.17,0.3,0.35C224.96,44.58,224.83,44.71,224.68,44.74z"/>
		</g>
		<g class="st16">
			<path class="st3" d="M209.32,43.88c-0.01,0-0.02,0-0.03,0L198,44.65c-0.19,0.01-0.36-0.14-0.37-0.34s0.15-0.37,0.34-0.39
				l11.29-0.77c0.19-0.01,0.36,0.14,0.37,0.34S209.5,43.85,209.32,43.88z"/>
		</g>
		<g class="st8">
			<path class="st3" d="M224.67,44.59c-0.01,0-0.02,0-0.03,0l-26.66-0.11c-0.1,0-0.18-0.09-0.18-0.19c0-0.11,0.09-0.19,0.19-0.19
				l26.66,0.11c0.1,0,0.18,0.09,0.18,0.19C224.83,44.5,224.76,44.58,224.67,44.59z"/>
		</g>
		<g class="st8">
			<path class="st3" d="M196.29,56.97c-0.05,0.01-0.11-0.01-0.15-0.04l-8.85-7.64c-0.08-0.07-0.09-0.2-0.02-0.28
				c0.07-0.09,0.19-0.1,0.27-0.03l8.85,7.64c0.08,0.07,0.09,0.2,0.02,0.28C196.38,56.94,196.34,56.97,196.29,56.97z"/>
		</g>
		<g class="st14">
			<path class="st3" d="M209.85,54.49c-0.02,0-0.05,0-0.07,0l-22.41-5.14c-0.11-0.03-0.18-0.14-0.15-0.25
				c0.03-0.12,0.14-0.19,0.25-0.16l22.41,5.14c0.11,0.03,0.18,0.14,0.15,0.25C210,54.41,209.93,54.48,209.85,54.49z"/>
		</g>
		<g class="st11">
			<path class="st3" d="M179.21,52.31c-0.14,0.02-0.28-0.06-0.32-0.21c-0.05-0.16,0.04-0.34,0.19-0.39l8.24-2.87
				c0.16-0.05,0.32,0.03,0.37,0.19s-0.04,0.34-0.19,0.39l-8.24,2.87C179.24,52.31,179.23,52.31,179.21,52.31z"/>
		</g>
		<g class="st6">
			<path class="st3" d="M196.3,57.05c-0.03,0.01-0.07,0-0.11-0.01l-17.09-4.77c-0.14-0.04-0.22-0.19-0.18-0.34s0.19-0.23,0.33-0.2
				l17.09,4.77c0.14,0.04,0.22,0.19,0.18,0.34C196.49,56.96,196.4,57.03,196.3,57.05z"/>
		</g>
		<g class="st4">
			<path class="st3" d="M302.85,15.8c-0.01,0-0.03,0-0.05,0L278,14.74c-0.14-0.01-0.24-0.13-0.23-0.27
				c0.01-0.14,0.12-0.25,0.26-0.25l24.8,1.06c0.14,0.01,0.24,0.13,0.23,0.27C303.06,15.69,302.96,15.79,302.85,15.8z"/>
		</g>
		<g class="st8">
			<path class="st3" d="M224.67,44.6c-0.08,0.01-0.16-0.03-0.2-0.11c-0.05-0.1-0.01-0.22,0.09-0.27l19.39-10.36
				c0.09-0.05,0.21-0.01,0.26,0.09c0.05,0.1,0.01,0.22-0.09,0.27l-19.39,10.36C224.71,44.59,224.69,44.6,224.67,44.6z"/>
		</g>
		<g class="st10">
			<path class="st3" d="M252.72,44.82c-0.01,0-0.02,0-0.03,0l-28.05-0.21c-0.11,0-0.2-0.1-0.2-0.21c0-0.12,0.1-0.21,0.21-0.21
				l28.05,0.21c0.11,0,0.2,0.1,0.2,0.22C252.9,44.72,252.82,44.81,252.72,44.82z"/>
		</g>
		<g class="st4">
			<path class="st3" d="M223.17,50.38c-0.03,0-0.06,0-0.09,0c-0.13-0.03-0.2-0.17-0.17-0.3l1.5-5.73c0.03-0.13,0.17-0.21,0.3-0.18
				c0.13,0.03,0.2,0.17,0.17,0.3l-1.5,5.73C223.35,50.3,223.26,50.37,223.17,50.38z"/>
		</g>
		<g class="st8">
			<path class="st3" d="M223.17,50.34c-0.11,0.02-0.2-0.06-0.22-0.17s0.06-0.22,0.16-0.24l29.55-5.53c0.11-0.01,0.21,0.05,0.23,0.17
				c0.02,0.11-0.06,0.22-0.16,0.24L223.17,50.34L223.17,50.34z"/>
		</g>
		<g class="st14">
			<path class="st3" d="M226.41,58.19c-0.03,0-0.05,0-0.08,0l-16.56-3.69c-0.12-0.03-0.19-0.15-0.16-0.27
				c0.03-0.12,0.15-0.2,0.27-0.18l16.56,3.69c0.12,0.03,0.19,0.15,0.16,0.27C226.58,58.11,226.5,58.18,226.41,58.19z"/>
		</g>
		<g class="st11">
			<path class="st3" d="M196.3,57.11c-0.17,0.03-0.33-0.09-0.36-0.27c-0.03-0.18,0.09-0.36,0.27-0.39l13.56-2.5
				c0.18-0.02,0.34,0.09,0.37,0.27c0.03,0.18-0.09,0.36-0.27,0.39l-13.56,2.5C196.31,57.11,196.31,57.11,196.3,57.11z"/>
		</g>
		<g class="st10">
			<path class="st3" d="M181.15,69.06c-0.08,0.01-0.16-0.02-0.21-0.09c-0.08-0.1-0.06-0.26,0.05-0.34l15.15-12.05
				c0.1-0.08,0.25-0.06,0.33,0.04c0.08,0.1,0.06,0.26-0.05,0.34l-15.15,12.05C181.23,69.04,181.19,69.05,181.15,69.06z"/>
		</g>
		<g class="st14">
			<path class="st3" d="M226.41,58.19c-0.01,0-0.03,0-0.04,0L196.25,57c-0.12,0-0.21-0.11-0.2-0.23s0.11-0.22,0.23-0.22l30.12,1.19
				c0.12,0,0.21,0.11,0.2,0.23C226.59,58.09,226.51,58.18,226.41,58.19z"/>
		</g>
		<g class="st4">
			<path class="st3" d="M337.85,11.75L337.85,11.75l-35.01,4.07c-0.14,0.02-0.27-0.09-0.29-0.24c-0.01-0.15,0.1-0.28,0.24-0.3
				l35.01-4.07c0.14-0.02,0.27,0.09,0.29,0.24C338.1,11.6,337.99,11.73,337.85,11.75z"/>
		</g>
		<g class="st6">
			<path class="st3" d="M301.3,34.18c-0.01,0-0.01,0-0.02,0l-27.9,2.33c-0.16,0.01-0.29-0.11-0.3-0.27
				c-0.01-0.16,0.13-0.31,0.27-0.32l27.9-2.33c0.16-0.01,0.29,0.11,0.3,0.27C301.56,34.02,301.45,34.16,301.3,34.18z"/>
		</g>
		<g class="st2">
			<path class="st3" d="M252.73,44.9c-0.13,0.02-0.26-0.05-0.3-0.18c-0.06-0.15,0.02-0.32,0.17-0.38l20.67-8.39
				c0.15-0.06,0.31,0.01,0.37,0.17c0.06,0.15-0.02,0.32-0.17,0.38l-20.67,8.39C252.77,44.89,252.75,44.9,252.73,44.9z"/>
		</g>
		<g class="st7">
			<path class="st3" d="M256.27,48.67c-0.06,0.01-0.13-0.01-0.17-0.06l-3.55-3.85c-0.08-0.08-0.07-0.22,0.01-0.3
				c0.08-0.08,0.21-0.08,0.29,0l3.55,3.85c0.08,0.08,0.07,0.22-0.01,0.3C256.35,48.65,256.31,48.67,256.27,48.67z"/>
		</g>
		<g class="st8">
			<path class="st3" d="M246.34,52.93c-0.1,0.01-0.2-0.04-0.24-0.14c-0.05-0.12,0.01-0.26,0.13-0.3l9.93-4.23
				c0.12-0.05,0.25,0.01,0.29,0.13c0.05,0.12-0.01,0.26-0.13,0.3l-9.93,4.23C246.38,52.92,246.36,52.93,246.34,52.93z"/>
		</g>
		<g class="st17">
			<path class="st3" d="M246.35,52.98c-0.15,0.02-0.28-0.08-0.31-0.23c-0.03-0.16,0.07-0.31,0.22-0.34l36.96-7.69
				c0.14-0.03,0.3,0.07,0.32,0.23c0.03,0.16-0.07,0.31-0.23,0.34L246.35,52.98C246.36,52.98,246.35,52.98,246.35,52.98z"/>
		</g>
		<g class="st18">
			<path class="st3" d="M226.43,58.35c-0.19,0.03-0.36-0.09-0.4-0.28c-0.05-0.2,0.08-0.41,0.28-0.47l19.93-5.27
				c0.2-0.05,0.4,0.07,0.44,0.28c0.05,0.2-0.08,0.41-0.28,0.47l-19.93,5.27C226.45,58.34,226.44,58.34,226.43,58.35z"/>
		</g>
		<g class="st19">
			<path class="st3" d="M300.64,38.61c-0.03,0-0.05,0-0.08,0c-0.16-0.02-0.27-0.18-0.25-0.34l0.66-4.43
				c0.03-0.17,0.18-0.28,0.34-0.26s0.27,0.18,0.25,0.34l-0.66,4.43C300.87,38.49,300.77,38.59,300.64,38.61z"/>
		</g>
		<g class="st10">
			<path class="st3" d="M330,37.66c-0.01,0-0.02,0-0.03,0l-29.37,0.92c-0.15,0-0.26-0.11-0.27-0.26c0-0.15,0.12-0.27,0.26-0.28
				l29.37-0.92c0.15,0,0.26,0.11,0.27,0.26C330.23,37.53,330.13,37.64,330,37.66z"/>
		</g>
		<g class="st7">
			<path class="st3" d="M352.36,33.77h-0.01l-51.73,4.78c-0.13,0.01-0.24-0.08-0.24-0.22c-0.01-0.13,0.09-0.23,0.21-0.26l51.73-4.78
				c0.13-0.01,0.24,0.08,0.24,0.22C352.57,33.64,352.48,33.75,352.36,33.77z"/>
		</g>
		<g class="st5">
			<path class="st3" d="M303.88,41.71c-0.08,0.01-0.16-0.01-0.22-0.07l-3.24-3.12c-0.11-0.1-0.11-0.28-0.01-0.4
				c0.1-0.11,0.27-0.12,0.38-0.02l3.24,3.12c0.11,0.1,0.11,0.28,0.01,0.4C304,41.67,303.94,41.7,303.88,41.71z"/>
		</g>
		<g class="st20">
			<path class="st3" d="M303.9,41.89c-0.25,0.04-0.47-0.14-0.5-0.39s0.14-0.49,0.39-0.53l26.12-4.04l0,0
				c0.25-0.04,0.47,0.14,0.5,0.39s-0.14,0.49-0.39,0.53L303.9,41.89L303.9,41.89z"/>
		</g>
		<g class="st17">
			<path class="st3" d="M283.32,45.32c-0.16,0.02-0.31-0.09-0.33-0.25c-0.02-0.17,0.09-0.33,0.25-0.35l20.56-3.58
				c0.15-0.05,0.31,0.08,0.34,0.25c0.02,0.17-0.09,0.33-0.25,0.35L283.32,45.32L283.32,45.32z"/>
		</g>
		<g class="st10">
			<path class="st3" d="M283.31,45.3L283.31,45.3l-2.5,0.34c-0.16,0.02-0.3-0.09-0.32-0.25c-0.02-0.16,0.09-0.31,0.25-0.33l0,0
				l2.5-0.34c0.16-0.02,0.3,0.09,0.32,0.25C283.58,45.13,283.47,45.28,283.31,45.3z"/>
		</g>
		<g class="st10">
			<path class="st3" d="M283.31,45.3c-0.15,0.02-0.28-0.08-0.31-0.23c-0.03-0.16,0.07-0.31,0.23-0.34L329.65,35
				c0.15-0.03,0.3,0.07,0.33,0.23c0.03,0.16-0.07,0.31-0.23,0.34l-46.42,9.73C283.33,45.3,283.32,45.3,283.31,45.3z"/>
		</g>
		<g class="st4">
			<path class="st3" d="M280.82,45.71c-0.15,0.02-0.3-0.06-0.36-0.21c-0.07-0.18,0.01-0.39,0.19-0.47l9.26-4.1
				c0.17-0.08,0.38,0,0.45,0.19c0.07,0.18-0.01,0.39-0.19,0.47l-9.26,4.1C280.88,45.69,280.85,45.7,280.82,45.71z"/>
		</g>
		<g class="st8">
			<path class="st3" d="M280.82,45.64c-0.14,0.02-0.28-0.07-0.31-0.22s0.06-0.31,0.21-0.35l58.66-14.15
				c0.15-0.03,0.3,0.06,0.33,0.22c0.03,0.15-0.06,0.31-0.22,0.35l-58.65,14.14C280.83,45.64,280.82,45.64,280.82,45.64z"/>
		</g>
		<g class="st7">
			<path class="st3" d="M280.81,45.63c-0.14,0.02-0.27-0.08-0.29-0.22c-0.03-0.15,0.07-0.3,0.22-0.33l48.92-10.07
				c0.15-0.02,0.28,0.07,0.31,0.22s-0.07,0.3-0.22,0.33l-48.92,10.07C280.82,45.63,280.82,45.63,280.81,45.63z"/>
		</g>
		<g class="st5">
			<path class="st3" d="M331.65,51.01c-0.04,0.01-0.08,0-0.12,0l-41.57-9.42c-0.18-0.04-0.29-0.23-0.25-0.41
				c0.04-0.19,0.22-0.31,0.41-0.27l41.57,9.42c0.18,0.04,0.29,0.23,0.25,0.41C331.9,50.89,331.79,50.99,331.65,51.01z"/>
		</g>
		<g class="st19">
			<path class="st3" d="M423.14,17.65c-0.03,0-0.07,0-0.1,0l-34.05-6.19c-0.18-0.03-0.29-0.21-0.26-0.39
				c0.04-0.18,0.21-0.3,0.38-0.27l34.05,6.19c0.18,0.03,0.29,0.21,0.26,0.39C423.39,17.53,423.27,17.63,423.14,17.65z"/>
		</g>
		<g class="st6">
			<path class="st3" d="M397.43,29.18c-0.02,0-0.04,0-0.06,0l-38.66-0.87c-0.19,0-0.34-0.17-0.33-0.37s0.17-0.36,0.36-0.35
				l38.66,0.87c0.19,0,0.34,0.17,0.33,0.37C397.73,29.01,397.6,29.15,397.43,29.18z"/>
		</g>
		<g class="st11">
			<path class="st3" d="M352.38,33.95c-0.13,0.02-0.27-0.03-0.36-0.14c-0.14-0.17-0.12-0.44,0.05-0.58l6.4-5.58
				c0.17-0.15,0.42-0.13,0.56,0.04c0.14,0.17,0.12,0.44-0.06,0.58l-6.4,5.58C352.52,33.9,352.45,33.93,352.38,33.95z"/>
		</g>
		<g class="st17">
			<path class="st3" d="M394.73,38.21c-0.02,0-0.05,0-0.08,0l-42.36-4.35c-0.17-0.02-0.3-0.18-0.28-0.36
				c0.02-0.18,0.18-0.31,0.35-0.29l42.36,4.35c0.17,0.02,0.3,0.18,0.28,0.36C394.99,38.07,394.87,38.19,394.73,38.21z"/>
		</g>
		<g class="st7">
			<path class="st3" d="M397.42,29.08h-0.01l-45.06,4.71c-0.14,0.01-0.26-0.09-0.28-0.24c-0.01-0.15,0.07-0.27,0.23-0.29l45.06-4.71
				c0.14-0.01,0.26,0.09,0.28,0.24C397.66,28.94,397.56,29.06,397.42,29.08z"/>
		</g>
		<g class="st4">
			<path class="st3" d="M330.01,37.73c-0.17,0.03-0.33-0.1-0.36-0.28s0.1-0.36,0.27-0.39l22.36-3.86c0.16-0.03,0.34,0.09,0.37,0.28
				c0.03,0.18-0.1,0.36-0.27,0.39L330.01,37.73L330.01,37.73z"/>
		</g>
		<g class="st15">
			<path class="st3" d="M329.76,35.81c-0.23,0.03-0.46-0.1-0.54-0.33c-0.1-0.27,0.03-0.58,0.3-0.7l9.74-4.08
				c0.26-0.11,0.56,0.02,0.67,0.29c0.1,0.27-0.03,0.58-0.3,0.7l-9.74,4.09C329.84,35.8,329.8,35.81,329.76,35.81z"/>
		</g>
		<g class="st2">
			<path class="st3" d="M337.14,71.81c-0.22,0.03-0.44-0.11-0.5-0.34l-5.48-20.67c-0.07-0.25,0.08-0.52,0.32-0.59
				c0.24-0.07,0.5,0.07,0.57,0.32l5.48,20.67c0.07,0.25-0.08,0.52-0.32,0.59C337.19,71.81,337.16,71.81,337.14,71.81z"/>
		</g>
		<g class="st14">
			<path class="st3" d="M331.65,51.03c-0.18,0.03-0.35-0.09-0.39-0.27c-0.04-0.2,0.08-0.4,0.27-0.45l79.12-20.48
				c0.19-0.06,0.38,0.07,0.43,0.27c0.04,0.2-0.08,0.4-0.27,0.45l-79.12,20.48C331.68,51.03,331.67,51.03,331.65,51.03z"/>
		</g>
		<g class="st19">
			<path class="st3" d="M436.3,32.51c-0.11,0.02-0.23-0.02-0.31-0.11l-13.16-14.82c-0.13-0.15-0.12-0.38,0.03-0.52
				s0.37-0.13,0.51,0.02l13.16,14.82c0.13,0.15,0.12,0.38-0.03,0.52C436.44,32.46,436.37,32.5,436.3,32.51z"/>
		</g>
		<g class="st19">
			<path class="st3" d="M397.43,29.18c-0.15,0.02-0.31-0.06-0.37-0.21c-0.07-0.18,0.01-0.4,0.19-0.48l25.71-11.5
				c0.18-0.08,0.38,0,0.46,0.19c0.07,0.18-0.01,0.4-0.19,0.48l-25.71,11.5C397.5,29.17,397.47,29.18,397.43,29.18z"/>
		</g>
		<g class="st2">
			<path class="st3" d="M436.3,32.53c-0.03,0-0.06,0.01-0.09,0l-38.86-3.32c-0.21-0.02-0.37-0.21-0.34-0.43
				c0.02-0.22,0.21-0.38,0.42-0.37l38.86,3.32c0.21,0.02,0.37,0.21,0.34,0.43C436.62,32.36,436.48,32.51,436.3,32.53z"/>
		</g>
		<g class="st17">
			<path class="st3" d="M394.73,38.21c-0.04,0.01-0.09,0-0.13-0.01c-0.17-0.05-0.26-0.23-0.21-0.41l2.7-9.06
				c0.05-0.17,0.23-0.27,0.4-0.22c0.17,0.05,0.26,0.23,0.21,0.41l-2.7,9.06C394.96,38.1,394.85,38.19,394.73,38.21z"/>
		</g>
		<g class="st11">
			<path class="st3" d="M429.51,44.04c-0.04,0.01-0.09,0.01-0.13,0l-34.76-5.7c-0.24-0.04-0.4-0.28-0.36-0.53s0.27-0.42,0.52-0.38
				l34.76,5.7c0.24,0.04,0.4,0.28,0.36,0.53C429.86,43.86,429.7,44.01,429.51,44.04z"/>
		</g>
		<g class="st6">
			<path class="st3" d="M394.74,38.27c-0.09,0.01-0.18-0.01-0.26-0.06l-2.98-1.97c-0.18-0.12-0.23-0.36-0.11-0.54
				c0.12-0.18,0.35-0.24,0.53-0.12l2.98,1.97c0.18,0.12,0.23,0.36,0.11,0.54C394.95,38.19,394.84,38.26,394.74,38.27z"/>
		</g>
		<g class="st9">
			<path class="st3" d="M428.34,43.73c-0.05,0.01-0.1,0.01-0.15,0l-36.58-7.36c-0.24-0.05-0.39-0.29-0.34-0.54
				c0.05-0.25,0.29-0.41,0.53-0.36l36.58,7.36c0.24,0.05,0.39,0.29,0.34,0.54C428.68,43.56,428.52,43.7,428.34,43.73z"/>
		</g>
		<g class="st7">
			<path class="st3" d="M429.49,43.87c-0.03,0-0.06,0-0.1,0l-37.75-7.66c-0.15-0.03-0.25-0.19-0.22-0.35s0.19-0.26,0.34-0.23
				l37.75,7.66c0.15,0.03,0.25,0.19,0.22,0.35C429.71,43.77,429.61,43.86,429.49,43.87z"/>
		</g>
		<g class="st20">
			<path class="st3" d="M427.31,29.63c-0.28,0.04-0.56-0.11-0.68-0.4l-3.57-8.91c-0.14-0.34,0.02-0.74,0.35-0.88
				c0.33-0.15,0.71,0.01,0.85,0.35l3.57,8.91c0.14,0.34-0.02,0.74-0.35,0.88C427.42,29.61,427.37,29.62,427.31,29.63z"/>
		</g>
		<g class="st5">
			<path class="st3" d="M410.78,30.62c-0.14,0.02-0.29-0.04-0.39-0.16c-0.14-0.19-0.1-0.46,0.09-0.6l12.92-10.14
				c0.19-0.14,0.45-0.11,0.58,0.08c0.14,0.19,0.1,0.46-0.09,0.6l-12.92,10.14C410.92,30.58,410.85,30.61,410.78,30.62z"/>
		</g>
		<g class="st14">
			<path class="st3" d="M429.49,43.89c-0.07,0.01-0.13,0-0.2-0.04c-0.14-0.09-0.18-0.28-0.1-0.43l6.8-11.44
				c0.09-0.15,0.27-0.2,0.42-0.11c0.14,0.09,0.18,0.28,0.1,0.43l-6.8,11.44C429.66,43.83,429.58,43.88,429.49,43.89z"/>
		</g>
		<g class="st14">
			<path class="st3" d="M429.49,43.91c-0.04,0.01-0.08,0-0.12-0.01l-1.17-0.31c-0.17-0.04-0.27-0.22-0.22-0.4s0.22-0.28,0.39-0.24
				l1.17,0.31c0.17,0.04,0.27,0.22,0.22,0.4C429.72,43.79,429.62,43.89,429.49,43.91z"/>
		</g>
		<path class="st3" d="M471.64,30.07c0.52-0.08,1,0.3,1.06,0.84s-0.31,1.04-0.83,1.12c-0.52,0.08-1-0.3-1.06-0.84
			C470.74,30.65,471.12,30.15,471.64,30.07z"/>
		<path class="st3" d="M456.65,26.99c0.53-0.08,1.01,0.3,1.07,0.85c0.06,0.54-0.31,1.05-0.84,1.13s-1.01-0.3-1.07-0.85
			S456.13,27.06,456.65,26.99z"/>
		<path class="st3" d="M468.69,51.99c0.51-0.07,0.97,0.29,1.03,0.81s-0.3,1.01-0.81,1.08s-0.97-0.29-1.03-0.81
			C467.83,52.55,468.19,52.07,468.69,51.99z"/>
		<path class="st3" d="M459.66,68.59c0.52-0.08,0.98,0.29,1.05,0.83s-0.3,1.02-0.82,1.1c-0.51,0.08-0.98-0.29-1.05-0.83
			C458.78,69.16,459.14,68.67,459.66,68.59z"/>
		<path class="st3" d="M451.29,64.62c0.53-0.08,1.01,0.3,1.07,0.85c0.06,0.54-0.31,1.05-0.84,1.13c-0.53,0.08-1.01-0.3-1.07-0.85
			C450.38,65.2,450.76,64.69,451.29,64.62z"/>
		<path class="st3" d="M202.22,11.44c0.45-0.07,0.86,0.26,0.92,0.72c0.05,0.47-0.27,0.9-0.72,0.96c-0.45,0.07-0.86-0.26-0.92-0.72
			C201.44,11.93,201.77,11.5,202.22,11.44z"/>
		<path class="st3" d="M189.77,23.05c0.46-0.07,0.89,0.27,0.94,0.74c0.06,0.48-0.28,0.92-0.74,0.99c-0.46,0.07-0.89-0.27-0.94-0.74
			C188.97,23.56,189.3,23.12,189.77,23.05z"/>
		<path class="st3" d="M184.7,20.46c0.47-0.07,0.9,0.27,0.96,0.76c0.06,0.49-0.28,0.94-0.75,1.01c-0.47,0.07-0.9-0.27-0.96-0.76
			S184.23,20.53,184.7,20.46z"/>
		<path class="st3" d="M175.78,6.6c0.51-0.07,0.97,0.29,1.03,0.81c0.06,0.52-0.3,1.01-0.81,1.08s-0.97-0.29-1.03-0.81
			C174.91,7.16,175.27,6.68,175.78,6.6z"/>
		<path class="st3" d="M166.89,16.83c0.52-0.08,1,0.3,1.06,0.84s-0.31,1.04-0.83,1.12s-1-0.3-1.06-0.84
			C165.99,17.41,166.37,16.91,166.89,16.83z"/>
		<path class="st3" d="M157.94,17.14c0.54-0.08,1.03,0.31,1.1,0.87c0.07,0.56-0.32,1.07-0.86,1.15c-0.54,0.08-1.03-0.31-1.1-0.87
			C157.02,17.73,157.4,17.22,157.94,17.14z"/>
		<path class="st3" d="M217.95,17.56c0.47-0.07,0.9,0.27,0.96,0.76c0.06,0.49-0.28,0.94-0.75,1.01c-0.47,0.07-0.9-0.27-0.96-0.76
			C217.14,18.08,217.48,17.63,217.95,17.56z"/>
		<path class="st3" d="M203.13,25.28c0.47-0.07,0.9,0.27,0.95,0.75c0.06,0.48-0.28,0.93-0.75,1s-0.9-0.27-0.95-0.75
			S202.66,25.35,203.13,25.28z"/>
		<path class="st3" d="M193.86,32.96c0.48-0.07,0.91,0.27,0.97,0.76c0.06,0.49-0.28,0.95-0.76,1.02s-0.91-0.27-0.97-0.76
			C193.04,33.49,193.38,33.03,193.86,32.96z"/>
		<path class="st3" d="M182.2,35.83c0.5-0.07,0.96,0.29,1.02,0.81s-0.3,1-0.8,1.07s-0.96-0.29-1.02-0.81S181.7,35.9,182.2,35.83z"/>
		<path class="st3" d="M174.69,29.11c0.51-0.08,0.98,0.29,1.05,0.83c0.06,0.53-0.3,1.02-0.82,1.1c-0.51,0.08-0.98-0.29-1.05-0.83
			C173.81,29.68,174.18,29.18,174.69,29.11z"/>
		<path class="st3" d="M156.19,42.16c0.52-0.08,1,0.3,1.06,0.84s-0.31,1.04-0.83,1.12s-1-0.3-1.06-0.84
			C155.3,42.74,155.67,42.24,156.19,42.16z"/>
		<path class="st3" d="M238.74,18.68c0.5-0.07,0.96,0.29,1.02,0.81s-0.3,1-0.8,1.07s-0.96-0.29-1.02-0.81S238.24,18.75,238.74,18.68
			z"/>
		<path class="st3" d="M219.4,28.43c0.49-0.07,0.93,0.28,0.99,0.78s-0.29,0.97-0.77,1.04c-0.49,0.07-0.93-0.28-0.99-0.78
			S218.92,28.5,219.4,28.43z"/>
		<path class="st3" d="M209.17,42.57c0.51-0.07,0.97,0.29,1.03,0.81c0.06,0.52-0.3,1.01-0.81,1.08s-0.97-0.29-1.03-0.81
			C208.3,43.13,208.66,42.65,209.17,42.57z"/>
		<path class="st3" d="M197.88,43.35c0.5-0.07,0.96,0.29,1.02,0.81s-0.3,1-0.8,1.07s-0.96-0.29-1.02-0.81
			C197.02,43.91,197.37,43.43,197.88,43.35z"/>
		<path class="st3" d="M187.3,48.14c0.53-0.08,1.01,0.3,1.08,0.85c0.06,0.55-0.31,1.06-0.85,1.13c-0.53,0.08-1.02-0.3-1.08-0.85
			C186.38,48.73,186.76,48.22,187.3,48.14z"/>
		<path class="st3" d="M179.05,51c0.54-0.08,1.03,0.31,1.1,0.87c0.07,0.56-0.32,1.07-0.86,1.15s-1.03-0.31-1.1-0.87
			C178.13,51.59,178.51,51.08,179.05,51z"/>
		<path class="st3" d="M277.89,13.47c0.55-0.08,1.05,0.31,1.11,0.88c0.07,0.57-0.32,1.09-0.87,1.17s-1.05-0.31-1.11-0.88
			C276.95,14.07,277.35,13.55,277.89,13.47z"/>
		<path class="st3" d="M243.92,33.06c0.52-0.08,1,0.3,1.06,0.84s-0.31,1.04-0.83,1.12s-1-0.3-1.06-0.84
			C243.03,33.64,243.4,33.14,243.92,33.06z"/>
		<path class="st3" d="M224.53,43.42c0.52-0.08,1,0.3,1.06,0.84s-0.31,1.04-0.83,1.12s-1-0.3-1.06-0.84
			C223.63,44,224.01,43.5,224.53,43.42z"/>
		<path class="st3" d="M223.02,49.12c0.54-0.08,1.04,0.31,1.1,0.87c0.07,0.56-0.32,1.08-0.87,1.16c-0.54,0.08-1.04-0.31-1.1-0.87
			C222.09,49.72,222.48,49.2,223.02,49.12z"/>
		<path class="st3" d="M209.7,53.21c0.57-0.08,1.09,0.33,1.16,0.91c0.07,0.59-0.34,1.13-0.91,1.21c-0.57,0.08-1.09-0.33-1.16-0.91
			C208.72,53.84,209.13,53.3,209.7,53.21z"/>
		<path class="st3" d="M196.14,55.71c0.57-0.08,1.09,0.33,1.16,0.91c0.07,0.59-0.34,1.13-0.91,1.21c-0.57,0.08-1.09-0.33-1.16-0.91
			C195.17,56.34,195.57,55.79,196.14,55.71z"/>
		<path class="st3" d="M180.99,67.74c0.58-0.08,1.1,0.33,1.17,0.93s-0.34,1.15-0.92,1.23c-0.58,0.08-1.1-0.33-1.17-0.93
			C180,68.38,180.42,67.83,180.99,67.74z"/>
		<path class="st3" d="M302.69,14.46c0.59-0.09,1.12,0.33,1.19,0.94c0.07,0.6-0.35,1.16-0.93,1.25c-0.59,0.09-1.12-0.33-1.19-0.94
			C301.68,15.1,302.1,14.54,302.69,14.46z"/>
		<path class="st3" d="M273.24,35.15c0.57-0.08,1.09,0.33,1.16,0.92s-0.34,1.14-0.91,1.22s-1.09-0.33-1.16-0.92
			C272.26,35.78,272.67,35.23,273.24,35.15z"/>
		<path class="st3" d="M252.57,43.56c0.56-0.08,1.07,0.32,1.14,0.9c0.07,0.58-0.33,1.11-0.89,1.2c-0.56,0.08-1.07-0.32-1.14-0.9
			C251.61,44.18,252.01,43.64,252.57,43.56z"/>
		<path class="st3" d="M256.11,47.33c0.61-0.09,1.16,0.35,1.23,0.97s-0.36,1.21-0.97,1.3c-0.61,0.09-1.16-0.35-1.23-0.97
			S255.51,47.42,256.11,47.33z"/>
		<path class="st3" d="M246.18,51.51c0.64-0.09,1.21,0.36,1.29,1.02s-0.38,1.26-1.01,1.36s-1.21-0.36-1.29-1.02
			C245.09,52.21,245.54,51.6,246.18,51.51z"/>
		<path class="st3" d="M226.24,56.8c0.62-0.09,1.19,0.36,1.27,1s-0.37,1.24-0.99,1.33s-1.19-0.36-1.27-1
			C225.18,57.49,225.62,56.89,226.24,56.8z"/>
		<path class="st3" d="M337.68,10.31c0.63-0.09,1.2,0.36,1.27,1.01c0.08,0.65-0.37,1.25-1,1.34s-1.2-0.36-1.27-1.01
			C336.61,11,337.06,10.4,337.68,10.31z"/>
		<path class="st3" d="M301.13,32.74c0.62-0.09,1.17,0.35,1.25,0.99c0.07,0.64-0.36,1.22-0.98,1.31c-0.62,0.09-1.17-0.35-1.25-0.99
			S300.51,32.83,301.13,32.74z"/>
		<path class="st3" d="M300.46,37.11c0.64-0.09,1.23,0.37,1.31,1.03c0.08,0.67-0.38,1.28-1.03,1.38s-1.23-0.37-1.31-1.03
			C299.36,37.82,299.82,37.2,300.46,37.11z"/>
		<path class="st3" d="M303.69,40.14c0.69-0.1,1.32,0.39,1.4,1.11c0.08,0.71-0.41,1.37-1.1,1.47s-1.32-0.39-1.4-1.11
			C302.51,40.9,303,40.24,303.69,40.14z"/>
		<path class="st3" d="M283.13,43.7c0.7-0.1,1.33,0.4,1.42,1.12c0.08,0.72-0.41,1.39-1.11,1.49c-0.7,0.1-1.33-0.4-1.42-1.12
			C281.93,44.48,282.43,43.81,283.13,43.7z"/>
		
			<ellipse transform="matrix(0.272 -0.9623 0.9623 0.272 160.7448 303.1951)" class="st3" cx="280.76" cy="45.36" rx="1.42" ry="1.36"/>
		<path class="st3" d="M289.86,39.72c0.82-0.12,1.57,0.47,1.67,1.32s-0.49,1.63-1.31,1.75s-1.57-0.47-1.67-1.32
			C288.46,40.62,289.04,39.84,289.86,39.72z"/>
		<path class="st3" d="M388.9,9.83c0.7-0.1,1.33,0.4,1.42,1.12c0.08,0.72-0.41,1.39-1.11,1.49c-0.7,0.1-1.33-0.4-1.42-1.12
			S388.2,9.93,388.9,9.83z"/>
		<path class="st3" d="M358.58,26.64c0.7-0.1,1.33,0.4,1.42,1.12c0.08,0.72-0.41,1.39-1.11,1.49c-0.7,0.1-1.33-0.4-1.42-1.12
			C357.38,27.41,357.88,26.75,358.58,26.64z"/>
		<path class="st3" d="M352.17,32.2c0.72-0.11,1.37,0.41,1.45,1.15c0.09,0.74-0.42,1.42-1.14,1.53s-1.37-0.41-1.45-1.15
			C350.95,32.99,351.46,32.3,352.17,32.2z"/>
		<path class="st3" d="M329.81,36.05c0.72-0.11,1.37,0.41,1.46,1.15c0.09,0.74-0.43,1.43-1.15,1.54s-1.37-0.41-1.46-1.15
			S329.09,36.15,329.81,36.05z"/>
		<path class="st3" d="M329.53,33.8c0.8-0.12,1.52,0.45,1.61,1.27c0.1,0.82-0.47,1.58-1.27,1.7s-1.52-0.45-1.61-1.27
			C328.16,34.68,328.73,33.92,329.53,33.8z"/>
		<path class="st3" d="M339.25,29.61c0.85-0.12,1.62,0.49,1.73,1.36c0.1,0.88-0.5,1.69-1.35,1.81s-1.62-0.49-1.73-1.36
			C337.8,30.55,338.4,29.74,339.25,29.61z"/>
		<path class="st3" d="M331.41,48.97c0.91-0.13,1.74,0.52,1.85,1.46c0.11,0.94-0.54,1.81-1.45,1.95c-0.91,0.13-1.74-0.52-1.85-1.46
			C329.85,49.97,330.5,49.1,331.41,48.97z"/>
		<path class="st3" d="M422.93,15.91c0.75-0.11,1.44,0.43,1.53,1.21c0.09,0.78-0.45,1.5-1.2,1.61s-1.44-0.43-1.53-1.21
			C421.64,16.74,422.18,16.02,422.93,15.91z"/>
		<path class="st3" d="M397.23,27.43c0.75-0.11,1.42,0.43,1.51,1.19c0.09,0.77-0.44,1.48-1.19,1.59s-1.42-0.43-1.51-1.19
			C395.95,28.25,396.48,27.54,397.23,27.43z"/>
		<path class="st3" d="M394.52,36.42c0.78-0.11,1.49,0.45,1.59,1.25c0.09,0.81-0.46,1.56-1.25,1.67c-0.78,0.11-1.49-0.45-1.59-1.25
			C393.18,37.28,393.74,36.53,394.52,36.42z"/>
		<path class="st3" d="M391.53,34.38c0.82-0.12,1.57,0.47,1.67,1.32s-0.49,1.63-1.31,1.75s-1.57-0.47-1.67-1.32
			C390.12,35.29,390.71,34.5,391.53,34.38z"/>
		<path class="st3" d="M427.02,27.15c0.97-0.14,1.85,0.55,1.97,1.56c0.12,1-0.57,1.93-1.55,2.07c-0.97,0.14-1.85-0.55-1.97-1.56
			C425.35,28.22,426.05,27.29,427.02,27.15z"/>
		<path class="st3" d="M423.44,18.16c1.01-0.15,1.93,0.58,2.06,1.62c0.12,1.05-0.6,2.01-1.61,2.16s-1.93-0.58-2.06-1.62
			C421.7,19.28,422.42,18.31,423.44,18.16z"/>
		<path class="st3" d="M410.5,28.2c1.06-0.16,2.03,0.61,2.16,1.7c0.13,1.1-0.63,2.11-1.69,2.27s-2.03-0.61-2.16-1.7
			C408.68,29.38,409.44,28.36,410.5,28.2z"/>
		<path class="st3" d="M336.88,69.56c0.95-0.14,1.81,0.54,1.93,1.52c0.11,0.98-0.56,1.89-1.51,2.03c-0.95,0.14-1.81-0.54-1.93-1.52
			S335.93,69.7,336.88,69.56z"/>
		<path class="st3" d="M436.08,30.66c0.79-0.12,1.51,0.45,1.61,1.27c0.1,0.82-0.47,1.57-1.26,1.69s-1.51-0.45-1.61-1.27
			C434.73,31.53,435.29,30.78,436.08,30.66z"/>
		<path class="st3" d="M429.27,42.03c0.83-0.12,1.58,0.47,1.68,1.33s-0.49,1.65-1.32,1.77c-0.83,0.12-1.58-0.47-1.68-1.33
			C427.85,42.95,428.44,42.15,429.27,42.03z"/>
		<path class="st3" d="M428.09,41.62c0.89-0.13,1.69,0.51,1.8,1.42c0.11,0.92-0.53,1.76-1.41,1.89c-0.89,0.13-1.69-0.51-1.8-1.42
			S427.2,41.75,428.09,41.62z"/>
	</g>
	<g class="st8">
		<path class="st3" d="M111.48,13.52c0-0.01-0.01-0.02-0.01-0.03c-0.01-0.07,0.04-0.14,0.11-0.15l0.63-0.08
			c0.07-0.01,0.14,0.04,0.15,0.11s-0.04,0.14-0.11,0.15l-0.63,0.09C111.56,13.61,111.5,13.57,111.48,13.52z"/>
	</g>
	<g class="st8">
		<path class="st3" d="M111.48,13.52c-0.02-0.04-0.02-0.08,0.01-0.12c0.04-0.06,0.12-0.08,0.18-0.05l15.06,8.53
			c0.06,0.04,0.09,0.12,0.05,0.18c-0.04,0.06-0.12,0.08-0.18,0.05l-15.06-8.53C111.51,13.57,111.49,13.54,111.48,13.52z"/>
	</g>
	<g class="st10">
		<path class="st3" d="M112.09,13.44c-0.02-0.04-0.02-0.09,0.01-0.14c0.05-0.07,0.14-0.09,0.21-0.05l14.43,8.62
			c0.07,0.04,0.09,0.13,0.05,0.2c-0.05,0.07-0.14,0.09-0.21,0.05l-14.43-8.62C112.12,13.49,112.1,13.47,112.09,13.44z"/>
	</g>
	<g class="st21">
		<path class="st3" d="M132.34,28.04c-0.03-0.07-0.03-0.14,0-0.22c0.06-0.13,0.23-0.19,0.37-0.13l4.84,2.11
			c0.14,0.06,0.2,0.22,0.14,0.35s-0.23,0.19-0.37,0.13l-4.84-2.11C132.41,28.14,132.37,28.09,132.34,28.04z"/>
	</g>
	<g class="st5">
		<path class="st3" d="M132.43,28c-0.03-0.07-0.01-0.15,0.05-0.2c0.08-0.06,0.19-0.04,0.24,0.03l8.86,11.26
			c0.06,0.08,0.04,0.18-0.03,0.23c-0.08,0.06-0.19,0.04-0.24-0.03l-8.86-11.26C132.45,28.02,132.44,28.01,132.43,28z"/>
	</g>
	<g class="st14">
		<path class="st3" d="M108.42,14.3c-0.03-0.07,0-0.16,0.08-0.19c0.08-0.04,0.17,0,0.21,0.07l4.72,9.47c0.03,0.08,0,0.16-0.07,0.2
			s-0.17,0-0.21-0.07L108.42,14.3C108.42,14.31,108.42,14.31,108.42,14.3z"/>
	</g>
	<g class="st6">
		<path class="st3" d="M141.26,39.27c-0.03-0.06-0.02-0.13,0.02-0.19c0.06-0.09,0.2-0.12,0.29-0.05l11.01,7.12
			c0.1,0.06,0.12,0.19,0.06,0.28s-0.2,0.12-0.29,0.05l-11.01-7.12C141.31,39.34,141.28,39.31,141.26,39.27z"/>
	</g>
	<g class="st6">
		<path class="st3" d="M136.7,45.79c-0.03-0.06-0.02-0.14,0.02-0.2l4.56-6.51c0.07-0.1,0.2-0.12,0.3-0.06
			c0.1,0.07,0.13,0.2,0.06,0.29l-4.56,6.51c-0.07,0.1-0.2,0.12-0.3,0.06C136.74,45.85,136.71,45.82,136.7,45.79z"/>
	</g>
	<g class="st5">
		<path class="st3" d="M141.29,39.26c-0.04-0.08-0.01-0.17,0.07-0.22c0.09-0.05,0.2-0.02,0.25,0.06l9.67,15.58
			c0.05,0.08,0.02,0.19-0.06,0.24c-0.09,0.05-0.2,0.02-0.25-0.06l-9.67-15.58C141.3,39.28,141.29,39.27,141.29,39.26z"/>
	</g>
	<g class="st17">
		<path class="st3" d="M107.92,31.87c-0.02-0.05-0.02-0.11,0.01-0.16l5.19-8.09c0.05-0.08,0.17-0.11,0.25-0.06s0.11,0.16,0.06,0.24
			l-5.19,8.09c-0.05,0.08-0.17,0.11-0.25,0.06C107.96,31.93,107.94,31.91,107.92,31.87z"/>
	</g>
	<g class="st5">
		<path class="st3" d="M136.72,45.77c-0.02-0.05-0.02-0.12,0.02-0.17c0.06-0.08,0.17-0.1,0.26-0.05l14.23,9.07
			c0.08,0.05,0.11,0.17,0.05,0.25s-0.17,0.1-0.26,0.05l-14.23-9.07C136.76,45.83,136.74,45.81,136.72,45.77z"/>
	</g>
	<g class="st8">
		<path class="st3" d="M129.36,61.58c-0.02-0.04-0.02-0.08,0-0.13l7.38-15.82c0.04-0.08,0.13-0.11,0.21-0.08s0.12,0.13,0.08,0.21
			l-7.38,15.82c-0.04,0.08-0.13,0.11-0.21,0.08C129.41,61.65,129.38,61.62,129.36,61.58z"/>
	</g>
	<g class="st12">
		<path class="st3" d="M107.92,41.08c-0.01-0.03-0.02-0.07-0.03-0.1l-0.71-8.81c-0.01-0.18,0.12-0.33,0.31-0.34
			c0.18-0.01,0.34,0.12,0.36,0.29l0.71,8.81c0.01,0.18-0.12,0.33-0.31,0.34C108.1,41.28,107.97,41.2,107.92,41.08z"/>
	</g>
	<g class="st22">
		<path class="st3" d="M129.19,61.65c-0.05-0.12-0.03-0.26,0.07-0.36c0.13-0.13,0.35-0.14,0.49-0.01l6.99,6.4
			c0.14,0.13,0.14,0.34,0.01,0.47s-0.35,0.14-0.49,0.01l-6.99-6.4C129.24,61.73,129.21,61.69,129.19,61.65z"/>
	</g>
	<g class="st2">
		<path class="st3" d="M122.31,69.34c-0.03-0.08-0.02-0.17,0.04-0.24l6.99-7.73c0.08-0.09,0.23-0.1,0.33-0.02
			c0.1,0.08,0.11,0.22,0.02,0.32l-6.99,7.73c-0.08,0.09-0.23,0.1-0.33,0.02C122.34,69.4,122.32,69.37,122.31,69.34z"/>
	</g>
	<g class="st17">
		<path class="st3" d="M129.33,61.55c-0.03-0.08,0-0.16,0.08-0.2s0.18-0.01,0.22,0.07l6.43,12.42c0.04,0.07,0.01,0.17-0.08,0.21
			c-0.08,0.04-0.18,0.01-0.22-0.07L129.33,61.55L129.33,61.55z"/>
	</g>
	<path class="st3" d="M112.21,13.22c0.14,0.32-0.01,0.69-0.34,0.83s-0.72-0.01-0.86-0.33s0.01-0.69,0.34-0.83
		S112.06,12.9,112.21,13.22z"/>
	<path class="st3" d="M127.3,21.74c0.15,0.34-0.01,0.73-0.36,0.88c-0.35,0.15-0.76-0.01-0.92-0.35c-0.15-0.34,0.01-0.73,0.36-0.88
		C126.74,21.24,127.15,21.4,127.3,21.74z"/>
	<path class="st3" d="M112.86,13.12c0.15,0.34-0.01,0.73-0.36,0.87s-0.76-0.01-0.91-0.35c-0.15-0.34,0.01-0.73,0.36-0.87
		C112.31,12.63,112.71,12.79,112.86,13.12z"/>
	<path class="st3" d="M138.13,29.75c0.16,0.37-0.01,0.79-0.39,0.95s-0.82-0.01-0.99-0.38c-0.16-0.37,0.01-0.79,0.39-0.95
		C137.52,29.22,137.96,29.39,138.13,29.75z"/>
	<path class="st3" d="M133.29,27.64c0.17,0.37-0.01,0.8-0.4,0.96s-0.83-0.01-1-0.38c-0.17-0.37,0.01-0.8,0.4-0.96
		C132.68,27.1,133.13,27.27,133.29,27.64z"/>
	<path class="st3" d="M109.23,13.97c0.16,0.36-0.01,0.77-0.38,0.92s-0.8-0.01-0.96-0.37c-0.16-0.36,0.01-0.77,0.38-0.92
		S109.07,13.61,109.23,13.97z"/>
	<path class="st3" d="M142.19,38.89c0.17,0.39-0.01,0.84-0.42,1.01s-0.88-0.01-1.05-0.4s0.01-0.84,0.42-1.01
		C141.55,38.32,142.02,38.5,142.19,38.89z"/>
	<path class="st3" d="M113.99,23.42c0.17,0.37-0.01,0.81-0.4,0.97s-0.84-0.01-1.01-0.39c-0.17-0.37,0.01-0.81,0.4-0.97
		S113.82,23.05,113.99,23.42z"/>
	<path class="st3" d="M137.64,45.39c0.18,0.4-0.01,0.86-0.43,1.03c-0.41,0.17-0.89-0.01-1.07-0.41c-0.18-0.4,0.01-0.86,0.43-1.03
		C136.99,44.81,137.47,45,137.64,45.39z"/>
	<path class="st3" d="M108.27,31.82c0.18,0.41-0.01,0.88-0.44,1.05c-0.42,0.17-0.91-0.01-1.09-0.42c-0.18-0.41,0.01-0.88,0.44-1.05
		C107.6,31.23,108.09,31.41,108.27,31.82z"/>
	<path class="st3" d="M130.27,61.21c0.18,0.4-0.01,0.87-0.43,1.04s-0.9-0.01-1.08-0.41c-0.18-0.4,0.01-0.87,0.43-1.04
		C129.61,60.62,130.09,60.81,130.27,61.21z"/>
	<path class="st3" d="M108.99,40.63c0.18,0.41-0.01,0.88-0.44,1.05c-0.42,0.17-0.91-0.01-1.09-0.42c-0.18-0.41,0.01-0.88,0.44-1.05
		C108.32,40.04,108.81,40.23,108.99,40.63z"/>
	<path class="st3" d="M104.28,13.97c0.22,0.48-0.02,1.04-0.52,1.25s-1.08-0.02-1.3-0.5s0.02-1.04,0.52-1.25
		C103.48,13.26,104.06,13.49,104.28,13.97z"/>
	<path class="st3" d="M130.24,25.99c0.37,0.82-0.03,1.78-0.88,2.13c-0.86,0.35-1.85-0.03-2.22-0.85s0.03-1.78,0.88-2.13
		S129.87,25.16,130.24,25.99z"/>
	<g class="st10">
		<path class="st3" d="M477.27,73.16c-0.01-0.04-0.02-0.08-0.01-0.11l19.23-66.42c0.04-0.14,0.26-0.2,0.5-0.14
			c0.23,0.07,0.39,0.24,0.35,0.38l-19.23,66.42c-0.04,0.14-0.26,0.2-0.5,0.14C477.44,73.38,477.31,73.27,477.27,73.16z"/>
	</g>
	<g class="st10">
		<path class="st3" d="M476.26,76.59c-0.01-0.04,0-0.08,0.01-0.11l30.27-62.17c0.06-0.13,0.29-0.15,0.51-0.05
			c0.22,0.11,0.35,0.3,0.28,0.43l-30.27,62.17c-0.06,0.13-0.29,0.15-0.51,0.05C476.39,76.83,476.28,76.71,476.26,76.59z"/>
	</g>
	<path class="st3" d="M109.12,47.56c0.06,0,0.11,0.01,0.17,0.01l-35.43-30.6h-3.73l36.1,31.15
		C106.85,47.76,107.91,47.54,109.12,47.56z"/>
	<polygon class="st3" points="127.99,27.89 127.63,25.9 88.56,66.55 90.77,66.61 	"/>
	<path class="st3" d="M90.7,66.14c0.03,0,0.06,0.01,0.09,0.02l-18.7-49.19h-1.97l19.05,50.08C89.5,66.46,90.06,66.1,90.7,66.14z"/>
</g>
</svg>
