<?xml version="1.0" encoding="utf-8"?>
<!-- Generator: Adobe Illustrator 25.2.1, SVG Export Plug-In . SVG Version: 6.00 Build 0)  -->
<svg version="1.1" id="Layer_1" xmlns="http://www.w3.org/2000/svg" xmlns:xlink="http://www.w3.org/1999/xlink" x="0px" y="0px"
	 viewBox="0 0 584.76 74.12" style="enable-background:new 0 0 584.76 74.12;" xml:space="preserve">
<style type="text/css">
	.st0{opacity:0.5;fill:#231F20;enable-background:new    ;}
	.st1{fill:#FFFFFF;}
	.st2{opacity:0.34;}
	.st3{fill:#231F20;}
	.st4{opacity:0.43;}
	.st5{opacity:0.39;}
	.st6{opacity:0.32;}
	.st7{opacity:0.46;}
	.st8{opacity:0.36;}
	.st9{opacity:0.45;}
	.st10{opacity:0.33;}
	.st11{opacity:0.35;}
	.st12{opacity:0.37;}
	.st13{opacity:0.41;}
	.st14{opacity:0.42;}
	.st15{opacity:0.4;}
	.st16{opacity:0.53;}
	.st17{opacity:0.52;}
	.st18{opacity:0.38;}
	.st19{opacity:0.44;}
	.st20{opacity:0.47;}
	.st21{opacity:0.48;}
	.st22{opacity:0.51;}
	.st23{opacity:0.5;}
</style>
<g>
	<path class="st0" d="M-1502.09,953.29c-0.05,1.34-1,2.38-2.12,2.31c-1.12-0.06-1.98-1.2-1.93-2.54c0.05-1.34,1-2.38,2.12-2.31
		C-1502.9,950.81-1502.03,951.95-1502.09,953.29z"/>
</g>
<rect x="0.45" y="0.91" class="st1" width="583.87" height="73.65"/>
<g class="st2">
	<path class="st3" d="M455.62,24.85c-0.03-0.06-0.01-0.13,0.04-0.17l14.31-11.17c0.07-0.05,0.16-0.04,0.22,0.02s0.04,0.16-0.02,0.21
		l-14.31,11.17c-0.07,0.05-0.16,0.04-0.22-0.02C455.64,24.87,455.64,24.86,455.62,24.85z"/>
</g>
<g class="st2">
	<path class="st3" d="M452.83,44.23c-0.02-0.05-0.02-0.11,0.02-0.15l6.59-9.18c0.05-0.07,0.16-0.09,0.23-0.04
		c0.08,0.05,0.1,0.15,0.04,0.22l-6.59,9.18c-0.05,0.07-0.16,0.09-0.23,0.04C452.86,44.28,452.85,44.26,452.83,44.23z"/>
</g>
<g class="st4">
	<path class="st3" d="M445.86,51.2c-0.04-0.09-0.02-0.19,0.05-0.26L452.8,44c0.1-0.1,0.26-0.1,0.36-0.01
		c0.1,0.09,0.11,0.25,0.01,0.34l-6.89,6.94c-0.1,0.1-0.26,0.1-0.36,0.01C445.89,51.26,445.88,51.23,445.86,51.2z"/>
</g>
<g class="st2">
	<path class="st3" d="M232.96,71c0.03-0.07,0.09-0.11,0.17-0.11l19.63,0.98c0.1,0.01,0.18,0.09,0.18,0.19s-0.08,0.17-0.18,0.17
		l-19.63-0.98c-0.1,0-0.18-0.09-0.18-0.19C232.95,71.04,232.96,71.02,232.96,71z"/>
</g>
<g class="st5">
	<path class="st3" d="M225.65,46.27c0.02-0.04,0.05-0.08,0.09-0.1c0.1-0.05,0.22-0.02,0.28,0.08l6.36,11.14
		c0.06,0.1,0.02,0.22-0.07,0.27c-0.1,0.05-0.22,0.02-0.28-0.08l-6.36-11.14C225.64,46.39,225.64,46.33,225.65,46.27z"/>
</g>
<g class="st6">
	<path class="st3" d="M207.03,43.2c0.02-0.06,0.09-0.1,0.16-0.09l18.67,3.1c0.08,0.01,0.14,0.09,0.13,0.17
		c-0.01,0.08-0.09,0.14-0.17,0.12l-18.67-3.1c-0.08-0.01-0.14-0.09-0.13-0.17C207.03,43.22,207.03,43.21,207.03,43.2z"/>
</g>
<g class="st4">
	<path class="st3" d="M194.42,57.32c0.04-0.09,0.14-0.15,0.24-0.13l3.67,0.84c0.12,0.03,0.2,0.14,0.17,0.26
		c-0.03,0.11-0.14,0.19-0.25,0.16l-3.67-0.84c-0.12-0.03-0.2-0.14-0.17-0.26C194.41,57.34,194.41,57.33,194.42,57.32z"/>
</g>
<g class="st2">
	<path class="st3" d="M198.16,58.19c0-0.01,0.01-0.01,0.01-0.02l8.88-14.99c0.04-0.07,0.13-0.09,0.21-0.05
		c0.07,0.04,0.1,0.13,0.06,0.21l-8.88,14.99c-0.04,0.07-0.13,0.09-0.21,0.05C198.16,58.33,198.12,58.25,198.16,58.19z"/>
</g>
<g class="st6">
	<path class="st3" d="M194.48,57.35c0.01-0.02,0.01-0.03,0.03-0.04l12.55-14.15c0.05-0.06,0.15-0.06,0.21-0.01
		c0.06,0.06,0.07,0.15,0.02,0.21l-12.55,14.15c-0.05,0.06-0.15,0.06-0.21,0.01C194.48,57.47,194.47,57.4,194.48,57.35z"/>
</g>
<g class="st6">
	<path class="st3" d="M180.53,50.88L180.53,50.88c0.03-0.08,0.12-0.11,0.2-0.08l13.95,6.47c0.07,0.03,0.1,0.11,0.08,0.2
		c-0.03,0.07-0.12,0.11-0.19,0.07l-13.95-6.47C180.54,51.04,180.51,50.95,180.53,50.88z"/>
</g>
<g class="st7">
	<path class="st3" d="M207.72,14.38c0.02-0.04,0.04-0.07,0.07-0.1c0.12-0.12,0.32-0.11,0.44,0.01l5.93,6.09
		c0.12,0.13,0.12,0.32,0,0.44s-0.32,0.11-0.44-0.01l-5.93-6.09C207.7,14.63,207.66,14.49,207.72,14.38z"/>
</g>
<g class="st8">
	<path class="st3" d="M219.01,0.9c0.04-0.1,0.15-0.15,0.26-0.12c0.12,0.04,0.19,0.16,0.15,0.27l-5.27,19.61
		c-0.03,0.11-0.15,0.18-0.27,0.14s-0.19-0.16-0.15-0.27l5.27-19.61C218.99,0.92,218.99,0.91,219.01,0.9z"/>
</g>
<g class="st9">
	<path class="st3" d="M172.28,53.55c0.03-0.07,0.08-0.12,0.15-0.15l8.15-2.72c0.14-0.05,0.29,0.03,0.34,0.17
		c0.05,0.14-0.02,0.29-0.16,0.33l-8.15,2.72c-0.14,0.05-0.29-0.03-0.34-0.17C172.24,53.68,172.26,53.61,172.28,53.55z"/>
</g>
<g class="st6">
	<path class="st3" d="M191.03,22.28c0.02-0.05,0.06-0.09,0.11-0.1c0.1-0.03,0.2,0.03,0.23,0.13l4.3,13.29
		c0.03,0.1-0.02,0.2-0.12,0.23c-0.1,0.03-0.2-0.03-0.23-0.13l-4.3-13.29C191.02,22.36,191.03,22.31,191.03,22.28z"/>
</g>
<g class="st10">
	<path class="st3" d="M195.34,35.57c0-0.01,0.01-0.02,0.01-0.03l12.49-21.14c0.05-0.09,0.17-0.12,0.26-0.06s0.12,0.18,0.07,0.26
		l-12.49,21.14c-0.05,0.09-0.17,0.12-0.26,0.06C195.34,35.75,195.29,35.65,195.34,35.57z"/>
</g>
<g class="st11">
	<path class="st3" d="M176.64,30.25c0.02-0.05,0.05-0.08,0.1-0.11l14.36-7.99c0.11-0.06,0.25-0.02,0.31,0.09
		c0.07,0.11,0.03,0.25-0.08,0.31l-14.36,7.99c-0.11,0.06-0.25,0.02-0.31-0.09C176.61,30.39,176.6,30.31,176.64,30.25z"/>
</g>
<g class="st10">
	<path class="st3" d="M162.11,41.53c0.04-0.09,0.13-0.14,0.23-0.11l9.47,2.57c0.11,0.03,0.18,0.14,0.15,0.25
		c-0.03,0.11-0.13,0.17-0.24,0.14l-9.47-2.57c-0.11-0.03-0.18-0.14-0.15-0.25C162.1,41.55,162.1,41.54,162.11,41.53z"/>
</g>
<g class="st5">
	<path class="st3" d="M176.6,30.24c0.05-0.13,0.2-0.19,0.33-0.14s0.2,0.2,0.15,0.33l-5.08,13.84c-0.05,0.14-0.2,0.19-0.33,0.14
		s-0.2-0.2-0.15-0.33L176.6,30.24L176.6,30.24z"/>
</g>
<g class="st12">
	<path class="st3" d="M162.05,41.5c0.02-0.04,0.04-0.08,0.08-0.1l14.55-11.27c0.11-0.09,0.28-0.06,0.37,0.05
		c0.09,0.12,0.07,0.28-0.04,0.36l-14.55,11.27c-0.11,0.09-0.28,0.06-0.37-0.05C162.03,41.69,162.03,41.59,162.05,41.5z"/>
</g>
<g class="st5">
	<path class="st3" d="M420.89,11.73c-0.04-0.1-0.03-0.21,0.04-0.3c0.1-0.13,0.3-0.15,0.43-0.05l21.35,15.92
		c0.14,0.1,0.16,0.29,0.05,0.42c-0.1,0.13-0.3,0.15-0.43,0.05l-21.35-15.92C420.93,11.82,420.9,11.78,420.89,11.73z"/>
</g>
<g class="st10">
	<path class="st3" d="M420.95,11.71c-0.02-0.05-0.03-0.12,0-0.18c0.05-0.12,0.19-0.18,0.31-0.13l8.59,3.3
		c0.12,0.05,0.18,0.18,0.13,0.3s-0.19,0.18-0.31,0.13l-8.59-3.3C421.02,11.81,420.96,11.76,420.95,11.71z"/>
</g>
<g class="st13">
	<path class="st3" d="M429.39,43.27c-0.01-0.03-0.02-0.06-0.03-0.1l-4.77-29.45c-0.04-0.22,0.12-0.43,0.35-0.47
		c0.23-0.03,0.45,0.12,0.48,0.34l4.77,29.45c0.04,0.22-0.12,0.43-0.35,0.47C429.64,43.54,429.46,43.44,429.39,43.27z"/>
</g>
<path class="st3" d="M470.8,13.32c0.17,0.38-0.01,0.82-0.41,0.98c-0.39,0.16-0.85-0.01-1.02-0.39c-0.17-0.38,0.01-0.82,0.41-0.98
	C470.17,12.77,470.62,12.94,470.8,13.32z"/>
<path class="st3" d="M456.45,24.51c0.16,0.36-0.01,0.78-0.39,0.93c-0.37,0.15-0.81-0.01-0.97-0.37s0.01-0.78,0.39-0.93
	C455.86,23.98,456.29,24.15,456.45,24.51z"/>
<path class="st3" d="M460.3,34.69c0.17,0.39-0.01,0.83-0.41,1s-0.87-0.01-1.04-0.4s0.01-0.83,0.41-1
	C459.67,34.13,460.14,34.3,460.3,34.69z"/>
<path class="st3" d="M453.74,43.85c0.18,0.41-0.01,0.88-0.44,1.05c-0.42,0.17-0.91-0.01-1.09-0.42s0.01-0.88,0.44-1.05
	C453.08,43.26,453.57,43.44,453.74,43.85z"/>
<path class="st3" d="M253.58,72.41c-0.18,0.45-0.69,0.66-1.16,0.47c-0.46-0.2-0.69-0.72-0.51-1.18c0.18-0.45,0.7-0.66,1.16-0.46
	C253.54,71.43,253.77,71.96,253.58,72.41z"/>
<path class="st3" d="M232.95,57.81c-0.16,0.41-0.62,0.59-1.03,0.42c-0.41-0.18-0.62-0.65-0.46-1.05c0.16-0.41,0.62-0.59,1.03-0.42
	C232.89,56.94,233.11,57.41,232.95,57.81z"/>
<path class="st3" d="M226.58,46.67c-0.16,0.4-0.62,0.59-1.02,0.41c-0.41-0.17-0.61-0.64-0.45-1.04c0.16-0.4,0.62-0.59,1.02-0.41
	C226.54,45.8,226.74,46.27,226.58,46.67z"/>
<path class="st3" d="M446.88,50.78c0.19,0.41-0.01,0.89-0.44,1.07s-0.93-0.01-1.11-0.43c-0.19-0.41,0.01-0.89,0.44-1.07
	C446.18,50.18,446.68,50.37,446.88,50.78z"/>
<path class="st3" d="M233.92,71.41c-0.17,0.43-0.66,0.63-1.11,0.44c-0.44-0.19-0.66-0.69-0.49-1.12s0.66-0.63,1.11-0.44
	C233.88,70.48,234.1,70.98,233.92,71.41z"/>
<path class="st3" d="M198.98,58.54c-0.15,0.37-0.57,0.55-0.95,0.38c-0.38-0.16-0.57-0.6-0.42-0.97s0.57-0.55,0.95-0.38
	C198.95,57.73,199.14,58.17,198.98,58.54z"/>
<path class="st3" d="M207.9,43.56c-0.15,0.39-0.6,0.58-1,0.4c-0.4-0.17-0.6-0.63-0.44-1.02c0.15-0.39,0.6-0.57,1-0.4
	S208.05,43.17,207.9,43.56z"/>
<path class="st3" d="M195.35,57.71c-0.15,0.39-0.6,0.57-0.99,0.4c-0.4-0.17-0.59-0.62-0.44-1.01s0.6-0.57,0.99-0.4
	C195.29,56.87,195.49,57.32,195.35,57.71z"/>
<path class="st3" d="M214.8,20.97c-0.19,0.47-0.73,0.69-1.21,0.49c-0.48-0.2-0.72-0.75-0.53-1.23c0.19-0.47,0.73-0.69,1.21-0.49
	C214.74,19.95,214.98,20.5,214.8,20.97z"/>
<path class="st3" d="M181.43,51.27c-0.16,0.41-0.63,0.6-1.05,0.42s-0.63-0.66-0.47-1.07c0.16-0.41,0.63-0.6,1.05-0.42
	C181.39,50.37,181.6,50.85,181.43,51.27z"/>
<path class="st3" d="M196.38,36.01c-0.19,0.47-0.73,0.69-1.21,0.49c-0.48-0.2-0.72-0.75-0.53-1.23c0.19-0.47,0.73-0.69,1.21-0.49
	C196.33,34.99,196.57,35.54,196.38,36.01z"/>
<path class="st3" d="M208.91,14.9c-0.19,0.5-0.76,0.72-1.27,0.51c-0.5-0.21-0.75-0.79-0.56-1.29s0.76-0.72,1.27-0.51
	C208.85,13.82,209.1,14.4,208.91,14.9z"/>
<path class="st3" d="M173.3,53.99c-0.17,0.43-0.65,0.62-1.08,0.44s-0.65-0.68-0.48-1.1c0.17-0.43,0.65-0.62,1.08-0.44
	C173.26,53.07,173.47,53.57,173.3,53.99z"/>
<path class="st3" d="M192.16,22.76c-0.21,0.52-0.8,0.76-1.34,0.54s-0.8-0.84-0.59-1.36c0.21-0.52,0.8-0.76,1.34-0.54
	C192.11,21.63,192.38,22.24,192.16,22.76z"/>
<path class="st3" d="M172.7,44.58c-0.2,0.5-0.77,0.74-1.29,0.52c-0.51-0.22-0.77-0.8-0.57-1.31c0.2-0.5,0.77-0.74,1.29-0.52
	C172.64,43.49,172.9,44.07,172.7,44.58z"/>
<path class="st3" d="M177.85,30.77c-0.21,0.55-0.84,0.8-1.4,0.56s-0.83-0.87-0.62-1.42s0.84-0.8,1.4-0.56S178.07,30.22,177.85,30.77
	z"/>
<path class="st3" d="M163.33,42.05c-0.22,0.56-0.86,0.82-1.43,0.57c-0.57-0.24-0.85-0.89-0.63-1.45s0.86-0.82,1.43-0.57
	C163.27,40.84,163.54,41.49,163.33,42.05z"/>
<path class="st3" d="M443.67,27.06c0.28,0.61-0.02,1.33-0.66,1.59s-1.38-0.02-1.66-0.63c-0.27-0.61,0.02-1.33,0.66-1.59
	C442.65,26.16,443.39,26.44,443.67,27.06z"/>
<path class="st3" d="M422.27,11.16c0.26,0.59-0.02,1.28-0.63,1.53c-0.61,0.25-1.33-0.02-1.59-0.61c-0.26-0.59,0.02-1.28,0.63-1.53
	C421.3,10.29,422.02,10.56,422.27,11.16z"/>
<path class="st3" d="M431.01,14.4c0.3,0.66-0.02,1.43-0.71,1.71s-1.48-0.02-1.78-0.68s0.02-1.43,0.71-1.71
	C429.9,13.44,430.71,13.74,431.01,14.4z"/>
<path class="st3" d="M426.39,13.08c0.33,0.74-0.02,1.6-0.8,1.92c-0.77,0.32-1.67-0.02-2-0.77c-0.33-0.74,0.02-1.6,0.8-1.92
	S426.07,12.34,426.39,13.08z"/>
<path class="st3" d="M431.33,42.46c0.37,0.83-0.03,1.79-0.89,2.15c-0.86,0.36-1.87-0.03-2.24-0.86s0.03-1.79,0.89-2.15
	C429.96,41.25,430.96,41.63,431.33,42.46z"/>
<g class="st2">
	<path class="st3" d="M135.17,63.65c-0.05-0.11-0.04-0.23,0.04-0.34l23.2-31.87c0.11-0.16,0.34-0.2,0.5-0.09s0.2,0.33,0.09,0.48
		L135.8,63.7c-0.11,0.16-0.34,0.2-0.5,0.09C135.24,63.76,135.21,63.71,135.17,63.65z"/>
</g>
<g class="st14">
	<path class="st3" d="M135.71,38.87c-0.01-0.01-0.01-0.03-0.02-0.04c-0.08-0.25,0.06-0.51,0.31-0.59l22.55-7.05
		c0.26-0.08,0.53,0.05,0.61,0.3c0.08,0.25-0.06,0.51-0.31,0.59l-22.55,7.05C136.07,39.2,135.8,39.09,135.71,38.87z"/>
</g>
<g class="st11">
	<path class="st3" d="M102.2,44.2c-0.01-0.03-0.02-0.06-0.03-0.09c-0.04-0.21,0.11-0.41,0.33-0.44l33.6-5.36
		c0.22-0.03,0.42,0.1,0.46,0.32c0.04,0.21-0.11,0.41-0.33,0.44l-33.6,5.36C102.43,44.46,102.27,44.36,102.2,44.2z"/>
</g>
<g class="st15">
	<path class="st3" d="M114.97,16.86c-0.08-0.17-0.04-0.38,0.12-0.52c0.19-0.17,0.5-0.16,0.67,0.03l20.74,22.01
		c0.18,0.19,0.16,0.48-0.03,0.65c-0.19,0.17-0.5,0.16-0.67-0.03l-20.74-22.01C115.03,16.94,114.99,16.9,114.97,16.86z"/>
</g>
<g class="st16">
	<path class="st3" d="M134.79,63.81c-0.04-0.1-0.07-0.2-0.06-0.32l0.65-24.83c0.01-0.41,0.37-0.74,0.8-0.73s0.77,0.35,0.76,0.77
		l-0.65,24.83c-0.01,0.41-0.37,0.74-0.8,0.73C135.17,64.25,134.91,64.07,134.79,63.81z"/>
</g>
<g class="st7">
	<path class="st3" d="M102.01,44.28c-0.06-0.14-0.07-0.31,0-0.46l12.86-27.37c0.14-0.29,0.49-0.42,0.79-0.29s0.44,0.47,0.3,0.76
		l-12.86,27.37c-0.14,0.29-0.49,0.42-0.79,0.29C102.17,44.51,102.07,44.4,102.01,44.28z"/>
</g>
<g class="st10">
	<path class="st3" d="M135.17,63.65L135.17,63.65l-20.09-46.84c-0.08-0.18,0.01-0.38,0.2-0.46c0.19-0.07,0.42,0.03,0.48,0.19
		l20.09,46.84c0.08,0.18-0.01,0.38-0.2,0.46C135.47,63.91,135.26,63.82,135.17,63.65z"/>
</g>
<g class="st8">
	<path class="st3" d="M102.16,44.22c-0.05-0.12-0.05-0.27,0.03-0.39c0.13-0.2,0.4-0.26,0.6-0.14l32.95,19.46
		c0.21,0.12,0.27,0.38,0.14,0.58s-0.4,0.26-0.6,0.14l-32.95-19.46C102.24,44.36,102.18,44.29,102.16,44.22z"/>
</g>
<path class="st3" d="M160.28,30.99c0.37,0.83-0.03,1.79-0.89,2.15c-0.86,0.36-1.87-0.03-2.24-0.86c-0.37-0.83,0.03-1.79,0.89-2.15
	C158.91,29.78,159.91,30.16,160.28,30.99z"/>
<path class="st3" d="M137.8,38c0.39,0.88-0.03,1.89-0.94,2.27s-1.97-0.03-2.36-0.9c-0.39-0.88,0.03-1.89,0.94-2.27
	C136.35,36.72,137.41,37.12,137.8,38z"/>
<path class="st3" d="M117.07,16c0.39,0.87-0.03,1.89-0.94,2.26c-0.91,0.38-1.96-0.03-2.35-0.9c-0.39-0.87,0.03-1.88,0.94-2.26
	C115.61,14.72,116.67,15.12,117.07,16z"/>
<path class="st3" d="M137.28,62.78c0.42,0.94-0.03,2.04-1.01,2.44c-0.98,0.41-2.12-0.03-2.54-0.97c-0.42-0.94,0.03-2.04,1.01-2.44
	C135.72,61.4,136.86,61.83,137.28,62.78z"/>
<path class="st3" d="M104.33,43.32c0.42,0.94-0.03,2.03-1.01,2.43c-0.98,0.4-2.11-0.03-2.53-0.97c-0.42-0.94,0.03-2.03,1.01-2.43
	C102.78,41.95,103.91,42.38,104.33,43.32z"/>
<path class="st3" d="M478.6,55.76c0.54,1.2-0.04,2.59-1.29,3.11c-1.25,0.52-2.7-0.04-3.24-1.24c-0.54-1.2,0.04-2.59,1.29-3.11
	C476.61,54,478.07,54.56,478.6,55.76z"/>
<g class="st8">
	<path class="st3" d="M250.95,49.47c0.01-0.01,0.02-0.01,0.03-0.02l14.77-5.85c0.05-0.02,0.11,0.01,0.13,0.06
		c0.02,0.05,0,0.11-0.06,0.13l-14.77,5.85c-0.05,0.02-0.11-0.01-0.13-0.06C250.9,49.54,250.92,49.5,250.95,49.47z"/>
</g>
<g class="st2">
	<path class="st3" d="M262.07,31.43c0.01-0.01,0.03-0.02,0.05-0.02l13.07-0.79c0.05,0,0.1,0.04,0.1,0.09c0,0.05-0.04,0.1-0.09,0.1
		l-13.07,0.79c-0.05,0-0.1-0.04-0.1-0.09C262.02,31.48,262.04,31.45,262.07,31.43z"/>
</g>
<g class="st2">
	<path class="st3" d="M275.14,30.64c0.01-0.01,0.02-0.01,0.03-0.02l0.34-0.11c0.05-0.02,0.1,0.01,0.12,0.06s-0.01,0.1-0.06,0.12
		l-0.34,0.11c-0.05,0.02-0.1-0.01-0.12-0.06C275.1,30.7,275.11,30.66,275.14,30.64z"/>
</g>
<g class="st4">
	<path class="st3" d="M270.07,33.73c0.01-0.01,0.01-0.01,0.02-0.01l5.37-3.24c0.07-0.04,0.15-0.02,0.19,0.05s0.02,0.16-0.05,0.2
		l-5.37,3.24c-0.07,0.04-0.15,0.02-0.19-0.05C270.01,33.85,270.02,33.77,270.07,33.73z"/>
</g>
<g class="st11">
	<path class="st3" d="M256.45,32.35c0.02-0.02,0.05-0.03,0.08-0.03l13.64,1.4c0.06,0.01,0.11,0.06,0.1,0.13
		c0,0.06-0.06,0.11-0.12,0.1l-13.64-1.4c-0.06-0.01-0.11-0.06-0.1-0.13C256.42,32.4,256.42,32.37,256.45,32.35z"/>
</g>
<g class="st15">
	<path class="st3" d="M257.2,28.73c0.04-0.04,0.1-0.05,0.15-0.03l10.48,3.38c0.09,0.03,0.14,0.12,0.11,0.21
		c-0.02,0.09-0.12,0.14-0.2,0.11l-10.48-3.38c-0.09-0.03-0.14-0.12-0.11-0.21C257.15,28.78,257.17,28.75,257.2,28.73z"/>
</g>
<g class="st11">
	<path class="st3" d="M270.32,18.43c0.03-0.03,0.07-0.04,0.12-0.03c0.07,0.02,0.12,0.09,0.11,0.17l-2.63,13.7
		c-0.01,0.08-0.09,0.12-0.16,0.11c-0.07-0.02-0.12-0.09-0.11-0.17l2.63-13.7C270.27,18.48,270.29,18.45,270.32,18.43z"/>
</g>
<g class="st6">
	<path class="st3" d="M255.86,11.7c0.03-0.03,0.08-0.04,0.13-0.02l14.47,6.74c0.06,0.03,0.09,0.1,0.06,0.16s-0.1,0.09-0.16,0.06
		l-14.47-6.74c-0.06-0.03-0.09-0.1-0.06-0.16C255.83,11.73,255.85,11.72,255.86,11.7z"/>
</g>
<g class="st10">
	<path class="st3" d="M257.21,28.77C257.23,28.76,257.23,28.76,257.21,28.77l13.11-10.33c0.05-0.04,0.13-0.03,0.17,0.03
		c0.04,0.06,0.03,0.13-0.02,0.18l-13.1,10.32c-0.05,0.04-0.13,0.03-0.17-0.03C257.17,28.88,257.17,28.81,257.21,28.77z"/>
</g>
<g class="st2">
	<path class="st3" d="M289.49,22.75c-0.08,0.02-0.18,0.02-0.27,0L231.85,11.2c-0.22-0.04-0.35-0.19-0.28-0.33
		c0.06-0.14,0.3-0.21,0.52-0.17l57.38,11.55c0.22,0.04,0.35,0.19,0.28,0.33C289.7,22.66,289.61,22.72,289.49,22.75z"/>
</g>
<g class="st17">
	<path class="st3" d="M243.02,51.36c0.02-0.02,0.05-0.03,0.08-0.04l7.87-1.96c0.11-0.03,0.21,0.04,0.24,0.15
		c0.03,0.11-0.04,0.22-0.14,0.25l-7.87,1.96c-0.11,0.03-0.21-0.04-0.24-0.15C242.93,51.48,242.96,51.4,243.02,51.36z"/>
</g>
<g class="st8">
	<path class="st3" d="M246.98,37.22c0.02-0.02,0.04-0.03,0.07-0.02l11.91,0.25c0.06,0,0.1,0.05,0.1,0.11s-0.05,0.11-0.1,0.11
		l-11.91-0.25c-0.06,0-0.1-0.05-0.1-0.11C246.95,37.27,246.96,37.24,246.98,37.22z"/>
</g>
<g class="st10">
	<path class="st3" d="M262.07,31.43c0.03-0.03,0.07-0.03,0.11-0.01c0.05,0.03,0.06,0.09,0.04,0.13l-3.17,6.05
		c-0.02,0.05-0.08,0.06-0.13,0.04c-0.05-0.03-0.06-0.09-0.04-0.13l3.17-6.05C262.05,31.44,262.05,31.43,262.07,31.43z"/>
</g>
<g class="st2">
	<path class="st3" d="M251.79,27.57c0.03-0.02,0.06-0.03,0.1-0.02l10.27,3.85c0.05,0.02,0.08,0.08,0.06,0.13s-0.07,0.08-0.13,0.06
		l-10.27-3.85c-0.05-0.02-0.08-0.08-0.06-0.13C251.77,27.6,251.77,27.58,251.79,27.57z"/>
</g>
<g class="st2">
	<path class="st3" d="M250.04,30.32c0.02-0.02,0.04-0.03,0.07-0.02l12.02,1.11c0.05,0,0.1,0.05,0.09,0.11c0,0.06-0.05,0.1-0.1,0.09
		L250.1,30.5c-0.05,0-0.1-0.05-0.09-0.11C250.01,30.36,250.02,30.33,250.04,30.32z"/>
</g>
<g class="st4">
	<path class="st3" d="M259.64,30.75c0.03-0.03,0.08-0.04,0.13-0.03l2.38,0.64c0.08,0.02,0.12,0.1,0.11,0.18
		c-0.02,0.08-0.09,0.13-0.17,0.11l-2.38-0.64c-0.08-0.02-0.12-0.1-0.11-0.18C259.61,30.8,259.62,30.77,259.64,30.75z"/>
</g>
<g class="st13">
	<path class="st3" d="M251.76,27.54c0.04-0.03,0.09-0.04,0.14-0.02l7.89,3.21c0.07,0.03,0.11,0.11,0.08,0.18s-0.11,0.11-0.18,0.08
		l-7.89-3.21c-0.07-0.03-0.11-0.11-0.08-0.18C251.73,27.58,251.74,27.56,251.76,27.54z"/>
</g>
<g class="st8">
	<path class="st3" d="M256.45,32.35c0.01-0.01,0.02-0.01,0.02-0.02l3.22-1.58c0.06-0.03,0.13,0,0.15,0.06
		c0.03,0.06,0.01,0.13-0.05,0.16l-3.22,1.58c-0.06,0.03-0.13,0-0.15-0.06C256.39,32.44,256.4,32.39,256.45,32.35z"/>
</g>
<g class="st6">
	<path class="st3" d="M246.64,24.05c0.04-0.03,0.1-0.03,0.14,0l9.81,8.31c0.05,0.04,0.05,0.11,0.02,0.16
		c-0.04,0.05-0.1,0.05-0.15,0.01l-9.81-8.31c-0.05-0.04-0.05-0.11-0.02-0.16C246.64,24.06,246.64,24.05,246.64,24.05z"/>
</g>
<g class="st5">
	<path class="st3" d="M255.68,32.02c0.04-0.03,0.09-0.04,0.14-0.02l0.75,0.31c0.07,0.03,0.11,0.12,0.08,0.19s-0.11,0.11-0.18,0.08
		l-0.75-0.31c-0.07-0.03-0.11-0.12-0.08-0.19C255.64,32.06,255.67,32.04,255.68,32.02z"/>
</g>
<g class="st2">
	<path class="st3" d="M257.23,28.77c0.03-0.03,0.09-0.04,0.13-0.02c0.06,0.03,0.08,0.11,0.06,0.17l-1.53,3.27
		c-0.03,0.06-0.1,0.09-0.16,0.05c-0.06-0.03-0.09-0.11-0.06-0.17l1.53-3.27C257.2,28.79,257.21,28.78,257.23,28.77z"/>
</g>
<g class="st2">
	<path class="st3" d="M302.14,40.98c-0.22,0.06-0.47,0-0.58-0.14l-13.32-17.81c-0.1-0.14-0.01-0.3,0.21-0.37
		c0.21-0.06,0.49-0.01,0.59,0.13l13.32,17.81c0.1,0.14,0.01,0.3-0.21,0.37C302.14,40.98,302.14,40.98,302.14,40.98z"/>
</g>
<g class="st6">
	<path class="st3" d="M319.15,71.19c-0.01,0-0.02,0-0.03,0.01c-0.24,0.05-0.5-0.03-0.58-0.17l-17.01-30.2
		c-0.08-0.15,0.04-0.3,0.28-0.36c0.24-0.05,0.5,0.03,0.58,0.17l17.01,30.2C319.49,70.98,319.38,71.13,319.15,71.19z"/>
</g>
<g class="st5">
	<path class="st3" d="M255.24,52.53c-0.3,0.07-0.63-0.02-0.76-0.21c-0.12-0.19,0.02-0.4,0.31-0.47l47.13-11.51
		c0.33-0.07,0.64,0.02,0.76,0.21s-0.02,0.4-0.31,0.47L255.24,52.53L255.24,52.53z"/>
</g>
<g class="st11">
	<path class="st3" d="M318.49,71.64c-0.12,0.03-0.27,0.03-0.4-0.01l-63.28-19.16c-0.25-0.08-0.36-0.26-0.25-0.42
		c0.12-0.15,0.41-0.22,0.66-0.14l63.28,19.16c0.25,0.08,0.36,0.26,0.25,0.42C318.7,71.56,318.6,71.62,318.49,71.64z"/>
</g>
<g class="st2">
	<path class="st3" d="M226.79,55.03c0.01-0.01,0.03-0.02,0.04-0.02l16.29-3.6c0.06-0.01,0.11,0.02,0.13,0.08
		c0.01,0.06-0.02,0.12-0.08,0.13l-16.29,3.6c-0.06,0.01-0.11-0.02-0.13-0.08C226.74,55.1,226.76,55.06,226.79,55.03z"/>
</g>
<g class="st6">
	<path class="st3" d="M246.99,37.23c0.02-0.02,0.05-0.03,0.09-0.02c0.05,0.02,0.08,0.07,0.06,0.12l-3.9,14.21
		c-0.01,0.05-0.06,0.08-0.11,0.06s-0.08-0.07-0.06-0.12l3.9-14.21C246.96,37.26,246.98,37.24,246.99,37.23z"/>
</g>
<g class="st12">
	<path class="st3" d="M232.71,40c0.01-0.01,0.03-0.02,0.05-0.03l14.27-2.79c0.06-0.01,0.12,0.03,0.14,0.1
		c0.01,0.06-0.03,0.13-0.09,0.14l-14.27,2.79c-0.06,0.01-0.12-0.03-0.14-0.1C232.65,40.07,232.67,40.03,232.71,40z"/>
</g>
<g class="st8">
	<path class="st3" d="M250.04,30.31c0.03-0.03,0.08-0.03,0.12-0.01c0.05,0.03,0.08,0.09,0.05,0.15l-3.06,6.91
		c-0.03,0.06-0.09,0.08-0.14,0.05c-0.05-0.03-0.08-0.09-0.05-0.15l3.06-6.91C250.02,30.33,250.02,30.32,250.04,30.31z"/>
</g>
<g class="st18">
	<path class="st3" d="M251.77,27.56c0.04-0.03,0.1-0.04,0.14-0.01c0.06,0.04,0.07,0.11,0.04,0.17l-1.75,2.74
		c-0.04,0.06-0.11,0.07-0.16,0.03c-0.06-0.04-0.07-0.11-0.04-0.17l1.75-2.74C251.76,27.57,251.77,27.56,251.77,27.56z"/>
</g>
<g class="st6">
	<path class="st3" d="M246.64,24.06c0.03-0.03,0.08-0.03,0.12-0.01l5.14,3.52c0.05,0.03,0.06,0.09,0.03,0.14s-0.09,0.06-0.13,0.03
		l-5.14-3.52c-0.05-0.03-0.06-0.09-0.03-0.14C246.64,24.07,246.64,24.06,246.64,24.06z"/>
</g>
<g class="st10">
	<path class="st3" d="M244.38,21.4c0.05-0.04,0.12-0.03,0.16,0.01l2.26,2.64c0.04,0.05,0.04,0.12-0.01,0.16l0,0
		c-0.05,0.04-0.12,0.03-0.16-0.01l-2.26-2.64C244.33,21.52,244.33,21.45,244.38,21.4L244.38,21.4z"/>
</g>
<g class="st11">
	<path class="st3" d="M237.33,16.57c0.04-0.04,0.1-0.04,0.15,0l9.3,7.47c0.05,0.04,0.06,0.12,0.02,0.17s-0.11,0.06-0.17,0.02
		l-9.3-7.47c-0.05-0.04-0.06-0.12-0.02-0.17C237.33,16.58,237.33,16.57,237.33,16.57z"/>
</g>
<g class="st6">
	<path class="st3" d="M232.15,12.68c0.04-0.03,0.1-0.04,0.14-0.01l12.22,8.73c0.05,0.04,0.07,0.11,0.03,0.17
		c-0.04,0.05-0.11,0.07-0.16,0.03l-12.22-8.73c-0.05-0.04-0.07-0.11-0.03-0.17C232.14,12.69,232.14,12.68,232.15,12.68z"/>
</g>
<g class="st18">
	<path class="st3" d="M236.52,15.67c0.05-0.04,0.12-0.05,0.17-0.01l7.84,5.71c0.06,0.05,0.08,0.14,0.04,0.2
		c-0.04,0.07-0.13,0.08-0.19,0.03l-7.84-5.71c-0.06-0.05-0.08-0.14-0.04-0.2C236.51,15.69,236.52,15.68,236.52,15.67z"/>
</g>
<g class="st7">
	<path class="st3" d="M241.73,17.9C241.73,17.89,241.74,17.89,241.73,17.9c0.09-0.07,0.21-0.06,0.28,0.03l2.59,3.44
		c0.07,0.09,0.06,0.21-0.03,0.28c-0.08,0.07-0.21,0.05-0.28-0.04l-2.59-3.44C241.64,18.09,241.64,17.96,241.73,17.9z"/>
</g>
<g class="st18">
	<path class="st3" d="M232.12,12.65c0.05-0.04,0.11-0.05,0.17-0.02l9.63,5.28c0.07,0.04,0.1,0.14,0.07,0.21
		c-0.04,0.08-0.13,0.1-0.2,0.06l-9.63-5.28c-0.07-0.04-0.1-0.14-0.07-0.21C232.11,12.68,232.11,12.66,232.12,12.65z"/>
</g>
<g class="st10">
	<path class="st3" d="M236.54,15.69c0.03-0.03,0.08-0.04,0.12-0.02l5.24,2.27c0.06,0.03,0.09,0.09,0.06,0.15
		c-0.02,0.06-0.09,0.09-0.15,0.06l-5.24-2.27c-0.06-0.03-0.09-0.09-0.06-0.15C236.52,15.72,236.52,15.71,236.54,15.69z"/>
</g>
<g class="st8">
	<path class="st3" d="M484.35,70.5c-0.13,0.04-0.29,0.04-0.44,0L399.1,48.23c-0.33-0.09-0.5-0.35-0.39-0.59
		c0.11-0.24,0.47-0.36,0.79-0.28l84.82,22.27c0.33,0.09,0.5,0.35,0.39,0.59C484.65,70.36,484.52,70.46,484.35,70.5z"/>
</g>
<g class="st2">
	<path class="st3" d="M210.34,54.79c0.02-0.02,0.04-0.03,0.07-0.03L226.86,55c0.06,0,0.11,0.05,0.11,0.11s-0.05,0.11-0.11,0.11
		l-16.45-0.24c-0.06,0-0.11-0.05-0.11-0.11C210.29,54.84,210.3,54.81,210.34,54.79z"/>
</g>
<g class="st6">
	<path class="st3" d="M232.71,40.02c0.03-0.02,0.06-0.03,0.1-0.01c0.05,0.02,0.07,0.08,0.05,0.13l-5.93,15.02
		c-0.02,0.05-0.08,0.07-0.13,0.05c-0.05-0.02-0.07-0.08-0.05-0.13l5.93-15.02C232.7,40.04,232.71,40.03,232.71,40.02z"/>
</g>
<g class="st5">
	<path class="st3" d="M227.08,22.45c0.03-0.03,0.08-0.04,0.13-0.02l9.41,3.57c0.07,0.03,0.1,0.1,0.08,0.17
		c-0.02,0.07-0.1,0.11-0.17,0.08l-9.41-3.57c-0.07-0.03-0.1-0.1-0.08-0.17C227.05,22.48,227.07,22.46,227.08,22.45z"/>
</g>
<g class="st5">
	<path class="st3" d="M237.08,20.48c0.03-0.02,0.06-0.03,0.1-0.03c0.07,0.01,0.12,0.08,0.12,0.15l-0.59,5.54
		c-0.01,0.07-0.07,0.13-0.14,0.12s-0.12-0.08-0.12-0.15l0.59-5.54C237.05,20.53,237.05,20.5,237.08,20.48z"/>
</g>
<g class="st2">
	<path class="st3" d="M227.1,22.47c0.01-0.01,0.03-0.02,0.05-0.02l10-1.97c0.06-0.01,0.11,0.03,0.12,0.09s-0.02,0.12-0.08,0.13
		l-10,1.97c-0.06,0.01-0.11-0.03-0.12-0.09C227.05,22.53,227.07,22.49,227.1,22.47z"/>
</g>
<g class="st19">
	<path class="st3" d="M236.51,15.65c0.07-0.06,0.17-0.05,0.23,0.02l0.8,0.88c0.06,0.07,0.06,0.18,0,0.25
		c-0.07,0.07-0.17,0.06-0.24-0.01l-0.8-0.88C236.42,15.83,236.42,15.72,236.51,15.65C236.49,15.66,236.51,15.65,236.51,15.65z"/>
</g>
<g class="st4">
	<path class="st3" d="M232.11,12.63c0.06-0.05,0.14-0.06,0.21-0.01l4.38,3.02c0.08,0.06,0.1,0.17,0.05,0.25
		c-0.05,0.08-0.16,0.1-0.24,0.05l-4.38-3.02c-0.08-0.06-0.1-0.17-0.05-0.25C232.1,12.65,232.11,12.64,232.11,12.63z"/>
</g>
<g class="st18">
	<path class="st3" d="M521.17,27.8c-0.08,0.02-0.18,0.03-0.27,0.02l-89.25-8.13c-0.31-0.03-0.54-0.24-0.51-0.47s0.31-0.39,0.63-0.36
		l89.25,8.13c0.31,0.03,0.54,0.24,0.51,0.47C521.51,27.62,521.36,27.75,521.17,27.8z"/>
</g>
<g class="st14">
	<path class="st3" d="M501.92,68.71c-0.2,0.06-0.44,0.05-0.64-0.04l-49.36-22.34c-0.34-0.15-0.45-0.48-0.25-0.73
		s0.64-0.32,0.99-0.17l49.36,22.34c0.34,0.15,0.45,0.48,0.25,0.73C502.17,68.6,502.05,68.67,501.92,68.71z"/>
</g>
<g class="st15">
	<path class="st3" d="M484.4,70.59c-0.39,0.11-0.82-0.03-0.98-0.32l-14.49-26c-0.16-0.29,0.02-0.61,0.41-0.72l0,0
		c0.39-0.11,0.82,0.03,0.98,0.32l14.49,26C484.98,70.16,484.79,70.48,484.4,70.59L484.4,70.59z"/>
</g>
<g class="st8">
	<path class="st3" d="M76.54,61.43c-0.09,0.05-0.2,0.06-0.3,0.02L32.65,43.8c-0.18-0.07-0.28-0.29-0.21-0.48s0.28-0.28,0.46-0.21
		l43.59,17.65c0.18,0.07,0.28,0.29,0.21,0.48C76.67,61.33,76.61,61.39,76.54,61.43z"/>
</g>
<g class="st13">
	<path class="st3" d="M198.09,53.86c0.03-0.02,0.07-0.04,0.11-0.04l12.22,0.89c0.08,0.01,0.15,0.08,0.14,0.17
		c0,0.09-0.07,0.15-0.16,0.14l-12.22-0.89c-0.08-0.01-0.15-0.08-0.14-0.17C198.03,53.93,198.05,53.89,198.09,53.86z"/>
</g>
<g class="st11">
	<path class="st3" d="M204.12,31.66c0.04-0.03,0.1-0.04,0.14-0.01l9.73,6.77c0.05,0.04,0.07,0.11,0.03,0.17
		c-0.03,0.06-0.11,0.07-0.16,0.03l-9.73-6.77c-0.05-0.04-0.07-0.11-0.03-0.17C204.1,31.68,204.11,31.67,204.12,31.66z"/>
</g>
<g class="st10">
	<path class="st3" d="M213.86,38.44c0.04-0.04,0.11-0.03,0.14,0.01c0.04,0.04,0.04,0.11,0,0.15l-15.75,15.46
		c-0.04,0.04-0.11,0.04-0.15-0.01c-0.04-0.04-0.04-0.11,0-0.15L213.86,38.44C213.85,38.44,213.86,38.44,213.86,38.44z"/>
</g>
<g class="st2">
	<path class="st3" d="M211.78,25.17c0.01-0.01,0.03-0.02,0.05-0.02l15.32-2.7c0.06-0.01,0.11,0.03,0.12,0.09s-0.03,0.12-0.08,0.13
		l-15.32,2.7c-0.06,0.01-0.11-0.03-0.12-0.09C211.73,25.24,211.74,25.2,211.78,25.17z"/>
</g>
<g class="st20">
	<path class="st3" d="M223.08,17.82c0.07-0.06,0.18-0.05,0.24,0.02l3.98,4.59c0.07,0.08,0.06,0.19-0.01,0.26s-0.18,0.06-0.25-0.02
		l-3.98-4.59C222.99,18.01,222.99,17.89,223.08,17.82C223.08,17.83,223.08,17.82,223.08,17.82z"/>
</g>
<g class="st10">
	<path class="st3" d="M522.07,39.25c-0.11,0.03-0.24,0.02-0.35-0.03l-51.97-24.76c-0.18-0.09-0.23-0.26-0.12-0.39
		c0.11-0.13,0.35-0.17,0.53-0.08l51.97,24.76c0.18,0.09,0.23,0.26,0.12,0.39C522.21,39.19,522.15,39.23,522.07,39.25z"/>
</g>
<g class="st6">
	<path class="st3" d="M211.78,25.18l0.01-0.01l11.34-7.29c0.05-0.03,0.11-0.01,0.14,0.03c0.03,0.05,0.02,0.11-0.03,0.14l-11.34,7.29
		c-0.05,0.03-0.11,0.01-0.14-0.03C211.73,25.27,211.74,25.21,211.78,25.18z"/>
</g>
<g class="st10">
	<path class="st3" d="M483.39,38.08c-0.11,0.03-0.23,0.03-0.34-0.02L444.5,23.09c-0.2-0.08-0.28-0.26-0.18-0.41
		c0.1-0.15,0.35-0.2,0.55-0.12l38.55,14.97c0.2,0.08,0.28,0.26,0.18,0.41C483.55,38,483.48,38.05,483.39,38.08z"/>
</g>
<g class="st7">
	<path class="st3" d="M510.04,54.77c-0.25,0.07-0.54,0.04-0.76-0.1l-26.53-16.46c-0.32-0.2-0.36-0.55-0.1-0.78
		c0.26-0.23,0.73-0.26,1.05-0.06l26.53,16.46c0.32,0.2,0.36,0.55,0.1,0.78C510.26,54.68,510.15,54.73,510.04,54.77z"/>
</g>
<g class="st2">
	<path class="st3" d="M499.76,51.21c-0.17,0.05-0.36,0.02-0.5-0.09l-16.35-13.1c-0.17-0.13-0.16-0.34,0.02-0.46s0.46-0.11,0.63,0.02
		l16.35,13.1c0.17,0.13,0.16,0.34-0.02,0.46C499.85,51.17,499.8,51.19,499.76,51.21z"/>
</g>
<g class="st11">
	<path class="st3" d="M521.15,27.74L521.15,27.74L483.4,38.12c-0.25,0.07-0.53-0.03-0.62-0.21c-0.1-0.18,0.02-0.38,0.27-0.45
		c0,0,0,0,0.01,0l37.73-10.38c0.25-0.07,0.53,0.03,0.62,0.21C521.51,27.47,521.39,27.67,521.15,27.74z"/>
</g>
<g class="st18">
	<path class="st3" d="M75.22,49.26c-0.07,0.04-0.16,0.06-0.25,0.04L41.6,41.15c-0.19-0.05-0.3-0.24-0.26-0.43s0.23-0.31,0.41-0.27
		l33.37,8.15c0.19,0.05,0.3,0.24,0.26,0.43C75.36,49.13,75.3,49.21,75.22,49.26z"/>
</g>
<g class="st12">
	<path class="st3" d="M102.6,75.87c-0.14,0.08-0.32,0.06-0.44-0.06L74.79,49.23c-0.15-0.15-0.16-0.4-0.02-0.55
		c0.14-0.16,0.38-0.16,0.53-0.02l27.37,26.58c0.15,0.15,0.16,0.4,0.02,0.55C102.67,75.82,102.64,75.85,102.6,75.87z"/>
</g>
<g class="st18">
	<path class="st3" d="M99.97,67.24c-0.13,0.07-0.29,0.07-0.41-0.02L74.84,49.29c-0.18-0.13-0.22-0.38-0.1-0.57
		c0.12-0.18,0.37-0.23,0.54-0.1L100,66.55c0.18,0.13,0.22,0.38,0.1,0.57C100.07,67.17,100.02,67.21,99.97,67.24z"/>
</g>
<g class="st9">
	<path class="st3" d="M76.61,61.57c-0.06,0.03-0.12,0.06-0.19,0.06c-0.28,0.03-0.53-0.18-0.56-0.47L74.54,49
		c-0.03-0.29,0.17-0.55,0.45-0.58s0.53,0.18,0.56,0.47l1.32,12.16C76.9,61.27,76.79,61.47,76.61,61.57z"/>
</g>
<g class="st2">
	<path class="st3" d="M185.01,31.1c0.02-0.02,0.05-0.03,0.07-0.03l19.12,0.57c0.06,0,0.11,0.06,0.11,0.12s-0.05,0.11-0.11,0.11
		l-19.12-0.57c-0.06,0-0.11-0.06-0.11-0.12C184.97,31.15,184.98,31.12,185.01,31.1z"/>
</g>
<g class="st21">
	<path class="st3" d="M204.08,31.6L204.08,31.6l7.65-6.5c0.08-0.07,0.2-0.05,0.27,0.03s0.06,0.2-0.02,0.28l-7.65,6.5
		c-0.08,0.07-0.2,0.05-0.27-0.03C203.98,31.79,203.99,31.67,204.08,31.6z"/>
</g>
<g class="st6">
	<path class="st3" d="M541.95,67.03c-0.19,0.05-0.41-0.01-0.5-0.14l-19.87-27.77c-0.1-0.15-0.03-0.32,0.17-0.4
		c0.2-0.07,0.44-0.02,0.54,0.13l19.87,27.77c0.1,0.15,0.03,0.32-0.17,0.4C541.96,67.02,541.96,67.02,541.95,67.03z"/>
</g>
<g class="st15">
	<path class="st3" d="M542.01,67.14c-0.14,0.04-0.31,0.04-0.46-0.02l-42.21-15.85c-0.28-0.1-0.39-0.36-0.26-0.56
		c0.14-0.2,0.48-0.28,0.76-0.18l42.21,15.85c0.28,0.1,0.39,0.36,0.26,0.56C542.23,67.04,542.12,67.1,542.01,67.14z"/>
</g>
<g class="st4">
	<path class="st3" d="M510.01,54.69c-0.15,0.04-0.33,0.04-0.5-0.01l-10.18-3.35c-0.33-0.11-0.48-0.39-0.34-0.63s0.52-0.34,0.85-0.24
		l10.18,3.35c0.33,0.11,0.48,0.39,0.34,0.63C510.29,54.57,510.15,54.65,510.01,54.69z"/>
</g>
<g class="st19">
	<path class="st3" d="M91.83,56.98c-0.13,0.08-0.3,0.07-0.43-0.02L70.59,42.44c-0.19-0.13-0.24-0.4-0.12-0.59
		c0.13-0.2,0.38-0.25,0.57-0.12l20.81,14.52c0.19,0.13,0.24,0.4,0.12,0.59C91.92,56.91,91.88,56.95,91.83,56.98z"/>
</g>
<g class="st5">
	<path class="st3" d="M75.97,59.23c-0.02,0.01-0.04,0.02-0.07,0.03c-0.18,0.06-0.36-0.05-0.42-0.23l-5-16.83
		c-0.05-0.18,0.04-0.38,0.22-0.43c0.18-0.06,0.36,0.05,0.42,0.23l5,16.83C76.18,58.99,76.11,59.16,75.97,59.23z"/>
</g>
<g class="st10">
	<path class="st3" d="M291.61,39.86c-0.12,0.03-0.26,0.03-0.38-0.03l-59.07-27.52c-0.2-0.09-0.26-0.28-0.14-0.43
		c0.12-0.15,0.38-0.19,0.58-0.09l59.07,27.52c0.2,0.09,0.26,0.28,0.14,0.43C291.76,39.79,291.68,39.83,291.61,39.86z"/>
</g>
<g class="st11">
	<path class="st3" d="M23.57,72.2c-0.01-0.04-0.02-0.08-0.01-0.11L42.83,5.54c0.04-0.14,0.26-0.2,0.5-0.14
		c0.23,0.07,0.39,0.24,0.35,0.38L24.4,72.33c-0.04,0.14-0.26,0.2-0.5,0.14C23.73,72.42,23.6,72.31,23.57,72.2z"/>
</g>
<g class="st15">
	<path class="st3" d="M104.53,42.09c-0.1,0.03-0.21,0.04-0.33,0.02L7.99,27.65c-0.32-0.05-0.53-0.28-0.47-0.51
		c0.06-0.23,0.36-0.38,0.68-0.34l96.21,14.46c0.32,0.05,0.53,0.28,0.47,0.51C104.85,41.92,104.72,42.04,104.53,42.09z"/>
</g>
<g class="st15">
	<path class="st3" d="M106.84,33.81c-0.09,0.02-0.18,0.03-0.28,0.02L8.09,27.56c-0.34-0.02-0.6-0.21-0.58-0.43
		c0.02-0.21,0.32-0.37,0.67-0.35l98.46,6.27c0.34,0.02,0.6,0.21,0.58,0.43C107.21,33.64,107.04,33.76,106.84,33.81z"/>
</g>
<g class="st11">
	<path class="st3" d="M353.79,62.59c0.03-0.01,0.06-0.02,0.09-0.01l16.82,1.65c0.1,0.01,0.17,0.1,0.16,0.2
		c-0.01,0.1-0.1,0.18-0.2,0.17l-16.82-1.65c-0.1-0.01-0.17-0.1-0.16-0.2C353.67,62.67,353.73,62.61,353.79,62.59z"/>
</g>
<g class="st18">
	<path class="st3" d="M372.77,41.18c0.08-0.04,0.18-0.01,0.24,0.06l6.64,8.45c0.07,0.09,0.06,0.23-0.03,0.31s-0.22,0.06-0.29-0.03
		l-6.64-8.45c-0.07-0.09-0.06-0.23,0.03-0.31C372.73,41.19,372.74,41.18,372.77,41.18z"/>
</g>
<g class="st19">
	<path class="st3" d="M365.92,51.05c0.02-0.01,0.05-0.02,0.08-0.02l13.47-1.48c0.14-0.02,0.27,0.09,0.29,0.24
		c0.02,0.15-0.09,0.28-0.23,0.3l-13.47,1.48c-0.14,0.02-0.27-0.09-0.29-0.24C365.74,51.21,365.82,51.1,365.92,51.05z"/>
</g>
<g class="st22">
	<path class="st3" d="M379.36,49.5c0.06-0.03,0.13-0.04,0.2-0.02l5.57,1.1c0.18,0.04,0.3,0.22,0.27,0.41
		c-0.04,0.19-0.21,0.32-0.4,0.28l-5.57-1.1c-0.18-0.04-0.3-0.22-0.27-0.41C379.17,49.64,379.26,49.55,379.36,49.5z"/>
</g>
<g class="st18">
	<path class="st3" d="M372.76,41.17c0.07-0.03,0.15-0.02,0.21,0.03l12.22,9.56c0.09,0.07,0.11,0.21,0.04,0.31
		c-0.07,0.1-0.2,0.12-0.3,0.04l-12.22-9.56c-0.09-0.07-0.11-0.21-0.04-0.31C372.7,41.21,372.73,41.19,372.76,41.17z"/>
</g>
<g class="st6">
	<path class="st3" d="M365.96,51.15c0.02-0.01,0.04-0.01,0.06-0.01l19.04-0.38c0.09,0,0.17,0.07,0.17,0.17
		c0,0.09-0.07,0.17-0.16,0.17l-19.04,0.38c-0.09,0-0.17-0.07-0.17-0.17C365.86,51.24,365.89,51.18,365.96,51.15z"/>
</g>
<g class="st10">
	<path class="st3" d="M403.08,49.31c0.05-0.02,0.1-0.02,0.16,0c0.09,0.05,0.13,0.16,0.09,0.26l-5.76,12.29
		c-0.04,0.1-0.16,0.14-0.25,0.09s-0.13-0.16-0.09-0.26l5.76-12.29C403.01,49.36,403.04,49.33,403.08,49.31z"/>
</g>
<g class="st14">
	<path class="st3" d="M392.21,39.55c0.09-0.04,0.2-0.03,0.28,0.04l10.84,9.68c0.11,0.1,0.13,0.28,0.03,0.4s-0.27,0.13-0.38,0.03
		l-10.84-9.68c-0.11-0.1-0.13-0.28-0.03-0.4C392.14,39.59,392.17,39.57,392.21,39.55z"/>
</g>
<g class="st15">
	<path class="st3" d="M403.05,49.24c0.01,0,0.02-0.01,0.03-0.01l8.51-2.76c0.13-0.04,0.28,0.03,0.32,0.17
		c0.04,0.14-0.03,0.29-0.17,0.33l-8.51,2.76c-0.13,0.04-0.28-0.03-0.32-0.17C402.86,49.44,402.93,49.3,403.05,49.24z"/>
</g>
<g class="st2">
	<path class="st3" d="M406.48,22.01c0.01-0.01,0.02-0.01,0.04-0.01c0.11-0.02,0.21,0.05,0.24,0.16l5.11,24.53
		c0.02,0.11-0.05,0.22-0.15,0.25c-0.11,0.02-0.21-0.05-0.24-0.16l-5.11-24.53C406.35,22.15,406.39,22.05,406.48,22.01z"/>
</g>
<g class="st18">
	<path class="st3" d="M349.4,52.47c0.11-0.05,0.23,0,0.28,0.11l4.36,10.09c0.05,0.11,0,0.24-0.11,0.29c-0.09,0.04-0.23,0-0.28-0.11
		l-4.36-10.09C349.24,52.65,349.3,52.52,349.4,52.47L349.4,52.47z"/>
</g>
<g class="st8">
	<path class="st3" d="M333.45,67.1c0.01-0.01,0.02-0.01,0.04-0.01l20.33-4.53c0.11-0.02,0.22,0.05,0.24,0.16s-0.05,0.23-0.15,0.25
		l-20.33,4.53c-0.11,0.02-0.22-0.05-0.24-0.16C333.3,67.23,333.36,67.13,333.45,67.1z"/>
</g>
<g class="st14">
	<path class="st3" d="M365.92,51.07c0.09-0.04,0.21-0.02,0.28,0.06c0.09,0.1,0.08,0.26-0.02,0.36l-12.17,11.45
		c-0.1,0.09-0.25,0.09-0.34-0.02c-0.09-0.1-0.08-0.26,0.02-0.36l12.17-11.45C365.88,51.1,365.89,51.08,365.92,51.07z"/>
</g>
<g class="st15">
	<path class="st3" d="M349.39,52.45c0.02-0.01,0.05-0.02,0.07-0.02l16.53-1.36c0.13-0.01,0.24,0.09,0.25,0.22
		c0.01,0.13-0.09,0.25-0.21,0.26l-16.53,1.36c-0.13,0.01-0.24-0.09-0.25-0.22C349.26,52.58,349.3,52.49,349.39,52.45z"/>
</g>
<g class="st8">
	<path class="st3" d="M372.77,41.19c0.06-0.03,0.13-0.02,0.19,0.02c0.09,0.07,0.11,0.19,0.04,0.28l-6.83,9.93
		c-0.06,0.09-0.18,0.11-0.27,0.05s-0.11-0.19-0.05-0.28l6.83-9.93C372.71,41.23,372.74,41.2,372.77,41.19z"/>
</g>
<g class="st6">
	<path class="st3" d="M366.07,32.27c0.07-0.03,0.15-0.01,0.2,0.05l6.71,8.95c0.06,0.08,0.04,0.19-0.03,0.24
		c-0.07,0.06-0.18,0.05-0.24-0.03L366,32.53c-0.06-0.08-0.04-0.19,0.03-0.24C366.05,32.28,366.05,32.27,366.07,32.27z"/>
</g>
<g class="st6">
	<path class="st3" d="M355.4,36.08c0.04-0.02,0.07-0.02,0.11-0.01l17.37,5.13c0.09,0.03,0.14,0.13,0.12,0.22
		c-0.03,0.09-0.12,0.15-0.21,0.12l-17.37-5.14c-0.09-0.03-0.14-0.13-0.12-0.22C355.33,36.14,355.36,36.1,355.4,36.08z"/>
</g>
<g class="st6">
	<path class="st3" d="M374.92,24.72c0.07-0.03,0.15-0.01,0.2,0.05l8.27,10.52c0.06,0.08,0.05,0.19-0.02,0.26
		c-0.08,0.06-0.19,0.05-0.25-0.03L374.86,25c-0.06-0.08-0.05-0.19,0.02-0.26C374.89,24.74,374.9,24.73,374.92,24.72z"/>
</g>
<g class="st18">
	<path class="st3" d="M366.05,32.21c0.04-0.02,0.08-0.02,0.13-0.02l17.13,2.98c0.12,0.02,0.21,0.14,0.18,0.27
		c-0.02,0.13-0.14,0.21-0.26,0.19l-17.13-2.98c-0.12-0.02-0.21-0.14-0.18-0.27C365.92,32.31,365.98,32.24,366.05,32.21z"/>
</g>
<g class="st4">
	<path class="st3" d="M383.15,35.15c0.07-0.03,0.15-0.03,0.22,0l9.05,4.4c0.14,0.07,0.19,0.23,0.13,0.37s-0.22,0.2-0.36,0.14
		l-9.05-4.4c-0.14-0.07-0.19-0.23-0.13-0.37C383.05,35.22,383.1,35.18,383.15,35.15z"/>
</g>
<g class="st6">
	<path class="st3" d="M382.07,19.71c0.03-0.01,0.06-0.02,0.09-0.01l24.41,2.32c0.1,0.01,0.18,0.1,0.17,0.21
		c-0.01,0.11-0.1,0.18-0.2,0.18l-24.41-2.32c-0.1-0.01-0.18-0.1-0.17-0.21C381.96,19.79,382.01,19.73,382.07,19.71z"/>
</g>
<g class="st10">
	<path class="st3" d="M324.54,54.64c0.08-0.04,0.17-0.01,0.22,0.06l8.91,12.47c0.06,0.09,0.04,0.21-0.04,0.27
		c-0.08,0.06-0.2,0.05-0.26-0.04l-8.91-12.47c-0.06-0.09-0.04-0.21,0.04-0.27C324.51,54.65,324.52,54.64,324.54,54.64z"/>
</g>
<g class="st13">
	<path class="st3" d="M349.39,52.43c0.1-0.04,0.21-0.02,0.28,0.07c0.09,0.11,0.08,0.27-0.02,0.36l-15.97,14.62
		c-0.1,0.09-0.26,0.08-0.35-0.02c-0.09-0.11-0.08-0.27,0.02-0.36l15.97-14.62C349.35,52.46,349.36,52.44,349.39,52.43z"/>
</g>
<g class="st6">
	<path class="st3" d="M324.55,54.65c0.02-0.01,0.03-0.01,0.05-0.01l24.88-2.15c0.09-0.01,0.18,0.06,0.18,0.16
		c0.01,0.1-0.06,0.18-0.16,0.19l-24.88,2.15c-0.09,0.01-0.18-0.06-0.18-0.16C324.43,54.75,324.48,54.68,324.55,54.65z"/>
</g>
<g class="st10">
	<path class="st3" d="M340.27,33.47c0.03-0.01,0.07-0.02,0.1-0.01l15.14,2.6c0.1,0.02,0.17,0.12,0.15,0.22
		c-0.02,0.11-0.11,0.18-0.21,0.16l-15.14-2.6c-0.1-0.02-0.17-0.12-0.15-0.22C340.17,33.54,340.21,33.49,340.27,33.47z"/>
</g>
<g class="st20">
	<path class="st3" d="M340.33,39.26c0.02-0.01,0.04-0.02,0.06-0.02l15.03-3.33c0.17-0.04,0.35,0.08,0.38,0.26
		c0.04,0.18-0.08,0.36-0.25,0.4l-15.03,3.33c-0.17,0.04-0.35-0.08-0.38-0.26C340.11,39.48,340.18,39.32,340.33,39.26z"/>
</g>
<g class="st23">
	<path class="st3" d="M355.33,35.91c0.01,0,0.02-0.01,0.03-0.01l10.66-3.81c0.18-0.07,0.38,0.04,0.44,0.23s-0.04,0.4-0.22,0.46
		l-10.66,3.81c-0.18,0.07-0.38-0.04-0.44-0.23C355.08,36.18,355.17,35.98,355.33,35.91z"/>
</g>
<g class="st10">
	<path class="st3" d="M340.38,39.39c0.01,0,0.02-0.01,0.03-0.01l25.68-7.14c0.1-0.03,0.2,0.03,0.23,0.14
		c0.03,0.1-0.04,0.21-0.13,0.24l-25.68,7.14c-0.1,0.03-0.2-0.03-0.23-0.14C340.24,39.53,340.3,39.43,340.38,39.39z"/>
</g>
<g class="st10">
	<path class="st3" d="M364.32,19.76c0.05-0.02,0.1-0.02,0.16,0l10.6,4.94c0.1,0.05,0.14,0.16,0.1,0.27c-0.04,0.1-0.16,0.15-0.26,0.1
		l-10.6-4.94c-0.1-0.05-0.14-0.16-0.1-0.27C364.24,19.82,364.27,19.78,364.32,19.76z"/>
</g>
<g class="st2">
	<path class="st3" d="M351.95,25.84c0.02-0.01,0.05-0.02,0.07-0.02l22.96-1.15c0.11-0.01,0.21,0.09,0.22,0.2
		c0.01,0.12-0.08,0.22-0.2,0.22l-22.96,1.15c-0.11,0.01-0.21-0.09-0.22-0.2C351.82,25.96,351.88,25.88,351.95,25.84z"/>
</g>
<g class="st19">
	<path class="st3" d="M382.02,19.6c0.13-0.06,0.28-0.01,0.36,0.11c0.09,0.14,0.06,0.33-0.08,0.43l-7.15,5
		c-0.14,0.09-0.32,0.06-0.41-0.08s-0.06-0.33,0.08-0.43l7.15-5C381.99,19.62,382.01,19.61,382.02,19.6z"/>
</g>
<g class="st15">
	<path class="st3" d="M364.3,19.69c0.03-0.01,0.07-0.02,0.1-0.02l17.74-0.06c0.15,0,0.27,0.12,0.27,0.28c0,0.15-0.12,0.28-0.27,0.28
		l-17.74,0.06c-0.15,0-0.27-0.12-0.27-0.28C364.12,19.83,364.2,19.74,364.3,19.69z"/>
</g>
<g class="st10">
	<path class="st3" d="M340.38,39.39c0.07-0.03,0.16-0.02,0.22,0.05c0.07,0.08,0.07,0.21-0.01,0.29l-15.84,15.24
		c-0.08,0.08-0.2,0.07-0.27-0.01c-0.07-0.08-0.07-0.21,0.01-0.29l15.84-15.24C340.33,39.41,340.36,39.39,340.38,39.39z"/>
</g>
<g class="st11">
	<path class="st3" d="M313.33,46.8c0.01,0,0.02-0.01,0.03-0.01l27.05-7.43c0.11-0.03,0.22,0.04,0.25,0.15
		c0.03,0.11-0.04,0.23-0.15,0.26l-27.05,7.43c-0.11,0.03-0.22-0.04-0.25-0.15C313.17,46.95,313.23,46.84,313.33,46.8z"/>
</g>
<g class="st18">
	<path class="st3" d="M340.24,33.41c0.03-0.01,0.06-0.02,0.09-0.02c0.13,0,0.24,0.11,0.24,0.24l0.11,5.93c0,0.14-0.1,0.25-0.24,0.25
		c-0.13,0-0.24-0.11-0.24-0.24l-0.11-5.93C340.1,33.54,340.15,33.45,340.24,33.41z"/>
</g>
<g class="st10">
	<path class="st3" d="M340.26,33.45c0.1-0.04,0.21,0,0.26,0.1c0.05,0.1,0.01,0.23-0.09,0.27l-26.94,13.35
		c-0.1,0.04-0.22,0.01-0.26-0.1c-0.05-0.1-0.01-0.23,0.09-0.27L340.26,33.45C340.26,33.46,340.26,33.46,340.26,33.45z"/>
</g>
<g class="st2">
	<path class="st3" d="M335.01,26.78c0.02-0.01,0.05-0.02,0.08-0.02l16.94-0.95c0.12-0.01,0.23,0.09,0.23,0.22
		c0.01,0.13-0.09,0.23-0.21,0.24l-16.94,0.95c-0.12,0.01-0.23-0.09-0.23-0.22C334.86,26.9,334.92,26.82,335.01,26.78z"/>
</g>
<g class="st19">
	<path class="st3" d="M364.27,19.64c0.16-0.07,0.35,0,0.42,0.17c0.08,0.17,0.01,0.37-0.15,0.45l-12.37,6.09
		c-0.17,0.07-0.35,0.01-0.43-0.16s-0.01-0.37,0.15-0.45l12.37-6.09C364.27,19.64,364.27,19.64,364.27,19.64z"/>
</g>
<g class="st11">
	<path class="st3" d="M375.61,4.01c0.07-0.03,0.16-0.03,0.23,0.03c0.1,0.08,0.12,0.23,0.05,0.34l-11.3,15.71
		c-0.08,0.11-0.22,0.13-0.32,0.05s-0.12-0.23-0.05-0.34l11.3-15.71C375.54,4.06,375.57,4.03,375.61,4.01z"/>
</g>
<g class="st2">
	<path class="st3" d="M335.01,26.78c0.01-0.01,0.02-0.01,0.04-0.01l29.31-7.04c0.12-0.03,0.23,0.05,0.26,0.17s-0.05,0.24-0.16,0.27
		l-29.31,7.04c-0.12,0.03-0.23-0.05-0.26-0.17C334.86,26.93,334.92,26.82,335.01,26.78z"/>
</g>
<g class="st6">
	<path class="st3" d="M308.86,44.06c0.06-0.03,0.12-0.02,0.18,0.01l4.47,2.74c0.1,0.06,0.13,0.19,0.07,0.29s-0.18,0.13-0.28,0.07
		l-4.47-2.74c-0.1-0.06-0.13-0.19-0.07-0.29C308.79,44.11,308.82,44.08,308.86,44.06z"/>
</g>
<g class="st10">
	<path class="st3" d="M317.26,37.27c0.09-0.04,0.2-0.01,0.27,0.07c0.08,0.1,0.06,0.25-0.04,0.33l-8.41,6.77
		c-0.1,0.08-0.24,0.06-0.32-0.04c-0.08-0.1-0.06-0.25,0.04-0.33l8.41-6.77C317.21,37.28,317.24,37.27,317.26,37.27z"/>
</g>
<g class="st9">
	<path class="st3" d="M334.95,26.64c0.17-0.08,0.37-0.01,0.47,0.16c0.1,0.18,0.04,0.42-0.14,0.52l-17.75,10.49
		c-0.18,0.11-0.4,0.04-0.5-0.14s-0.04-0.42,0.14-0.52l17.75-10.49C334.92,26.65,334.93,26.64,334.95,26.64z"/>
</g>
<path class="st3" d="M370.99,65.2c-0.42,0.19-0.9-0.01-1.08-0.45c-0.18-0.43,0.01-0.94,0.43-1.12c0.42-0.19,0.9,0.01,1.08,0.45
	C371.61,64.51,371.42,65.01,370.99,65.2z"/>
<path class="st3" d="M379.83,50.64c-0.43,0.19-0.93-0.01-1.11-0.46s0.01-0.96,0.44-1.16c0.43-0.19,0.93,0.01,1.11,0.46
	S380.26,50.44,379.83,50.64z"/>
<path class="st3" d="M385.39,51.75c-0.44,0.2-0.94-0.01-1.13-0.47c-0.19-0.45,0.01-0.98,0.45-1.18s0.94,0.01,1.13,0.47
	C386.04,51.03,385.83,51.56,385.39,51.75z"/>
<path class="st3" d="M397.76,62.66c-0.47,0.21-1.01-0.02-1.21-0.5c-0.2-0.49,0.01-1.05,0.48-1.26s1.01,0.02,1.21,0.5
	C398.45,61.88,398.23,62.45,397.76,62.66z"/>
<path class="st3" d="M403.52,50.4c-0.48,0.22-1.04-0.02-1.25-0.52s0.02-1.08,0.5-1.3s1.04,0.02,1.25,0.52
	C404.24,49.6,404.02,50.18,403.52,50.4z"/>
<path class="st3" d="M412.05,47.67c-0.5,0.22-1.08-0.02-1.29-0.53c-0.21-0.52,0.02-1.12,0.51-1.34c0.5-0.22,1.08,0.02,1.29,0.53
	C412.79,46.84,412.55,47.44,412.05,47.67z"/>
<path class="st3" d="M354.2,63.58c-0.44,0.2-0.94-0.01-1.13-0.47c-0.19-0.45,0.01-0.98,0.45-1.18s0.94,0.01,1.13,0.47
	C354.83,62.86,354.62,63.38,354.2,63.58z"/>
<path class="st3" d="M366.36,52.12c-0.43,0.19-0.93-0.01-1.12-0.46s0.01-0.97,0.45-1.17c0.43-0.19,0.93,0.01,1.12,0.46
	S366.79,51.93,366.36,52.12z"/>
<path class="st3" d="M373.18,42.21c-0.44,0.2-0.95-0.01-1.14-0.47c-0.19-0.46,0.01-0.99,0.45-1.19s0.95,0.01,1.14,0.47
	C373.83,41.48,373.62,42.01,373.18,42.21z"/>
<path class="st3" d="M383.62,36.28c-0.46,0.21-1-0.02-1.2-0.5s0.01-1.04,0.48-1.25s1,0.02,1.2,0.5S384.08,36.07,383.62,36.28z"/>
<path class="st3" d="M392.68,40.7c-0.48,0.21-1.03-0.02-1.23-0.51s0.01-1.07,0.49-1.28c0.48-0.21,1.03,0.02,1.23,0.51
	C393.38,39.92,393.15,40.49,392.68,40.7z"/>
<path class="st3" d="M406.93,23.11c-0.48,0.22-1.04-0.02-1.25-0.52s0.02-1.08,0.5-1.3s1.04,0.02,1.25,0.52
	C407.64,22.31,407.42,22.89,406.93,23.11z"/>
<path class="st3" d="M333.89,68.16c-0.46,0.21-1-0.02-1.2-0.5s0.01-1.04,0.48-1.25s1,0.02,1.2,0.5
	C334.55,67.4,334.35,67.95,333.89,68.16z"/>
<path class="st3" d="M349.83,53.51c-0.45,0.2-0.97-0.01-1.16-0.48s0.01-1.01,0.46-1.21c0.45-0.2,0.97,0.01,1.16,0.48
	C350.49,52.77,350.29,53.31,349.83,53.51z"/>
<path class="st3" d="M355.85,37.12c-0.47,0.21-1.01-0.02-1.21-0.5c-0.2-0.49,0.01-1.05,0.48-1.26s1.01,0.02,1.21,0.5
	C356.52,36.35,356.3,36.91,355.85,37.12z"/>
<path class="st3" d="M366.49,33.3c-0.46,0.21-1-0.02-1.2-0.5s0.01-1.04,0.48-1.25c0.46-0.21,1,0.02,1.2,0.5
	C367.17,32.53,366.96,33.09,366.49,33.3z"/>
<path class="st3" d="M375.38,25.81c-0.49,0.22-1.06-0.02-1.27-0.53s0.02-1.1,0.51-1.32c0.49-0.22,1.06,0.02,1.27,0.53
	S375.86,25.59,375.38,25.81z"/>
<path class="st3" d="M382.52,20.82c-0.5,0.22-1.08-0.02-1.29-0.53c-0.21-0.52,0.02-1.12,0.51-1.34c0.5-0.22,1.08,0.02,1.29,0.53
	C383.26,20,383.02,20.6,382.52,20.82z"/>
<path class="st3" d="M324.99,55.72c-0.48,0.22-1.04-0.02-1.25-0.52s0.02-1.08,0.5-1.3s1.04,0.02,1.25,0.52
	C325.68,54.93,325.46,55.51,324.99,55.72z"/>
<path class="st3" d="M340.83,40.48c-0.48,0.22-1.04-0.02-1.25-0.52s0.02-1.08,0.5-1.3s1.04,0.02,1.25,0.52S341.3,40.26,340.83,40.48
	z"/>
<path class="st3" d="M340.73,34.59c-0.5,0.22-1.08-0.02-1.3-0.54c-0.22-0.52,0.02-1.13,0.52-1.35s1.08,0.02,1.3,0.54
	S341.24,34.37,340.73,34.59z"/>
<path class="st3" d="M352.43,27.03c-0.53,0.24-1.13-0.02-1.36-0.56c-0.23-0.55,0.02-1.18,0.54-1.42c0.53-0.24,1.13,0.02,1.36,0.56
	C353.21,26.16,352.96,26.79,352.43,27.03z"/>
<path class="st3" d="M364.8,20.94c-0.53,0.24-1.13-0.02-1.36-0.56c-0.23-0.55,0.02-1.18,0.54-1.42c0.53-0.24,1.13,0.02,1.36,0.56
	C365.58,20.07,365.33,20.7,364.8,20.94z"/>
<path class="st3" d="M376.11,5.24c-0.53,0.24-1.15-0.02-1.38-0.57s0.02-1.2,0.55-1.44s1.15,0.02,1.38,0.57
	C376.89,4.36,376.64,5,376.11,5.24z"/>
<path class="st3" d="M313.8,47.97c-0.52,0.23-1.12-0.02-1.34-0.56s0.02-1.16,0.53-1.39c0.52-0.23,1.12,0.02,1.34,0.56
	C314.57,47.12,314.33,47.74,313.8,47.97z"/>
<path class="st3" d="M317.8,38.59c-0.59,0.26-1.27-0.02-1.52-0.63s0.02-1.32,0.61-1.58s1.27,0.02,1.52,0.63
	S318.39,38.32,317.8,38.59z"/>
<path class="st3" d="M335.54,28.07c-0.58,0.26-1.24-0.02-1.49-0.62s0.02-1.29,0.59-1.55s1.24,0.02,1.49,0.62
	C336.39,27.12,336.11,27.82,335.54,28.07z"/>
</svg>
