<?xml version="1.0" encoding="utf-8"?>
<!-- Generator: Adobe Illustrator 25.2.1, SVG Export Plug-In . SVG Version: 6.00 Build 0)  -->
<svg version="1.1" id="Layer_1" xmlns="http://www.w3.org/2000/svg" xmlns:xlink="http://www.w3.org/1999/xlink" x="0px" y="0px"
	 viewBox="0 0 584.76 74.12" style="enable-background:new 0 0 584.76 74.12;" xml:space="preserve">
<style type="text/css">
	.st0{opacity:0.5;fill:#231F20;enable-background:new    ;}
	.st1{fill:#FFFFFF;}
	.st2{opacity:0.35;}
	.st3{fill:#231F20;}
	.st4{opacity:0.39;}
	.st5{opacity:0.32;}
	.st6{opacity:0.33;}
	.st7{opacity:0.36;}
	.st8{opacity:0.45;}
	.st9{opacity:0.34;}
	.st10{opacity:0.4;}
	.st11{opacity:0.37;}
	.st12{opacity:0.48;}
	.st13{opacity:0.43;}
	.st14{opacity:0.46;}
	.st15{opacity:0.49;}
	.st16{opacity:0.41;}
	.st17{opacity:0.42;}
	.st18{opacity:0.38;}
	.st19{opacity:0.0479;fill:#231F20;enable-background:new    ;}
	.st20{opacity:0.47;}
</style>
<g>
	<path class="st0" d="M-1502.09,953.29c-0.05,1.34-1,2.38-2.12,2.31c-1.12-0.06-1.98-1.2-1.93-2.54c0.05-1.34,1-2.38,2.12-2.31
		C-1502.9,950.81-1502.03,951.95-1502.09,953.29z"/>
</g>
<rect x="0.68" y="-0.15" class="st1" width="583.87" height="73.65"/>
<g class="st2">
	<path class="st3" d="M222.99,18.87c0.02-0.05,0.07-0.09,0.13-0.09l12.94-0.01c0.08,0,0.15,0.07,0.15,0.15s-0.06,0.15-0.14,0.15
		l-12.94,0.01c-0.08,0-0.15-0.07-0.15-0.15C222.98,18.91,222.98,18.89,222.99,18.87z"/>
</g>
<path class="st3" d="M223.76,19.2c-0.14,0.35-0.53,0.51-0.88,0.36s-0.53-0.55-0.39-0.9c0.14-0.35,0.53-0.51,0.88-0.36
	S223.9,18.86,223.76,19.2z"/>
<g>
	<g class="st4">
		<path class="st3" d="M24.36,45.02c-0.02-0.05-0.02-0.12,0.02-0.17l6.38-9.35c0.06-0.08,0.18-0.11,0.26-0.05
			c0.09,0.05,0.11,0.17,0.05,0.25l-6.38,9.35c-0.06,0.08-0.18,0.11-0.26,0.05C24.39,45.08,24.37,45.05,24.36,45.02z"/>
	</g>
	<g class="st2">
		<path class="st3" d="M32.19,37.56c-0.02-0.05-0.02-0.11,0.02-0.16l9.98-13.55c0.06-0.08,0.16-0.09,0.24-0.04
			c0.08,0.05,0.1,0.16,0.04,0.23l-9.98,13.55c-0.06,0.08-0.16,0.09-0.24,0.04C32.22,37.62,32.2,37.59,32.19,37.56z"/>
	</g>
	<g class="st5">
		<path class="st3" d="M30.31,59.21L30.31,59.21L24.4,45c-0.03-0.07,0.01-0.15,0.08-0.18c0.07-0.03,0.15,0,0.19,0.08l5.91,14.21
			c0.03,0.07-0.01,0.15-0.08,0.18C30.43,59.31,30.34,59.28,30.31,59.21z"/>
	</g>
	<g class="st2">
		<path class="st3" d="M23.97,49.56c-0.02-0.05-0.02-0.11,0.01-0.16l8.21-11.99c0.05-0.08,0.16-0.1,0.25-0.05
			c0.08,0.05,0.11,0.16,0.05,0.24l-8.21,11.99c-0.05,0.08-0.16,0.1-0.25,0.05C24,49.61,23.98,49.59,23.97,49.56z"/>
	</g>
	<g class="st6">
		<path class="st3" d="M24.6,36.05c-0.01-0.03-0.02-0.06-0.01-0.09c0.02-0.08,0.1-0.14,0.19-0.12l7.6,1.51
			c0.09,0.02,0.14,0.1,0.13,0.18c-0.02,0.08-0.1,0.14-0.19,0.12l-7.6-1.51C24.66,36.13,24.62,36.1,24.6,36.05z"/>
	</g>
	<g class="st7">
		<path class="st3" d="M23.96,49.56c-0.03-0.08-0.01-0.17,0.07-0.22c0.09-0.05,0.2-0.03,0.25,0.06l6.31,9.66
			c0.06,0.08,0.03,0.19-0.06,0.24s-0.2,0.03-0.25-0.06l-6.31-9.66C23.97,49.58,23.97,49.57,23.96,49.56z"/>
	</g>
	<g class="st8">
		<path class="st3" d="M18.71,53.51c-0.05-0.1-0.02-0.23,0.08-0.3l5.18-3.92c0.12-0.09,0.28-0.07,0.37,0.04
			c0.09,0.11,0.07,0.27-0.04,0.36l-5.18,3.92c-0.12,0.09-0.28,0.07-0.37-0.04C18.73,53.55,18.72,53.53,18.71,53.51z"/>
	</g>
	<g class="st2">
		<path class="st3" d="M23.97,49.56c-0.01-0.02-0.02-0.05-0.01-0.08l0.61-13.5c0-0.1,0.09-0.17,0.19-0.17s0.18,0.09,0.17,0.18
			l-0.61,13.5c0,0.1-0.09,0.17-0.19,0.17C24.05,49.66,23.99,49.62,23.97,49.56z"/>
	</g>
	<g class="st6">
		<path class="st3" d="M18.79,53.48c-0.02-0.04-0.02-0.08-0.01-0.12l5.79-17.42c0.03-0.09,0.13-0.14,0.22-0.11
			c0.09,0.03,0.14,0.12,0.11,0.21l-5.79,17.42c-0.03,0.09-0.13,0.14-0.22,0.11C18.85,53.56,18.81,53.52,18.79,53.48z"/>
	</g>
	<g class="st9">
		<path class="st3" d="M18.79,53.48c-0.03-0.08-0.01-0.17,0.07-0.21c0.08-0.05,0.19-0.03,0.25,0.05l11.11,17.01
			c0.05,0.08,0.03,0.19-0.06,0.24c-0.08,0.05-0.19,0.03-0.25-0.05L18.8,53.51C18.8,53.5,18.79,53.49,18.79,53.48z"/>
	</g>
	<path class="st3" d="M31.59,35.32c0.16,0.36-0.01,0.78-0.39,0.93c-0.37,0.15-0.81-0.01-0.97-0.37s0.01-0.78,0.39-0.93
		C30.99,34.79,31.43,34.96,31.59,35.32z"/>
	<path class="st3" d="M43.06,23.64c0.18,0.39-0.01,0.85-0.42,1.02c-0.41,0.17-0.89-0.01-1.06-0.41c-0.18-0.39,0.01-0.85,0.42-1.02
		C42.41,23.07,42.89,23.25,43.06,23.64z"/>
	<path class="st3" d="M25.22,44.66c0.16,0.37-0.01,0.79-0.39,0.95c-0.38,0.16-0.82-0.01-0.99-0.38c-0.16-0.37,0.01-0.79,0.39-0.95
		C24.62,44.13,25.06,44.3,25.22,44.66z"/>
	<path class="st3" d="M33.09,37.19c0.18,0.39-0.01,0.85-0.42,1.02c-0.41,0.17-0.89-0.01-1.06-0.41c-0.18-0.39,0.01-0.85,0.42-1.02
		C32.44,36.61,32.91,36.8,33.09,37.19z"/>
	<path class="st3" d="M31.18,58.85c0.17,0.39-0.01,0.84-0.42,1.01s-0.88-0.01-1.05-0.4s0.01-0.84,0.42-1.01
		C30.53,58.28,31,58.46,31.18,58.85z"/>
	<path class="st3" d="M24.89,49.18c0.18,0.4-0.01,0.87-0.43,1.04s-0.9-0.01-1.08-0.41c-0.18-0.4,0.01-0.87,0.43-1.04
		C24.22,48.59,24.71,48.78,24.89,49.18z"/>
	<path class="st3" d="M25.53,35.67c0.18,0.41-0.01,0.89-0.44,1.07s-0.93-0.01-1.11-0.43c-0.18-0.41,0.01-0.89,0.44-1.07
		C24.84,35.06,25.34,35.26,25.53,35.67z"/>
	<path class="st3" d="M30.86,70.1c0.19,0.42-0.01,0.91-0.45,1.09c-0.44,0.18-0.95-0.01-1.13-0.43c-0.19-0.42,0.01-0.91,0.45-1.09
		C30.16,69.48,30.67,69.68,30.86,70.1z"/>
	<path class="st3" d="M19.73,53.09c0.19,0.41-0.01,0.89-0.44,1.07s-0.93-0.01-1.11-0.43c-0.18-0.41,0.01-0.89,0.44-1.07
		C19.05,52.49,19.55,52.68,19.73,53.09z"/>
</g>
<g>
	<g class="st10">
		<path class="st3" d="M261.87,19.32c-0.04-0.09-0.02-0.19,0.05-0.26l10.22-9.72c0.1-0.09,0.25-0.09,0.35,0s0.09,0.24,0,0.33
			l-10.22,9.72c-0.1,0.09-0.25,0.09-0.35,0C261.9,19.38,261.88,19.35,261.87,19.32z"/>
	</g>
	<g class="st10">
		<path class="st3" d="M257.76,2.79c-0.03-0.06-0.03-0.14,0.01-0.2c0.06-0.12,0.21-0.17,0.33-0.11l14.32,6.82
			c0.12,0.06,0.17,0.2,0.11,0.32c-0.06,0.12-0.21,0.17-0.33,0.11l-14.32-6.82C257.82,2.88,257.78,2.84,257.76,2.79z"/>
	</g>
	<g class="st11">
		<path class="st3" d="M242.24,7.21c0-0.01-0.01-0.02-0.01-0.02c-0.04-0.11,0.03-0.23,0.15-0.27l15.54-4.43
			c0.12-0.03,0.24,0.03,0.28,0.14c0.03,0.11-0.03,0.23-0.15,0.27l-15.54,4.43C242.4,7.36,242.28,7.31,242.24,7.21z"/>
	</g>
	<g class="st11">
		<path class="st3" d="M261.89,19.32c-0.01-0.01-0.01-0.02-0.01-0.03l-4.11-16.54c-0.03-0.11,0.05-0.23,0.16-0.26
			c0.12-0.03,0.24,0.04,0.27,0.16l4.11,16.54c0.03,0.11-0.05,0.23-0.16,0.26C262.04,19.46,261.93,19.41,261.89,19.32z"/>
	</g>
	<g class="st12">
		<path class="st3" d="M267.84,55.43c-0.06-0.14-0.01-0.3,0.12-0.38l7.28-4.6c0.15-0.09,0.35-0.05,0.45,0.09s0.06,0.34-0.09,0.43
			l-7.28,4.6c-0.15,0.09-0.35,0.05-0.45-0.09C267.85,55.47,267.84,55.45,267.84,55.43z"/>
	</g>
	<g class="st13">
		<path class="st3" d="M275.17,50.81c-0.02-0.04-0.03-0.08-0.02-0.13l1.82-16.09c0.02-0.14,0.15-0.24,0.3-0.23
			c0.15,0.02,0.25,0.14,0.24,0.29l-1.82,16.09c-0.02,0.14-0.15,0.24-0.3,0.23C275.28,50.95,275.2,50.89,275.17,50.81z"/>
	</g>
	<g class="st9">
		<path class="st3" d="M267.96,55.38c-0.02-0.04-0.02-0.09,0-0.14l9.1-20.69c0.04-0.09,0.15-0.13,0.24-0.09
			c0.1,0.04,0.14,0.14,0.1,0.23l-9.1,20.69c-0.04,0.09-0.15,0.13-0.24,0.09C268.02,55.46,267.98,55.42,267.96,55.38z"/>
	</g>
	<g class="st5">
		<path class="st3" d="M261.93,19.3c-0.03-0.06-0.01-0.14,0.04-0.19c0.07-0.06,0.18-0.06,0.25,0.01l15.14,15.39
			c0.07,0.07,0.06,0.18-0.01,0.24s-0.18,0.06-0.25-0.01l-15.14-15.39C261.95,19.33,261.94,19.32,261.93,19.3z"/>
	</g>
	<g class="st6">
		<path class="st3" d="M243.68,28.6c-0.04-0.08,0-0.18,0.08-0.23l18.25-9.29c0.09-0.05,0.2-0.01,0.25,0.07
			c0.05,0.09,0.01,0.2-0.08,0.24l-18.25,9.29c-0.09,0.05-0.2,0.01-0.25-0.07C243.68,28.6,243.68,28.6,243.68,28.6z"/>
	</g>
	<g class="st6">
		<path class="st3" d="M242.28,7.19c-0.02-0.05-0.02-0.11,0.01-0.16c0.05-0.08,0.17-0.11,0.25-0.05l19.65,12.11
			c0.09,0.05,0.11,0.16,0.06,0.24s-0.17,0.11-0.25,0.05L242.35,7.27C242.31,7.25,242.29,7.23,242.28,7.19z"/>
	</g>
	<g class="st14">
		<path class="st3" d="M236.45,18.19c-0.04-0.08-0.04-0.17,0.01-0.25l5.71-10.95c0.08-0.15,0.27-0.21,0.42-0.13
			c0.15,0.07,0.22,0.26,0.14,0.4l-5.71,10.95c-0.08,0.15-0.27,0.21-0.42,0.13C236.53,18.31,236.48,18.25,236.45,18.19z"/>
	</g>
	<g class="st2">
		<path class="st3" d="M243.66,28.6c-0.01-0.02-0.01-0.04-0.02-0.06l-1.41-21.4c-0.01-0.11,0.08-0.2,0.19-0.21
			c0.11-0.01,0.21,0.08,0.21,0.18l1.41,21.4c0.01,0.11-0.08,0.2-0.19,0.21C243.78,28.72,243.7,28.68,243.66,28.6z"/>
	</g>
	<g class="st2">
		<path class="st3" d="M250.77,45.58c-0.02-0.05-0.02-0.12,0.01-0.17c0.06-0.09,0.18-0.12,0.27-0.07l17.18,9.8
			c0.09,0.05,0.13,0.17,0.07,0.26s-0.18,0.12-0.27,0.07l-17.18-9.8C250.81,45.65,250.79,45.62,250.77,45.58z"/>
	</g>
	<g class="st7">
		<path class="st3" d="M232.61,41.6c-0.02-0.04-0.02-0.08-0.01-0.13c0.03-0.11,0.14-0.18,0.26-0.15l18.15,3.98
			c0.11,0.03,0.19,0.14,0.16,0.25s-0.14,0.18-0.26,0.15l-18.15-3.98C232.69,41.71,232.64,41.66,232.61,41.6z"/>
	</g>
	<g class="st9">
		<path class="st3" d="M235.66,58.38c-0.03-0.07-0.01-0.16,0.05-0.21l15.12-12.8c0.08-0.07,0.2-0.06,0.27,0.02
			c0.07,0.08,0.06,0.19-0.02,0.26l-15.12,12.8c-0.08,0.07-0.2,0.06-0.27-0.02C235.67,58.41,235.66,58.4,235.66,58.38z"/>
	</g>
	<g class="st11">
		<path class="st3" d="M250.75,45.59L250.75,45.59l-7.11-16.98c-0.05-0.11,0.01-0.23,0.12-0.28c0.11-0.04,0.23,0.01,0.29,0.12
			l7.1,16.98c0.05,0.11-0.01,0.23-0.12,0.28C250.92,45.75,250.8,45.7,250.75,45.59z"/>
	</g>
	<g class="st2">
		<path class="st3" d="M232.62,41.6c-0.03-0.07-0.02-0.14,0.03-0.2l11.04-13c0.07-0.08,0.2-0.1,0.29-0.03
			c0.09,0.07,0.1,0.19,0.03,0.28l-11.04,13c-0.07,0.08-0.2,0.1-0.29,0.03C232.65,41.65,232.63,41.63,232.62,41.6z"/>
	</g>
	<g class="st15">
		<path class="st3" d="M236.42,18.2c-0.07-0.15-0.01-0.32,0.13-0.41c0.16-0.1,0.38-0.06,0.48,0.1l7.11,10.45
			c0.1,0.16,0.06,0.36-0.1,0.46c-0.16,0.1-0.38,0.06-0.48-0.1l-7.11-10.45C236.43,18.24,236.43,18.22,236.42,18.2z"/>
	</g>
	<g class="st7">
		<path class="st3" d="M222.27,68.36c-0.04-0.08-0.01-0.18,0.07-0.24l13.36-9.97c0.09-0.07,0.23-0.05,0.3,0.04
			c0.07,0.09,0.06,0.22-0.04,0.29l-13.36,9.97c-0.09,0.07-0.23,0.05-0.3-0.04C222.29,68.39,222.28,68.37,222.27,68.36z"/>
	</g>
	<g class="st5">
		<path class="st3" d="M213.27,50.52c-0.02-0.04-0.02-0.08,0-0.13c0.03-0.09,0.14-0.13,0.23-0.1l22.4,7.85
			c0.09,0.03,0.14,0.13,0.11,0.22c-0.03,0.09-0.14,0.13-0.23,0.1l-22.4-7.85C213.33,50.6,213.29,50.56,213.27,50.52z"/>
	</g>
	<g class="st16">
		<path class="st3" d="M235.6,58.4c-0.01-0.02-0.01-0.04-0.02-0.05l-3.02-16.79c-0.02-0.13,0.07-0.26,0.21-0.28
			c0.14-0.02,0.27,0.07,0.29,0.2l3.02,16.79c0.02,0.13-0.07,0.26-0.21,0.28C235.76,58.57,235.64,58.5,235.6,58.4z"/>
	</g>
	<g class="st5">
		<path class="st3" d="M213.27,50.52c-0.04-0.09,0-0.19,0.09-0.23l19.37-8.93c0.09-0.04,0.2,0,0.24,0.08
			c0.04,0.1,0.01,0.19-0.09,0.23l-19.37,8.93C213.42,50.65,213.31,50.62,213.27,50.52C213.27,50.53,213.27,50.52,213.27,50.52z"/>
	</g>
	<g class="st17">
		<path class="st3" d="M203.41,41.55c-0.03-0.07-0.03-0.14,0-0.22l5.89-12.91c0.06-0.14,0.23-0.2,0.37-0.14s0.21,0.22,0.14,0.36
			l-5.89,12.91c-0.06,0.14-0.23,0.2-0.37,0.14C203.49,41.67,203.43,41.61,203.41,41.55z"/>
	</g>
	<g class="st9">
		<path class="st3" d="M213.24,50.53c-0.01-0.01-0.01-0.03-0.01-0.05l-3.88-21.92c-0.02-0.11,0.06-0.21,0.17-0.23
			c0.11-0.02,0.22,0.05,0.24,0.16l3.88,21.92c0.02,0.11-0.06,0.21-0.17,0.23C213.37,50.66,213.28,50.61,213.24,50.53z"/>
	</g>
	<g class="st9">
		<path class="st3" d="M201.46,68.08c-0.01-0.02-0.02-0.05-0.02-0.08c0-0.1,0.09-0.19,0.2-0.18l20.83,0.27
			c0.11,0,0.19,0.09,0.19,0.19s-0.09,0.19-0.2,0.18l-20.83-0.27C201.56,68.19,201.49,68.14,201.46,68.08z"/>
	</g>
	<g class="st11">
		<path class="st3" d="M213.23,50.54c-0.05-0.1,0-0.23,0.11-0.28c0.11-0.05,0.24-0.01,0.3,0.1l9.03,17.82
			c0.05,0.11,0.01,0.23-0.1,0.29c-0.11,0.05-0.24,0.01-0.3-0.1L213.23,50.54L213.23,50.54z"/>
	</g>
	<g class="st15">
		<path class="st3" d="M203.34,41.58c-0.06-0.12-0.03-0.27,0.07-0.37c0.14-0.14,0.36-0.14,0.5-0.01l9.77,9.01
			c0.14,0.13,0.15,0.35,0.01,0.48c-0.14,0.14-0.36,0.14-0.5,0.01l-9.77-9.01C203.38,41.66,203.36,41.62,203.34,41.58z"/>
	</g>
	<path class="st3" d="M273.16,9.16c0.2,0.45-0.01,0.97-0.48,1.16s-1.01-0.01-1.21-0.46c-0.2-0.45,0.01-0.97,0.48-1.16
		C272.41,8.51,272.95,8.71,273.16,9.16z"/>
	<path class="st3" d="M258.84,2.34c0.2,0.45-0.01,0.98-0.49,1.17c-0.47,0.19-1.02-0.01-1.22-0.47c-0.2-0.45,0.01-0.98,0.49-1.17
		C258.09,1.68,258.64,1.89,258.84,2.34z"/>
	<path class="st3" d="M276.22,50.37c0.19,0.43-0.01,0.93-0.46,1.11c-0.45,0.18-0.96-0.01-1.16-0.44c-0.19-0.43,0.01-0.93,0.46-1.11
		C275.51,49.75,276.03,49.94,276.22,50.37z"/>
	<path class="st3" d="M278.08,34.27c0.2,0.45-0.01,0.97-0.48,1.16s-1.01-0.01-1.21-0.46s0.01-0.97,0.48-1.16
		C277.34,33.62,277.88,33.82,278.08,34.27z"/>
	<path class="st3" d="M262.95,18.88c0.2,0.45-0.01,0.98-0.49,1.17c-0.47,0.19-1.02-0.01-1.22-0.47c-0.2-0.45,0.01-0.98,0.49-1.17
		C262.2,18.22,262.75,18.43,262.95,18.88z"/>
	<path class="st3" d="M243.31,6.77c0.21,0.46-0.02,0.99-0.49,1.19c-0.48,0.2-1.03-0.01-1.24-0.47c-0.21-0.46,0.02-0.99,0.49-1.19
		C242.55,6.1,243.1,6.31,243.31,6.77z"/>
	<path class="st3" d="M268.96,54.97c0.2,0.44-0.01,0.94-0.47,1.13c-0.45,0.19-0.98-0.01-1.18-0.45c-0.2-0.44,0.01-0.94,0.47-1.13
		C268.23,54.33,268.76,54.53,268.96,54.97z"/>
	<path class="st3" d="M251.8,45.16c0.2,0.45-0.01,0.97-0.48,1.16s-1.01-0.01-1.21-0.46c-0.2-0.45,0.01-0.97,0.48-1.16
		C251.06,44.5,251.6,44.71,251.8,45.16z"/>
	<path class="st3" d="M244.7,28.17c0.2,0.45-0.01,0.98-0.49,1.17c-0.47,0.19-1.02-0.01-1.22-0.47c-0.2-0.45,0.01-0.98,0.49-1.17
		C243.95,27.51,244.5,27.72,244.7,28.17z"/>
	<path class="st3" d="M237.6,17.71c0.21,0.46-0.02,0.99-0.49,1.19c-0.48,0.2-1.03-0.01-1.24-0.47c-0.21-0.46,0.02-0.99,0.49-1.19
		C236.84,17.04,237.4,17.25,237.6,17.71z"/>
	<path class="st3" d="M236.68,57.96c0.2,0.45-0.01,0.97-0.48,1.16s-1.01-0.01-1.21-0.46s0.01-0.97,0.48-1.16
		C235.93,57.3,236.47,57.51,236.68,57.96z"/>
	<path class="st3" d="M233.67,41.17c0.2,0.46-0.01,0.98-0.49,1.18c-0.47,0.2-1.02-0.01-1.23-0.47c-0.2-0.46,0.01-0.98,0.49-1.18
		C232.91,40.5,233.46,40.71,233.67,41.17z"/>
	<path class="st3" d="M210.44,28.17c0.21,0.47-0.02,1.02-0.51,1.22s-1.06-0.01-1.27-0.49c-0.21-0.47,0.02-1.02,0.51-1.22
		C209.66,27.48,210.23,27.7,210.44,28.17z"/>
	<path class="st3" d="M223.33,67.92c0.2,0.46-0.01,0.98-0.49,1.18s-1.02-0.01-1.23-0.47c-0.2-0.46,0.01-0.98,0.49-1.18
		S223.12,67.47,223.33,67.92z"/>
	<path class="st3" d="M214.31,50.09c0.21,0.46-0.02,1-0.5,1.2s-1.04-0.01-1.25-0.48c-0.21-0.46,0.02-1,0.5-1.2
		C213.54,49.41,214.1,49.63,214.31,50.09z"/>
	<path class="st3" d="M204.56,41.08c0.21,0.48-0.02,1.03-0.51,1.23c-0.49,0.2-1.07-0.02-1.28-0.49s0.02-1.03,0.51-1.23
		C203.78,40.38,204.35,40.6,204.56,41.08z"/>
	<path class="st3" d="M202.53,67.64c0.21,0.47-0.02,1.02-0.51,1.22c-0.49,0.2-1.06-0.01-1.27-0.49c-0.21-0.47,0.02-1.02,0.51-1.22
		C201.75,66.95,202.31,67.17,202.53,67.64z"/>
</g>
<g class="st11">
	<path class="st3" d="M538.98,36.98c0.07-0.07,0.18-0.09,0.26-0.04l11.97,6.5c0.09,0.05,0.12,0.16,0.05,0.25
		c-0.06,0.09-0.19,0.12-0.29,0.07L539,37.26c-0.09-0.05-0.12-0.16-0.05-0.25C538.97,37,538.97,36.99,538.98,36.98z"/>
</g>
<g class="st10">
	<path class="st3" d="M502.14,44.96c0.07-0.06,0.17-0.09,0.26-0.06l12.31,4.05c0.12,0.04,0.17,0.16,0.11,0.27
		c-0.05,0.11-0.19,0.17-0.31,0.13L502.2,45.3c-0.12-0.04-0.17-0.16-0.11-0.27C502.1,45.01,502.12,44.98,502.14,44.96z"/>
</g>
<g class="st10">
	<path class="st3" d="M515.97,35.27c0.05-0.05,0.12-0.08,0.19-0.08c0.13,0,0.22,0.1,0.21,0.22l-1.52,13.73
		c-0.01,0.12-0.13,0.21-0.26,0.21s-0.22-0.1-0.21-0.21l1.52-13.73C515.91,35.36,515.93,35.31,515.97,35.27z"/>
</g>
<g class="st11">
	<path class="st3" d="M506.78,25.05c0.01-0.01,0.01-0.01,0.02-0.02c0.09-0.07,0.22-0.07,0.29,0.01l9.21,10.24
		c0.07,0.08,0.05,0.2-0.04,0.27c-0.09,0.07-0.22,0.07-0.29-0.01l-9.21-10.24C506.69,25.23,506.7,25.12,506.78,25.05z"/>
</g>
<g class="st11">
	<path class="st3" d="M502.15,44.98c0.01-0.01,0.02-0.02,0.03-0.02l13.84-9.69c0.1-0.07,0.23-0.06,0.29,0.03
		c0.06,0.08,0.04,0.2-0.06,0.27l-13.84,9.69c-0.1,0.07-0.23,0.06-0.29-0.03C502.07,45.15,502.08,45.05,502.15,44.98z"/>
</g>
<g class="st12">
	<path class="st3" d="M470.93,63.8c0.11-0.1,0.27-0.13,0.39-0.06l6.64,3.8c0.14,0.08,0.17,0.25,0.07,0.38
		c-0.1,0.13-0.29,0.18-0.43,0.1l-6.64-3.8c-0.14-0.08-0.17-0.25-0.07-0.38C470.9,63.82,470.91,63.81,470.93,63.8z"/>
</g>
<g class="st13">
	<path class="st3" d="M477.6,67.63c0.03-0.03,0.07-0.05,0.11-0.07l15.38-4.94c0.14-0.04,0.27,0.02,0.31,0.14
		c0.03,0.12-0.05,0.25-0.18,0.3L477.84,68c-0.14,0.04-0.27-0.02-0.31-0.14C477.51,67.78,477.54,67.69,477.6,67.63z"/>
</g>
<g class="st9">
	<path class="st3" d="M471.02,63.88c0.03-0.03,0.08-0.05,0.13-0.06l22.02-1.14c0.1-0.01,0.17,0.06,0.17,0.15s-0.09,0.16-0.18,0.17
		l-22.02,1.14c-0.1,0-0.17-0.06-0.17-0.15C470.97,63.95,470.99,63.91,471.02,63.88z"/>
</g>
<g class="st5">
	<path class="st3" d="M502.18,45c0.05-0.05,0.13-0.07,0.19-0.04c0.08,0.03,0.12,0.12,0.08,0.2l-9.14,17.74
		c-0.04,0.08-0.14,0.12-0.23,0.09c-0.08-0.03-0.12-0.12-0.08-0.2l9.14-17.74C502.15,45.03,502.17,45.01,502.18,45z"/>
</g>
<g class="st6">
	<path class="st3" d="M487.6,34.59c0.07-0.06,0.17-0.07,0.24-0.03l14.58,10.41c0.07,0.05,0.08,0.15,0.02,0.22
		c-0.07,0.07-0.18,0.09-0.25,0.04l-14.58-10.41c-0.07-0.05-0.08-0.15-0.02-0.22C487.59,34.6,487.59,34.59,487.6,34.59z"/>
</g>
<g class="st6">
	<path class="st3" d="M506.8,25.07c0.04-0.04,0.1-0.06,0.16-0.05c0.09,0.01,0.15,0.09,0.13,0.17l-4.62,19.93
		c-0.02,0.09-0.11,0.15-0.2,0.14s-0.15-0.09-0.13-0.17l4.62-19.93C506.76,25.12,506.78,25.09,506.8,25.07z"/>
</g>
<g class="st14">
	<path class="st3" d="M494.77,24.91c0.06-0.06,0.15-0.09,0.24-0.09l11.95,0.09c0.16,0,0.28,0.12,0.26,0.27
		c-0.02,0.15-0.16,0.27-0.32,0.27l-11.95-0.09c-0.16,0-0.28-0.12-0.26-0.27C494.69,25.02,494.72,24.96,494.77,24.91z"/>
</g>
<g class="st2">
	<path class="st3" d="M487.59,34.58c0.02-0.01,0.03-0.03,0.05-0.04l19.2-9.52c0.1-0.05,0.21-0.02,0.25,0.06
		c0.04,0.08,0,0.19-0.1,0.24l-19.2,9.52c-0.1,0.05-0.21,0.02-0.25-0.06C487.51,34.71,487.53,34.63,487.59,34.58z"/>
</g>
<g class="st2">
	<path class="st3" d="M474.33,46.75c0.04-0.04,0.1-0.06,0.16-0.06c0.1,0.01,0.17,0.09,0.15,0.18l-3.33,17.11
		c-0.02,0.09-0.12,0.16-0.22,0.16c-0.1-0.01-0.17-0.09-0.15-0.18l3.33-17.11C474.29,46.81,474.31,46.78,474.33,46.75z"/>
</g>
<g class="st7">
	<path class="st3" d="M471.98,31.18c0.03-0.03,0.07-0.05,0.11-0.06c0.11-0.02,0.21,0.04,0.23,0.14l2.34,15.56
		c0.01,0.1-0.06,0.2-0.17,0.22c-0.11,0.02-0.21-0.04-0.23-0.14l-2.34-15.56C471.91,31.28,471.94,31.22,471.98,31.18z"/>
</g>
<g class="st9">
	<path class="st3" d="M457.57,40.14c0.05-0.05,0.14-0.07,0.21-0.04l16.77,6.62c0.09,0.03,0.12,0.13,0.07,0.21
		c-0.05,0.08-0.16,0.12-0.24,0.09l-16.77-6.62c-0.09-0.03-0.12-0.13-0.07-0.21C457.55,40.17,457.56,40.16,457.57,40.14z"/>
</g>
<g class="st11">
	<path class="st3" d="M474.32,46.74L474.32,46.74l13.26-12.18c0.08-0.08,0.22-0.08,0.3-0.01c0.08,0.07,0.07,0.18-0.01,0.27
		l-13.25,12.17c-0.09,0.08-0.22,0.08-0.3,0.01C474.23,46.94,474.24,46.82,474.32,46.74z"/>
</g>
<g class="st2">
	<path class="st3" d="M471.99,31.19c0.05-0.05,0.13-0.07,0.2-0.06l15.6,3.39c0.1,0.02,0.16,0.12,0.12,0.21
		c-0.03,0.1-0.14,0.15-0.25,0.13l-15.6-3.39c-0.1-0.02-0.16-0.12-0.12-0.21C471.95,31.23,471.97,31.21,471.99,31.19z"/>
</g>
<g class="st15">
	<path class="st3" d="M494.74,24.89c0.11-0.11,0.29-0.14,0.42-0.06c0.15,0.08,0.18,0.27,0.07,0.41l-7.25,9.61
		c-0.11,0.14-0.31,0.19-0.46,0.1c-0.15-0.08-0.18-0.27-0.07-0.41l7.25-9.61C494.72,24.92,494.73,24.9,494.74,24.89z"/>
</g>
<g class="st4">
	<path class="st3" d="M424.76,56.8c0.03-0.03,0.07-0.05,0.12-0.06c0.11-0.02,0.2,0.04,0.21,0.14l1.1,10.86
		c0.01,0.1-0.07,0.19-0.18,0.21s-0.2-0.04-0.21-0.14l-1.1-10.86C424.69,56.9,424.71,56.84,424.76,56.8z"/>
</g>
<g class="st5">
	<path class="st3" d="M409.48,49.45c0.05-0.05,0.12-0.06,0.18-0.03l15.31,7.38c0.07,0.03,0.09,0.11,0.05,0.18
		c-0.04,0.06-0.13,0.09-0.2,0.06l-15.31-7.38c-0.07-0.03-0.09-0.11-0.05-0.18C409.46,49.46,409.47,49.46,409.48,49.45z"/>
</g>
<g class="st7">
	<path class="st3" d="M443.97,33.75c0.06-0.06,0.17-0.08,0.25-0.05l13.58,6.38c0.09,0.04,0.12,0.15,0.07,0.25
		c-0.06,0.09-0.18,0.13-0.28,0.08l-13.58-6.38c-0.09-0.04-0.12-0.15-0.07-0.25C443.95,33.78,443.96,33.77,443.97,33.75z"/>
</g>
<g class="st5">
	<path class="st3" d="M457.39,19.78c0.03-0.03,0.07-0.05,0.11-0.05c0.09-0.01,0.17,0.05,0.17,0.14l0.19,20.37
		c0,0.08-0.07,0.16-0.17,0.17c-0.09,0.01-0.17-0.05-0.17-0.14l-0.19-20.37C457.34,19.85,457.36,19.81,457.39,19.78z"/>
</g>
<g class="st16">
	<path class="st3" d="M457.53,40.11c0.01-0.01,0.03-0.02,0.05-0.03l14.43-8.95c0.11-0.07,0.26-0.05,0.33,0.05s0.03,0.24-0.09,0.3
		l-14.43,8.95c-0.11,0.07-0.26,0.05-0.33-0.05C457.43,40.3,457.45,40.18,457.53,40.11z"/>
</g>
<g class="st5">
	<path class="st3" d="M457.39,19.78c0.07-0.06,0.17-0.07,0.24-0.02l14.62,11.42c0.07,0.05,0.07,0.15,0.01,0.22
		c-0.07,0.07-0.17,0.08-0.24,0.03L457.4,20.01C457.32,19.95,457.31,19.85,457.39,19.78C457.38,19.78,457.38,19.78,457.39,19.78z"/>
</g>
<g class="st17">
	<path class="st3" d="M462.37,8.64c0.05-0.05,0.12-0.08,0.2-0.08l13.81-0.55c0.15-0.01,0.26,0.1,0.25,0.23
		c-0.01,0.13-0.13,0.25-0.28,0.25l-13.81,0.55c-0.15,0.01-0.26-0.1-0.25-0.23C462.29,8.74,462.32,8.69,462.37,8.64z"/>
</g>
<g class="st9">
	<path class="st3" d="M457.37,19.77c0.01-0.01,0.02-0.02,0.04-0.03l18.86-11.63c0.09-0.06,0.21-0.04,0.27,0.04
		c0.05,0.08,0.02,0.19-0.07,0.25l-18.86,11.63c-0.09,0.06-0.21,0.04-0.27-0.04C457.29,19.92,457.31,19.83,457.37,19.77z"/>
</g>
<g class="st13">
	<path class="st3" d="M392.53,57.86c0.07-0.07,0.18-0.09,0.27-0.04l2.92,1.64c0.09,0.05,0.12,0.17,0.05,0.26s-0.2,0.12-0.29,0.07
		l-2.92-1.64c-0.09-0.05-0.12-0.17-0.05-0.26C392.51,57.88,392.52,57.87,392.53,57.86z"/>
</g>
<g class="st9">
	<path class="st3" d="M395.49,59.54c0.01-0.01,0.01-0.01,0.02-0.01l13.99-10.1c0.07-0.05,0.16-0.04,0.2,0.01
		c0.05,0.06,0.03,0.14-0.04,0.19l-13.99,10.1c-0.07,0.05-0.16,0.04-0.2-0.01C395.43,59.67,395.44,59.59,395.49,59.54z"/>
</g>
<g class="st5">
	<path class="st3" d="M392.58,57.9c0.01-0.01,0.02-0.02,0.04-0.03l16.9-8.45c0.07-0.04,0.16-0.01,0.19,0.05s0,0.14-0.07,0.18
		l-16.9,8.45c-0.07,0.04-0.16,0.01-0.19-0.05C392.52,58,392.53,57.94,392.58,57.9z"/>
</g>
<g class="st9">
	<path class="st3" d="M437.34,17.59c0.02-0.02,0.04-0.03,0.06-0.04c0.1-0.04,0.2,0,0.23,0.08l6.64,16.17
		c0.03,0.08-0.01,0.18-0.11,0.22c-0.1,0.04-0.2,0-0.23-0.08l-6.64-16.17C437.27,17.71,437.29,17.64,437.34,17.59z"/>
</g>
<g class="st11">
	<path class="st3" d="M457.36,19.76c0.08-0.08,0.21-0.09,0.29-0.03c0.08,0.06,0.09,0.18,0.01,0.27l-13.39,13.99
		c-0.09,0.08-0.21,0.1-0.3,0.03c-0.08-0.06-0.09-0.18-0.01-0.27L457.36,19.76L457.36,19.76z"/>
</g>
<g class="st15">
	<path class="st3" d="M462.32,8.6c0.09-0.09,0.24-0.13,0.37-0.09c0.17,0.05,0.25,0.22,0.18,0.39l-5.05,11.08
		c-0.07,0.16-0.27,0.25-0.44,0.2s-0.25-0.22-0.18-0.38l5.05-11.08C462.26,8.66,462.29,8.63,462.32,8.6z"/>
</g>
<g class="st5">
	<path class="st3" d="M382.82,48.95C382.82,48.95,382.83,48.95,382.82,48.95c0.06-0.06,0.15-0.06,0.2-0.01l9.75,8.95
		c0.05,0.05,0.04,0.12-0.01,0.18c-0.06,0.05-0.15,0.06-0.2,0.01l-9.75-8.95C382.76,49.08,382.77,49.01,382.82,48.95z"/>
</g>
<g class="st14">
	<path class="st3" d="M421.81,25.81c0.03-0.03,0.06-0.05,0.1-0.07c0.15-0.07,0.33-0.01,0.38,0.13l2.78,6.57
		c0.06,0.14-0.02,0.3-0.18,0.36c-0.15,0.07-0.33,0.01-0.38-0.13l-2.78-6.57C421.7,26,421.73,25.89,421.81,25.81z"/>
</g>
<g class="st7">
	<path class="st3" d="M437.33,17.58c0.08-0.07,0.2-0.09,0.28-0.03c0.09,0.06,0.1,0.18,0.03,0.26l-12.67,14.85
		c-0.07,0.08-0.21,0.11-0.29,0.05c-0.09-0.06-0.1-0.18-0.03-0.26l12.67-14.85C437.32,17.59,437.32,17.58,437.33,17.58z"/>
</g>
<g class="st8">
	<path class="st3" d="M374.4,49.03c0.05-0.05,0.12-0.08,0.2-0.08l8.35-0.14c0.14,0,0.24,0.1,0.23,0.23
		c-0.01,0.13-0.13,0.23-0.27,0.24l-8.35,0.14c-0.14,0-0.24-0.1-0.23-0.23C374.33,49.12,374.36,49.07,374.4,49.03z"/>
</g>
<g class="st5">
	<path class="st3" d="M403.79,28.02c0.04-0.04,0.09-0.06,0.14-0.06c0.1,0,0.17,0.07,0.15,0.16l-1.59,12.1
		c-0.01,0.09-0.1,0.16-0.2,0.16s-0.17-0.08-0.15-0.16l1.59-12.1C403.75,28.08,403.77,28.05,403.79,28.02z"/>
</g>
<g class="st6">
	<path class="st3" d="M402.2,40.12c0.01-0.01,0.01-0.01,0.02-0.02l19.7-14.24c0.08-0.06,0.2-0.05,0.25,0.02
		c0.06,0.07,0.03,0.18-0.05,0.24l-19.7,14.24c-0.08,0.06-0.2,0.05-0.25-0.02S402.13,40.18,402.2,40.12z"/>
</g>
<g class="st2">
	<path class="st3" d="M387.76,30.89c0.03-0.03,0.08-0.06,0.13-0.07l16-2.89c0.12-0.02,0.23,0.05,0.24,0.16
		c0.01,0.11-0.08,0.21-0.2,0.24l-16,2.89c-0.12,0.02-0.23-0.05-0.24-0.16C387.69,31,387.71,30.93,387.76,30.89z"/>
</g>
<g class="st6">
	<path class="st3" d="M370.28,36.46c0.07-0.07,0.18-0.08,0.25-0.03l7.36,4.57c0.08,0.05,0.1,0.16,0.03,0.24s-0.19,0.11-0.27,0.05
		l-7.36-4.57c-0.08-0.05-0.1-0.16-0.03-0.24C370.26,36.47,370.27,36.46,370.28,36.46z"/>
</g>
<g class="st4">
	<path class="st3" d="M387.74,30.87c0.1-0.09,0.25-0.11,0.34-0.03c0.1,0.08,0.1,0.22,0,0.32l-10.14,10.13
		c-0.1,0.1-0.25,0.11-0.35,0.03c-0.1-0.08-0.1-0.22,0-0.32L387.74,30.87L387.74,30.87z"/>
</g>
<g class="st11">
	<path class="st3" d="M370.24,36.42c0.03-0.03,0.07-0.05,0.11-0.07l17.5-5.55c0.13-0.04,0.27,0.02,0.3,0.14s-0.05,0.25-0.18,0.29
		l-17.5,5.55c-0.13,0.04-0.27-0.02-0.3-0.14C370.14,36.57,370.17,36.48,370.24,36.42z"/>
</g>
<path class="st3" d="M539.72,37.61c-0.34,0.33-0.89,0.37-1.21,0.09c-0.33-0.28-0.32-0.78,0.02-1.1c0.34-0.33,0.89-0.37,1.22-0.09
	C540.07,36.78,540.06,37.28,539.72,37.61z"/>
<path class="st3" d="M515.21,49.66c-0.35,0.33-0.89,0.37-1.23,0.09c-0.33-0.28-0.32-0.78,0.03-1.11c0.35-0.33,0.89-0.37,1.23-0.09
	C515.57,48.83,515.55,49.33,515.21,49.66z"/>
<path class="st3" d="M516.74,35.93c-0.35,0.33-0.9,0.37-1.24,0.09c-0.33-0.29-0.32-0.79,0.03-1.12c0.35-0.33,0.9-0.37,1.24-0.09
	C517.1,35.09,517.09,35.6,516.74,35.93z"/>
<path class="st3" d="M478.35,68.27c-0.33,0.32-0.86,0.35-1.17,0.08c-0.32-0.27-0.31-0.75,0.02-1.07c0.33-0.32,0.86-0.35,1.17-0.08
	C478.69,67.48,478.68,67.95,478.35,68.27z"/>
<path class="st3" d="M493.76,63.35c-0.35,0.33-0.89,0.37-1.23,0.09c-0.33-0.28-0.32-0.78,0.03-1.11c0.35-0.33,0.89-0.37,1.23-0.09
	C494.12,62.52,494.11,63.02,493.76,63.35z"/>
<path class="st3" d="M502.9,45.62c-0.35,0.33-0.9,0.37-1.24,0.09c-0.33-0.29-0.32-0.79,0.03-1.12s0.9-0.37,1.24-0.09
	C503.26,44.78,503.25,45.28,502.9,45.62z"/>
<path class="st3" d="M507.54,25.7c-0.35,0.34-0.92,0.38-1.26,0.09s-0.33-0.8,0.03-1.14c0.35-0.34,0.92-0.38,1.26-0.09
	C507.9,24.85,507.89,25.36,507.54,25.7z"/>
<path class="st3" d="M471.72,64.48c-0.34,0.32-0.87,0.36-1.19,0.08c-0.32-0.28-0.31-0.76,0.02-1.08c0.34-0.32,0.87-0.36,1.19-0.08
	C472.07,63.67,472.06,64.16,471.72,64.48z"/>
<path class="st3" d="M475.06,47.38c-0.35,0.33-0.89,0.37-1.23,0.09c-0.33-0.28-0.32-0.78,0.03-1.11c0.35-0.33,0.89-0.37,1.23-0.09
	C475.42,46.55,475.41,47.05,475.06,47.38z"/>
<path class="st3" d="M488.32,35.21c-0.35,0.33-0.9,0.37-1.24,0.09c-0.33-0.29-0.32-0.79,0.03-1.12s0.9-0.37,1.24-0.09
	C488.68,34.37,488.67,34.88,488.32,35.21z"/>
<path class="st3" d="M495.59,25.61c-0.35,0.34-0.92,0.38-1.26,0.09s-0.33-0.8,0.03-1.14c0.35-0.34,0.92-0.38,1.26-0.09
	C495.95,24.76,495.94,25.27,495.59,25.61z"/>
<path class="st3" d="M426.53,68.23c-0.31,0.29-0.79,0.33-1.09,0.08c-0.29-0.25-0.28-0.69,0.02-0.99c0.31-0.29,0.79-0.33,1.09-0.08
	C426.84,67.49,426.83,67.94,426.53,68.23z"/>
<path class="st3" d="M425.42,57.37c-0.3,0.29-0.79,0.33-1.08,0.08c-0.29-0.25-0.28-0.69,0.02-0.98s0.79-0.33,1.08-0.08
	C425.73,56.64,425.72,57.08,425.42,57.37z"/>
<path class="st3" d="M458.3,40.76c-0.35,0.33-0.89,0.37-1.23,0.09s-0.32-0.78,0.03-1.11s0.89-0.37,1.23-0.09
	S458.64,40.43,458.3,40.76z"/>
<path class="st3" d="M472.73,31.82c-0.35,0.34-0.91,0.38-1.25,0.09c-0.34-0.29-0.33-0.8,0.03-1.13c0.35-0.34,0.91-0.38,1.25-0.09
	S473.08,31.49,472.73,31.82z"/>
<path class="st3" d="M476.99,8.79c-0.36,0.35-0.94,0.39-1.29,0.09c-0.35-0.3-0.34-0.82,0.03-1.17c0.36-0.35,0.94-0.39,1.29-0.09
	C477.37,7.91,477.36,8.44,476.99,8.79z"/>
<path class="st3" d="M396.08,60.05c-0.28,0.27-0.73,0.3-1,0.07s-0.26-0.64,0.02-0.91s0.73-0.3,1-0.07
	C396.38,59.37,396.37,59.78,396.08,60.05z"/>
<path class="st3" d="M410.1,49.98c-0.3,0.29-0.77,0.32-1.06,0.07c-0.29-0.24-0.28-0.67,0.02-0.96c0.3-0.29,0.77-0.32,1.06-0.07
	C410.4,49.26,410.39,49.69,410.1,49.98z"/>
<path class="st3" d="M444.72,34.4c-0.35,0.34-0.91,0.38-1.25,0.09s-0.33-0.8,0.03-1.13c0.35-0.34,0.91-0.38,1.25-0.09
	C445.09,33.55,445.08,34.06,444.72,34.4z"/>
<path class="st3" d="M458.13,20.41c-0.36,0.34-0.92,0.38-1.27,0.09c-0.34-0.29-0.33-0.81,0.03-1.15s0.92-0.38,1.27-0.09
	C458.49,19.55,458.48,20.07,458.13,20.41z"/>
<path class="st3" d="M463.19,9.34c-0.37,0.35-0.95,0.39-1.3,0.09c-0.35-0.3-0.34-0.83,0.03-1.18c0.37-0.35,0.95-0.39,1.3-0.09
	C463.56,8.46,463.55,8.99,463.19,9.34z"/>
<path class="st3" d="M393.19,58.43c-0.29,0.28-0.76,0.32-1.05,0.07c-0.28-0.24-0.27-0.67,0.02-0.95s0.76-0.32,1.05-0.07
	C393.49,57.72,393.48,58.14,393.19,58.43z"/>
<path class="st3" d="M425.43,33.08c-0.36,0.34-0.92,0.38-1.27,0.09c-0.34-0.29-0.33-0.81,0.03-1.15c0.36-0.34,0.92-0.38,1.27-0.09
	C425.79,32.22,425.78,32.74,425.43,33.08z"/>
<path class="st3" d="M438.1,18.24c-0.36,0.35-0.94,0.39-1.29,0.09s-0.34-0.82,0.03-1.17c0.36-0.35,0.94-0.39,1.29-0.09
	S438.47,17.89,438.1,18.24z"/>
<path class="st3" d="M383.46,49.5c-0.31,0.3-0.81,0.33-1.11,0.08c-0.3-0.26-0.29-0.71,0.02-1.01s0.81-0.34,1.11-0.08
	C383.79,48.75,383.78,49.2,383.46,49.5z"/>
<path class="st3" d="M402.94,40.76c-0.36,0.34-0.92,0.38-1.27,0.09c-0.34-0.29-0.33-0.81,0.03-1.15s0.92-0.38,1.27-0.09
	C403.31,39.9,403.3,40.41,402.94,40.76z"/>
<path class="st3" d="M422.67,26.54c-0.38,0.36-0.97,0.4-1.33,0.09s-0.35-0.85,0.03-1.21c0.38-0.36,0.97-0.4,1.33-0.09
	C423.06,25.64,423.05,26.18,422.67,26.54z"/>
<path class="st3" d="M375.13,49.65c-0.32,0.31-0.83,0.34-1.14,0.08c-0.31-0.26-0.3-0.73,0.02-1.04c0.32-0.31,0.83-0.34,1.14-0.08
	C375.47,48.88,375.46,49.35,375.13,49.65z"/>
<path class="st3" d="M404.6,28.71c-0.4,0.38-1.03,0.42-1.41,0.1c-0.38-0.33-0.37-0.9,0.03-1.28s1.03-0.42,1.41-0.1
	C405.01,27.76,405,28.33,404.6,28.71z"/>
<path class="st3" d="M378.43,41.71c-0.38,0.37-0.99,0.41-1.35,0.1c-0.37-0.31-0.35-0.86,0.03-1.23s0.99-0.41,1.35-0.1
	C378.82,40.8,378.81,41.35,378.43,41.71z"/>
<path class="st3" d="M388.63,31.63c-0.41,0.4-1.07,0.44-1.47,0.1c-0.4-0.34-0.38-0.94,0.03-1.33c0.41-0.4,1.07-0.44,1.47-0.1
	S389.05,31.24,388.63,31.63z"/>
<path class="st3" d="M371.14,37.2c-0.42,0.41-1.09,0.45-1.5,0.11c-0.41-0.35-0.39-0.96,0.03-1.36c0.42-0.41,1.09-0.45,1.5-0.11
	C371.58,36.18,371.57,36.79,371.14,37.2z"/>
<g>
	<g class="st11">
		<path class="st3" d="M177.22,5.42c-0.01,0-0.02,0-0.03,0l-33.58,0.62c-0.12,0-0.23-0.08-0.24-0.19s0.08-0.2,0.21-0.2l33.58-0.62
			c0.12,0,0.23,0.08,0.24,0.19C177.4,5.32,177.32,5.41,177.22,5.42z"/>
	</g>
	<g class="st11">
		<path class="st3" d="M153.16,6.83c-0.02,0-0.04,0-0.06,0l-9.53-0.79c-0.12-0.01-0.21-0.1-0.21-0.21c0-0.11,0.11-0.19,0.23-0.18
			l9.53,0.79c0.12,0.01,0.21,0.1,0.21,0.21C153.33,6.74,153.26,6.81,153.16,6.83z"/>
	</g>
	<g class="st2">
		<path class="st3" d="M165.92,21.41c-0.08,0.01-0.17-0.02-0.23-0.08L152.94,6.76c-0.08-0.09-0.07-0.22,0.03-0.29
			c0.1-0.07,0.25-0.05,0.33,0.05l12.75,14.57c0.08,0.09,0.07,0.22-0.03,0.29C165.99,21.39,165.95,21.41,165.92,21.41z"/>
	</g>
	<g class="st13">
		<path class="st3" d="M181.92,6.32c-0.01,0-0.03,0-0.04,0l-28.74,0.6c-0.18,0-0.33-0.12-0.34-0.28c-0.01-0.16,0.12-0.29,0.29-0.29
			l28.74-0.6c0.18,0,0.33,0.12,0.34,0.28C182.19,6.17,182.08,6.3,181.92,6.32z"/>
	</g>
	<g class="st9">
		<path class="st3" d="M177.22,5.42c-0.01,0-0.01,0-0.02,0l-24.05,1.41c-0.12,0.01-0.23-0.08-0.25-0.19
			c-0.01-0.11,0.07-0.21,0.19-0.21l24.05-1.41c0.12-0.01,0.23,0.08,0.25,0.19C177.4,5.32,177.33,5.41,177.22,5.42z"/>
	</g>
	<g class="st9">
		<path class="st3" d="M206.22,19.54c-0.05,0.01-0.1,0-0.15-0.02l-29-14.12c-0.11-0.05-0.16-0.18-0.1-0.27
			c0.05-0.1,0.19-0.13,0.3-0.08l29,14.12c0.11,0.05,0.16,0.18,0.1,0.27C206.34,19.5,206.28,19.53,206.22,19.54z"/>
	</g>
	<g class="st8">
		<path class="st3" d="M181.93,6.34c-0.04,0.01-0.08,0.01-0.12,0l-4.69-0.81c-0.19-0.03-0.32-0.2-0.3-0.36
			c0.03-0.17,0.2-0.28,0.39-0.24l4.69,0.81c0.19,0.03,0.32,0.2,0.3,0.36C182.18,6.23,182.07,6.32,181.93,6.34z"/>
	</g>
	<g class="st9">
		<path class="st3" d="M165.92,21.42c-0.07,0.01-0.15-0.01-0.21-0.06c-0.1-0.08-0.11-0.22-0.02-0.3l15.99-15.17
			c0.09-0.08,0.24-0.08,0.34,0c0.1,0.08,0.11,0.22,0.02,0.3l-15.99,15.17C166.01,21.39,165.97,21.41,165.92,21.42z"/>
	</g>
	<g class="st11">
		<path class="st3" d="M183.45,38.66c-0.09,0.01-0.2-0.02-0.27-0.08l-17.52-17.2c-0.11-0.11-0.1-0.27,0.01-0.36
			c0.11-0.09,0.29-0.08,0.4,0.03l17.52,17.2c0.11,0.11,0.1,0.27-0.01,0.36C183.55,38.63,183.5,38.65,183.45,38.66z"/>
	</g>
	<g class="st5">
		<path class="st3" d="M137.84,38.46c-0.08,0.01-0.17-0.02-0.22-0.08c-0.07-0.09-0.05-0.2,0.05-0.26l28.07-17.07
			c0.1-0.06,0.23-0.03,0.3,0.05c0.07,0.09,0.05,0.2-0.05,0.26l-28.07,17.07C137.9,38.44,137.87,38.45,137.84,38.46z"/>
	</g>
	<g class="st6">
		<path class="st3" d="M161,58.77c-0.07,0.01-0.14-0.01-0.2-0.06L137.65,38.4c-0.09-0.08-0.09-0.2-0.01-0.28s0.22-0.07,0.31,0
			l23.15,20.31c0.09,0.08,0.09,0.2,0.01,0.28C161.08,58.75,161.04,58.77,161,58.77z"/>
	</g>
	<g class="st9">
		<path class="st3" d="M210.38,34.43c-0.13,0.02-0.25-0.06-0.28-0.17l-4.16-14.88c-0.03-0.12,0.05-0.23,0.17-0.25
			s0.26,0.05,0.29,0.17l4.16,14.88C210.59,34.3,210.51,34.41,210.38,34.43L210.38,34.43z"/>
	</g>
	<g class="st4">
		<path class="st3" d="M183.46,38.68c-0.17,0.03-0.34-0.08-0.37-0.23c-0.04-0.15,0.07-0.3,0.24-0.32l26.94-4.19
			c0.19-0.02,0.34,0.08,0.38,0.23c0.04,0.15-0.07,0.3-0.24,0.32L183.46,38.68L183.46,38.68z"/>
	</g>
	<g class="st16">
		<path class="st3" d="M191.54,71.41c-0.06,0.01-0.13,0-0.2-0.02l-30.52-12.54c-0.17-0.07-0.25-0.25-0.18-0.4s0.26-0.21,0.43-0.14
			l30.52,12.54c0.17,0.07,0.25,0.25,0.18,0.4C191.74,71.33,191.64,71.39,191.54,71.41z"/>
	</g>
	<path class="st3" d="M143.39,5.03c0.5-0.07,0.99,0.23,1.1,0.68s-0.21,0.87-0.7,0.95s-0.99-0.23-1.1-0.68S142.89,5.11,143.39,5.03z"
		/>
	<path class="st3" d="M152.89,5.71c0.57-0.08,1.13,0.26,1.25,0.77s-0.23,0.99-0.8,1.08c-0.57,0.08-1.13-0.26-1.25-0.77
		C151.96,6.27,152.32,5.79,152.89,5.71z"/>
	<path class="st3" d="M176.94,4.29c0.57-0.08,1.14,0.26,1.26,0.78c0.13,0.52-0.24,1-0.81,1.09c-0.57,0.08-1.14-0.26-1.26-0.78
		C176.01,4.87,176.37,4.38,176.94,4.29z"/>
	<path class="st3" d="M181.61,5.02c0.62-0.09,1.24,0.29,1.37,0.85c0.14,0.56-0.26,1.09-0.88,1.18c-0.62,0.09-1.24-0.29-1.37-0.85
		C180.59,5.64,180.99,5.12,181.61,5.02z"/>
	<path class="st3" d="M165.62,20.18c0.63-0.09,1.25,0.29,1.39,0.86s-0.26,1.1-0.89,1.19s-1.25-0.29-1.39-0.86
		C164.59,20.81,164.99,20.27,165.62,20.18z"/>
	<path class="st3" d="M137.57,37.33c0.58-0.09,1.15,0.27,1.28,0.79c0.13,0.52-0.24,1.01-0.82,1.1s-1.15-0.27-1.28-0.79
		C136.62,37.91,136.99,37.41,137.57,37.33z"/>
	<path class="st3" d="M205.92,18.34c0.62-0.09,1.23,0.28,1.36,0.84c0.14,0.56-0.25,1.08-0.87,1.17c-0.62,0.09-1.23-0.28-1.36-0.84
		C204.91,18.96,205.31,18.43,205.92,18.34z"/>
	<path class="st3" d="M183.13,37.34c0.65-0.1,1.3,0.3,1.44,0.89s-0.27,1.14-0.92,1.24c-0.65,0.1-1.3-0.3-1.44-0.89
		C182.06,37.99,182.48,37.44,183.13,37.34z"/>
	<path class="st3" d="M160.7,57.55c0.63-0.09,1.26,0.29,1.4,0.86s-0.26,1.11-0.89,1.2s-1.26-0.29-1.4-0.86
		C159.66,58.18,160.06,57.64,160.7,57.55z"/>
	<path class="st3" d="M191.19,69.98c0.7-0.1,1.39,0.32,1.54,0.95c0.15,0.63-0.29,1.22-0.99,1.33s-1.39-0.32-1.54-0.95
		S190.49,70.08,191.19,69.98z"/>
</g>
<g class="st4">
	<path class="st3" d="M162.37,49.88c0.1-0.05,0.23-0.04,0.33,0.02l16.69,10.68c0.17,0.11,0.22,0.34,0.12,0.51
		c-0.1,0.18-0.32,0.23-0.49,0.12l-16.69-10.68c-0.17-0.11-0.22-0.34-0.12-0.51C162.25,49.96,162.31,49.91,162.37,49.88z"/>
</g>
<g class="st6">
	<path class="st3" d="M122.13,70.02c0.02-0.01,0.04-0.02,0.07-0.02l56.96-9.39c0.15-0.03,0.3,0.08,0.32,0.24s-0.08,0.31-0.23,0.34
		l-56.96,9.39c-0.15,0.03-0.3-0.08-0.32-0.24C121.94,70.2,122.01,70.07,122.13,70.02z"/>
</g>
<g class="st13">
	<path class="st3" d="M133.55,52.51c0.06-0.03,0.12-0.04,0.18-0.04l38.3-2.2c0.29-0.02,0.55,0.22,0.56,0.52
		c0.02,0.31-0.21,0.57-0.5,0.58l-38.3,2.2c-0.29,0.02-0.55-0.22-0.56-0.52C133.21,52.82,133.35,52.6,133.55,52.51z"/>
</g>
<g class="st10">
	<path class="st3" d="M146.21,42.08c0.1-0.04,0.21-0.05,0.32-0.02l25.67,8.3c0.24,0.08,0.38,0.35,0.31,0.6
		c-0.08,0.25-0.34,0.4-0.58,0.32l-25.67-8.3c-0.24-0.08-0.38-0.35-0.31-0.6C145.99,42.24,146.09,42.13,146.21,42.08z"/>
</g>
<g class="st12">
	<path class="st3" d="M171.8,50.2c0.26-0.12,0.57-0.04,0.76,0.2l5.86,7.6c0.22,0.29,0.18,0.71-0.1,0.95
		c-0.28,0.23-0.69,0.19-0.91-0.1l-5.86-7.6c-0.22-0.29-0.18-0.71,0.1-0.95C171.7,50.26,171.75,50.23,171.8,50.2z"/>
</g>
<g class="st10">
	<path class="st3" d="M133.56,52.55c0.08-0.03,0.16-0.05,0.25-0.04l44.16,5.4c0.27,0.03,0.46,0.29,0.43,0.57s-0.28,0.48-0.54,0.45
		l-44.16-5.4c-0.27-0.03-0.46-0.29-0.43-0.57C133.29,52.78,133.41,52.62,133.56,52.55z"/>
</g>
<g class="st18">
	<path class="st3" d="M162.37,49.89c0.17-0.08,0.37,0,0.45,0.18s0.01,0.4-0.16,0.49l-40.27,20.07c-0.17,0.09-0.38,0.01-0.47-0.17
		s-0.01-0.4,0.16-0.49l40.27-20.07C162.37,49.89,162.37,49.89,162.37,49.89z"/>
</g>
<g class="st9">
	<path class="st3" d="M165.83,37.07c0.06-0.03,0.13-0.03,0.2-0.01c0.16,0.05,0.25,0.22,0.21,0.39l-3.43,12.86
		c-0.04,0.17-0.21,0.26-0.37,0.22c-0.16-0.05-0.25-0.22-0.21-0.39l3.43-12.86C165.68,37.18,165.75,37.11,165.83,37.07z"/>
</g>
<g class="st7">
	<path class="st3" d="M146.23,42.14c0.16-0.07,0.35-0.03,0.47,0.12c0.14,0.18,0.11,0.44-0.06,0.58l-12.63,10.5
		c-0.17,0.14-0.42,0.11-0.56-0.06c-0.14-0.18-0.11-0.44,0.06-0.58l12.63-10.5C146.17,42.18,146.2,42.16,146.23,42.14z"/>
</g>
<g class="st9">
	<path class="st3" d="M101,22.16c0.14-0.06,0.32-0.04,0.44,0.08l32.59,30.47c0.17,0.16,0.18,0.43,0.03,0.61
		c-0.15,0.18-0.42,0.19-0.59,0.03l-32.59-30.47c-0.17-0.16-0.18-0.43-0.03-0.61C100.9,22.22,100.95,22.18,101,22.16z"/>
</g>
<g class="st7">
	<path class="st3" d="M107.97,44.67c-0.11,0.03-0.24,0.03-0.36-0.01L44.56,24.27c-0.24-0.08-0.35-0.28-0.25-0.45
		s0.37-0.25,0.61-0.18l63.05,20.39c0.24,0.08,0.35,0.28,0.25,0.45C108.17,44.58,108.08,44.64,107.97,44.67z"/>
</g>
<g class="st6">
	<path class="st3" d="M99.57,23.43c-0.04,0.01-0.09,0.02-0.14,0.02l-54.68,0.81c-0.22,0-0.41-0.13-0.42-0.29s0.17-0.3,0.39-0.3
		l54.68-0.81c0.22,0,0.41,0.13,0.42,0.29C99.83,23.27,99.73,23.39,99.57,23.43z"/>
</g>
<g class="st18">
	<path class="st3" d="M79.68,60.92c-0.16,0.04-0.34,0.04-0.49-0.03L32.3,39.58c-0.26-0.12-0.35-0.37-0.19-0.56
		c0.16-0.19,0.5-0.25,0.76-0.13L79.76,60.2c0.26,0.12,0.35,0.37,0.19,0.56C79.88,60.83,79.79,60.89,79.68,60.92z"/>
</g>
<g class="st2">
	<path class="st3" d="M-0.74,68.91c-0.01-0.03-0.02-0.07-0.01-0.1L16.52,9.32c0.04-0.13,0.26-0.18,0.49-0.11s0.39,0.22,0.36,0.35
		L0.1,69.05c-0.04,0.13-0.26,0.18-0.49,0.11C-0.56,69.1-0.7,69.01-0.74,68.91z"/>
</g>
<g class="st7">
	<path class="st3" d="M99.6,23.47c-0.19,0.06-0.42,0.01-0.55-0.12c-0.15-0.16-0.11-0.37,0.1-0.48l44.44-23.56
		c0.21-0.11,0.5-0.07,0.65,0.08c0.15,0.16,0.11,0.37-0.1,0.48L99.7,23.43C99.67,23.45,99.63,23.46,99.6,23.47z"/>
</g>
<g class="st4">
	<path class="st3" d="M536.38,36.9c-0.28,0.01-0.6,0.02-0.92,0.01L101.1,23.6c-1.25-0.04-2.24-0.25-2.22-0.46
		c0.02-0.22,1.05-0.36,2.3-0.33l434.36,13.31c1.25,0.04,2.24,0.25,2.22,0.46C537.74,36.75,537.18,36.87,536.38,36.9z"/>
</g>
<g class="st2">
	<path class="st3" d="M107.97,44.68c-0.02,0.01-0.04,0.01-0.07,0.01l-43.18,7.38c-0.26,0.04-0.52-0.08-0.59-0.27
		c-0.06-0.19,0.09-0.38,0.35-0.43l43.18-7.38c0.26-0.04,0.52,0.08,0.59,0.27S108.2,44.62,107.97,44.68z"/>
</g>
<g class="st2">
	<path class="st3" d="M130.98,74.08c-0.11,0.03-0.24,0.03-0.37-0.01L64.42,52.04c-0.24-0.08-0.35-0.29-0.24-0.46
		c0.1-0.17,0.38-0.25,0.62-0.17l66.19,22.03c0.24,0.08,0.35,0.29,0.25,0.46C131.18,73.99,131.09,74.05,130.98,74.08z"/>
</g>
<polygon class="st19" points="32.23,39.43 33.16,39.19 111.84,0.24 107.17,2.33 "/>
<g class="st18">
	<path class="st3" d="M327.76,18.9c-0.01,0.01-0.03,0.01-0.04,0.02l-23.89,6.75c-0.13,0.04-0.27-0.04-0.3-0.18
		c-0.04-0.14,0.04-0.28,0.17-0.32l23.89-6.75c0.13-0.04,0.27,0.04,0.3,0.18C327.93,18.73,327.87,18.85,327.76,18.9z"/>
</g>
<g class="st18">
	<path class="st3" d="M359.75,4.11C359.75,4.11,359.74,4.11,359.75,4.11l-31.99,14.81c-0.13,0.06-0.29,0-0.35-0.14
		s0.01-0.3,0.13-0.36l31.98-14.81c0.13-0.06,0.29,0,0.35,0.14C359.93,3.89,359.88,4.05,359.75,4.11z"/>
</g>
<g class="st10">
	<path class="st3" d="M332.04,36.84c-0.01,0-0.01,0.01-0.02,0.01l-25.77,10.94c-0.15,0.06-0.31-0.01-0.37-0.16
		c-0.06-0.15,0.02-0.33,0.16-0.39l25.77-10.94c0.15-0.06,0.31,0.01,0.37,0.16C332.24,36.61,332.17,36.77,332.04,36.84z"/>
</g>
<g class="st16">
	<path class="st3" d="M289.26,62.21c-0.12,0.06-0.26,0.03-0.35-0.08c-0.1-0.13-0.08-0.31,0.04-0.42l17.01-14.44
		c0.12-0.1,0.3-0.08,0.4,0.04c0.1,0.13,0.08,0.31-0.04,0.42l-17.01,14.44C289.3,62.19,289.28,62.2,289.26,62.21z"/>
</g>
<g class="st11">
	<path class="st3" d="M285.73,71.88c-0.13,0.07-0.29,0.01-0.36-0.12c-0.07-0.14-0.03-0.32,0.11-0.39l32.71-18.86
		c0.12-0.08,0.3-0.03,0.38,0.11c0.07,0.14,0.03,0.32-0.11,0.39l-32.71,18.86C285.74,71.88,285.73,71.88,285.73,71.88z"/>
</g>
<g class="st4">
	<path class="st3" d="M332.8,41.26c-0.02,0.01-0.05,0.02-0.08,0.03c-0.16,0.03-0.31-0.08-0.34-0.25l-0.76-4.41
		c-0.03-0.17,0.08-0.32,0.24-0.35c0.16-0.03,0.31,0.08,0.34,0.25l0.76,4.41C332.98,41.07,332.91,41.2,332.8,41.26z"/>
</g>
<g class="st2">
	<path class="st3" d="M360.39,31.17c-0.01,0-0.02,0.01-0.03,0.01l-27.61,10.05c-0.14,0.05-0.29-0.03-0.34-0.17
		c-0.05-0.14,0.03-0.3,0.16-0.35l27.61-10.05c0.14-0.05,0.29,0.03,0.34,0.17C360.57,30.97,360.51,31.12,360.39,31.17z"/>
</g>
<g class="st5">
	<path class="st3" d="M380.41,20.49c0,0-0.01,0-0.01,0.01l-47.64,20.71c-0.12,0.05-0.25-0.01-0.3-0.13s0.01-0.25,0.12-0.31
		l47.64-20.71c0.12-0.05,0.25,0.01,0.3,0.13C380.57,20.3,380.52,20.43,380.41,20.49z"/>
</g>
<g class="st7">
	<path class="st3" d="M336.84,43.19c-0.07,0.03-0.15,0.04-0.23,0l-4.06-1.95c-0.14-0.07-0.19-0.23-0.13-0.37s0.22-0.2,0.36-0.14
		l4.06,1.95c0.14,0.07,0.19,0.23,0.13,0.37C336.94,43.11,336.9,43.16,336.84,43.19z"/>
</g>
<g class="st12">
	<path class="st3" d="M336.92,43.35c-0.22,0.11-0.49,0.01-0.6-0.22c-0.11-0.23-0.02-0.51,0.2-0.62l23.55-12l0,0
		c0.22-0.11,0.49-0.01,0.6,0.22c0.11,0.23,0.02,0.51-0.2,0.63L336.92,43.35L336.92,43.35z"/>
</g>
<g class="st11">
	<path class="st3" d="M318.44,53.04c-0.14,0.07-0.32,0.01-0.39-0.14c-0.08-0.15-0.02-0.34,0.13-0.42l18.41-9.83
		c0.13-0.1,0.32-0.02,0.4,0.13s0.02,0.34-0.13,0.42L318.44,53.04C318.45,53.04,318.44,53.04,318.44,53.04z"/>
</g>
<g class="st2">
	<path class="st3" d="M318.44,53.03L318.44,53.03l-2.27,1.11c-0.14,0.07-0.31,0.01-0.38-0.14s-0.01-0.32,0.13-0.39l0,0l2.27-1.11
		c0.14-0.07,0.31-0.01,0.38,0.14C318.64,52.78,318.58,52.96,318.44,53.03z"/>
</g>
<g class="st2">
	<path class="st3" d="M318.43,53.03c-0.13,0.07-0.29,0.01-0.37-0.12c-0.08-0.14-0.03-0.32,0.11-0.4l41.05-23.75
		c0.13-0.08,0.31-0.03,0.38,0.11c0.08,0.14,0.03,0.32-0.11,0.4l-41.05,23.75C318.44,53.02,318.44,53.02,318.43,53.03z"/>
</g>
<g class="st18">
	<path class="st3" d="M316.2,54.19c-0.14,0.07-0.3,0.04-0.41-0.09c-0.12-0.15-0.11-0.37,0.03-0.5l7.51-6.79
		c0.14-0.13,0.36-0.11,0.48,0.04c0.12,0.15,0.11,0.37-0.03,0.5l-7.51,6.79C316.25,54.16,316.22,54.18,316.2,54.19z"/>
</g>
<g class="st6">
	<path class="st3" d="M316.17,54.13c-0.13,0.06-0.28,0.02-0.36-0.11c-0.08-0.14-0.04-0.31,0.1-0.4l51.29-31.78
		c0.13-0.08,0.3-0.04,0.38,0.1c0.08,0.14,0.04,0.31-0.1,0.4l-51.29,31.78C316.18,54.12,316.18,54.13,316.17,54.13z"/>
</g>
<g class="st5">
	<path class="st3" d="M316.16,54.12c-0.13,0.06-0.28,0.01-0.35-0.12s-0.02-0.3,0.1-0.38l43.32-24.86c0.14-0.07,0.29-0.02,0.36,0.11
		c0.07,0.13,0.02,0.3-0.1,0.38l-43.32,24.86C316.17,54.11,316.17,54.12,316.16,54.12z"/>
</g>
<g class="st7">
	<path class="st3" d="M366.14,43.34c-0.03,0.02-0.07,0.03-0.11,0.03l-42.43,4.05c-0.18,0.02-0.35-0.12-0.37-0.32
		c-0.02-0.19,0.12-0.36,0.3-0.38l42.43-4.05c0.18-0.02,0.35,0.12,0.37,0.32C366.34,43.14,366.26,43.28,366.14,43.34z"/>
</g>
<g class="st18">
	<path class="st3" d="M360.42,31.23c-0.16,0.08-0.35,0.01-0.43-0.15c-0.08-0.17-0.02-0.37,0.14-0.45l20.03-10.66
		c0.14-0.08,0.35-0.02,0.44,0.15c0.08,0.17,0.02,0.37-0.14,0.45L360.42,31.23L360.42,31.23z"/>
</g>
<g class="st20">
	<path class="st3" d="M359.59,29.49c-0.21,0.1-0.46,0.05-0.62-0.14c-0.18-0.23-0.15-0.56,0.06-0.75l7.97-6.93
		c0.22-0.19,0.54-0.16,0.72,0.07s0.15,0.56-0.06,0.75l-7.97,6.93C359.66,29.45,359.62,29.47,359.59,29.49z"/>
</g>
<g class="st16">
	<path class="st3" d="M377.85,61.38c-0.2,0.1-0.45,0.04-0.58-0.16L365.6,43.3c-0.14-0.22-0.09-0.52,0.12-0.67
		c0.21-0.15,0.5-0.09,0.64,0.13l11.67,17.92c0.14,0.22,0.09,0.52-0.12,0.67C377.89,61.36,377.87,61.37,377.85,61.38z"/>
</g>
<path class="st3" d="M303.33,24.49c0.5-0.25,1.09-0.03,1.33,0.49s0.03,1.14-0.46,1.38c-0.5,0.25-1.09,0.03-1.33-0.49
	S302.84,24.73,303.33,24.49z"/>
<path class="st3" d="M327.19,17.67c0.53-0.26,1.17-0.03,1.42,0.52c0.26,0.55,0.03,1.21-0.5,1.48c-0.53,0.26-1.17,0.03-1.42-0.52
	C326.44,18.6,326.66,17.94,327.19,17.67z"/>
<path class="st3" d="M305.69,46.53c0.52-0.26,1.14-0.03,1.39,0.51c0.25,0.54,0.03,1.19-0.48,1.45c-0.52,0.26-1.14,0.03-1.39-0.51
	C304.95,47.44,305.17,46.79,305.69,46.53z"/>
<path class="st3" d="M293.23,63.46c0.55-0.27,1.21-0.03,1.47,0.54c0.27,0.57,0.04,1.26-0.51,1.53c-0.55,0.27-1.21,0.03-1.47-0.54
	S292.68,63.74,293.23,63.46z"/>
<path class="st3" d="M359.14,2.79c0.57-0.28,1.25-0.03,1.53,0.56c0.27,0.59,0.04,1.3-0.53,1.59c-0.57,0.28-1.25,0.03-1.53-0.56
	C358.33,3.78,358.57,3.08,359.14,2.79z"/>
<path class="st3" d="M331.43,35.52c0.56-0.28,1.23-0.03,1.5,0.55s0.04,1.28-0.52,1.55c-0.56,0.28-1.23,0.03-1.5-0.55
	C330.64,36.5,330.87,35.8,331.43,35.52z"/>
<path class="st3" d="M332.16,39.88c0.58-0.29,1.28-0.04,1.57,0.57c0.28,0.61,0.04,1.34-0.54,1.63c-0.58,0.29-1.28,0.04-1.57-0.57
	C331.33,40.9,331.58,40.17,332.16,39.88z"/>
<path class="st3" d="M336.18,41.75c0.62-0.31,1.38-0.04,1.68,0.61c0.3,0.65,0.04,1.43-0.58,1.74s-1.38,0.04-1.68-0.61
	C335.29,42.85,335.55,42.07,336.18,41.75z"/>
<path class="st3" d="M317.76,51.57c0.63-0.32,1.39-0.04,1.7,0.62s0.04,1.45-0.59,1.77s-1.39,0.04-1.7-0.62
	C316.86,52.68,317.13,51.89,317.76,51.57z"/>
<ellipse transform="matrix(0.9991 -0.0426 0.0426 0.9991 -2.0086 13.5132)" class="st3" cx="316.07" cy="53.89" rx="1.36" ry="1.42"/>
<path class="st3" d="M322.91,45.68c0.74-0.37,1.63-0.04,1.99,0.73c0.36,0.77,0.05,1.7-0.69,2.07s-1.63,0.04-1.99-0.73
	C321.86,46.98,322.17,46.05,322.91,45.68z"/>
<path class="st3" d="M359.71,29.7c0.65-0.33,1.43-0.04,1.75,0.64s0.04,1.49-0.61,1.82c-0.65,0.33-1.43,0.04-1.75-0.64
	C358.78,30.84,359.06,30.03,359.71,29.7z"/>
<path class="st3" d="M358.73,27.65c0.72-0.36,1.58-0.04,1.93,0.71s0.05,1.65-0.67,2.01s-1.58,0.04-1.93-0.71
	S358.01,28.01,358.73,27.65z"/>
<path class="st3" d="M366.66,20.63c0.77-0.38,1.69-0.05,2.06,0.75s0.05,1.76-0.72,2.15s-1.69,0.05-2.06-0.75
	C365.57,21.98,365.89,21.02,366.66,20.63z"/>
<path class="st3" d="M365.27,41.47c0.83-0.41,1.82-0.05,2.22,0.81s0.05,1.89-0.77,2.3c-0.83,0.41-1.82,0.05-2.22-0.81
	S364.44,41.88,365.27,41.47z"/>
<path class="st3" d="M376.9,59.33c0.86-0.43,1.89-0.05,2.31,0.84c0.42,0.9,0.06,1.97-0.8,2.4c-0.86,0.43-1.89,0.05-2.31-0.84
	C375.68,60.83,376.04,59.75,376.9,59.33z"/>
</svg>
