<?xml version="1.0" encoding="utf-8"?>
<!-- Generator: Adobe Illustrator 25.2.1, SVG Export Plug-In . SVG Version: 6.00 Build 0)  -->
<svg version="1.1" id="Layer_1" xmlns="http://www.w3.org/2000/svg" xmlns:xlink="http://www.w3.org/1999/xlink" x="0px" y="0px"
	 viewBox="0 0 584.76 74.12" style="enable-background:new 0 0 584.76 74.12;" xml:space="preserve">
<style type="text/css">
	.st0{fill:#FFFFFF;}
	.st1{opacity:0.39;}
	.st2{fill:#231F20;}
	.st3{opacity:0.4;}
	.st4{opacity:0.44;}
	.st5{opacity:0.37;}
	.st6{opacity:0.32;}
	.st7{opacity:0.41;}
	.st8{opacity:0.43;}
	.st9{opacity:0.48;}
	.st10{opacity:0.36;}
	.st11{opacity:0.34;}
	.st12{opacity:0.5;fill:#231F20;enable-background:new    ;}
	.st13{opacity:0.38;}
	.st14{opacity:0.35;}
	.st15{opacity:0.33;}
	.st16{opacity:0.47;}
	.st17{opacity:0.45;}
	.st18{opacity:0.1759;fill:#231F20;enable-background:new    ;}
	.st19{opacity:0.1923;fill:#231F20;enable-background:new    ;}
	.st20{opacity:0.0479;fill:#231F20;enable-background:new    ;}
	.st21{opacity:0.2756;fill:#231F20;enable-background:new    ;}
</style>
<rect x="0.89" y="-1.15" class="st0" width="583.87" height="73.65"/>
<g class="st1">
	<path class="st2" d="M379.6,49.86c-0.01-0.03-0.02-0.06-0.03-0.1l-3.31-34.45c-0.02-0.18,0.12-0.34,0.3-0.35
		c0.19-0.02,0.35,0.12,0.37,0.29l3.31,34.45c0.02,0.18-0.12,0.34-0.3,0.35C379.79,50.07,379.66,49.99,379.6,49.86z"/>
</g>
<g class="st3">
	<path class="st2" d="M361.52,36.8c-0.01-0.01-0.01-0.03-0.02-0.04l-9.68-28.58c-0.05-0.14,0.07-0.29,0.26-0.32
		c0.19-0.04,0.39,0.05,0.44,0.19l9.68,28.58c0.05,0.14-0.07,0.29-0.26,0.32C361.76,36.99,361.59,36.92,361.52,36.8z"/>
</g>
<g class="st4">
	<path class="st2" d="M344.68,4.7c-0.05-0.09-0.05-0.2,0.04-0.29c0.13-0.14,0.39-0.18,0.58-0.08l7.11,3.54
		c0.19,0.09,0.24,0.28,0.11,0.42s-0.39,0.18-0.58,0.08l-7.11-3.54C344.76,4.8,344.71,4.75,344.68,4.7z"/>
</g>
<g class="st5">
	<path class="st2" d="M352.09,36.69c-0.01-0.02-0.02-0.04-0.02-0.06l-7.34-32.02c-0.03-0.13,0.09-0.26,0.27-0.28s0.35,0.07,0.38,0.2
		l7.34,32.02c0.03,0.13-0.09,0.26-0.27,0.28C352.3,36.85,352.15,36.79,352.09,36.69z"/>
</g>
<g class="st6">
	<path class="st2" d="M361.61,36.77C361.6,36.77,361.6,36.77,361.61,36.77l-16.8-32.13c-0.05-0.1,0.02-0.21,0.15-0.25
		c0.14-0.04,0.28,0,0.34,0.11l16.79,32.12c0.05,0.1-0.02,0.21-0.15,0.25C361.81,36.92,361.66,36.87,361.61,36.77z"/>
</g>
<g class="st1">
	<path class="st2" d="M368.89,66.57c-0.05-0.1-0.04-0.23,0.02-0.33l10.68-16.69c0.11-0.17,0.34-0.22,0.51-0.12
		c0.18,0.1,0.23,0.32,0.12,0.49l-10.68,16.69c-0.11,0.17-0.34,0.22-0.51,0.12C368.96,66.69,368.91,66.64,368.89,66.57z"/>
</g>
<g class="st1">
	<path class="st2" d="M361.51,28.27c-0.06-0.14-0.02-0.31,0.11-0.41c0.16-0.12,0.39-0.1,0.51,0.05l18.06,21.61
		c0.12,0.15,0.1,0.37-0.06,0.49s-0.39,0.1-0.51-0.05l-18.06-21.61C361.54,28.32,361.53,28.29,361.51,28.27z"/>
</g>
<g class="st7">
	<path class="st2" d="M368.86,66.58c-0.01-0.03-0.02-0.05-0.03-0.08l-7.38-38.3c-0.04-0.21,0.1-0.41,0.32-0.45s0.43,0.1,0.47,0.31
		l7.38,38.3c0.04,0.21-0.1,0.41-0.32,0.45C369.11,66.84,368.93,66.74,368.86,66.58z"/>
</g>
<g class="st5">
	<path class="st2" d="M352.09,28.12c-0.02-0.04-0.03-0.08-0.03-0.13c0-0.17,0.15-0.31,0.33-0.31l9.45,0.14
		c0.18,0,0.33,0.15,0.32,0.32c0,0.17-0.15,0.31-0.33,0.31l-9.45-0.14C352.26,28.31,352.14,28.23,352.09,28.12z"/>
</g>
<g class="st4">
	<path class="st2" d="M355.94,63.17c-0.02-0.04-0.03-0.08-0.03-0.13l-3.97-35c-0.03-0.24,0.16-0.46,0.41-0.49s0.48,0.15,0.51,0.39
		l3.97,35c0.03,0.24-0.16,0.46-0.41,0.49C356.21,63.46,356.02,63.35,355.94,63.17z"/>
</g>
<g class="st3">
	<path class="st2" d="M352.03,28.14c-0.04-0.08-0.04-0.17-0.01-0.26l1.08-3.41c0.06-0.2,0.29-0.31,0.49-0.25
		c0.21,0.06,0.33,0.27,0.26,0.48l-1.08,3.41c-0.06,0.2-0.29,0.31-0.49,0.25C352.16,28.32,352.08,28.24,352.03,28.14z"/>
</g>
<g class="st8">
	<path class="st2" d="M355.92,61.96c-0.02-0.04-0.03-0.09-0.04-0.14l-2.87-37.2c-0.02-0.24,0.17-0.46,0.42-0.47
		c0.25-0.02,0.47,0.16,0.49,0.41l2.87,37.2c0.02,0.24-0.17,0.46-0.42,0.47C356.18,62.24,356,62.13,355.92,61.96z"/>
</g>
<g class="st6">
	<path class="st2" d="M356.09,63.11c-0.01-0.03-0.02-0.06-0.02-0.09l-2.89-38.41c-0.01-0.16,0.11-0.29,0.28-0.31
		c0.16-0.01,0.3,0.11,0.32,0.26l2.89,38.41c0.01,0.16-0.11,0.29-0.28,0.31C356.26,63.29,356.14,63.22,356.09,63.11z"/>
</g>
<g class="st9">
	<path class="st2" d="M369.21,57.14c-0.12-0.26-0.04-0.57,0.2-0.76l7.6-5.86c0.29-0.22,0.71-0.18,0.95,0.1
		c0.23,0.28,0.19,0.69-0.1,0.91l-7.6,5.86c-0.29,0.22-0.71,0.18-0.95-0.1C369.26,57.24,369.23,57.19,369.21,57.14z"/>
</g>
<g class="st10">
	<path class="st2" d="M363.76,41.5c-0.06-0.13-0.05-0.29,0.05-0.42c0.14-0.18,0.42-0.22,0.6-0.08l13.27,9.68
		c0.19,0.14,0.23,0.4,0.08,0.58c-0.14,0.18-0.42,0.22-0.6,0.08l-13.27-9.68C363.84,41.62,363.79,41.57,363.76,41.5z"/>
</g>
<g class="st11">
	<path class="st2" d="M356.08,63.11c-0.03-0.06-0.03-0.13-0.01-0.2c0.05-0.16,0.22-0.25,0.39-0.21l12.86,3.43
		c0.17,0.04,0.26,0.21,0.22,0.37c-0.05,0.16-0.22,0.25-0.39,0.21l-12.86-3.43C356.19,63.26,356.11,63.19,356.08,63.11z"/>
</g>
<g class="st11">
	<path class="st2" d="M356.06,63.12c-0.02-0.04-0.03-0.08-0.03-0.12l-0.02-1.21c0-0.17,0.14-0.32,0.32-0.32s0.33,0.14,0.33,0.31
		l0.02,1.21c0,0.17-0.14,0.32-0.32,0.32C356.23,63.31,356.12,63.23,356.06,63.12z"/>
</g>
<path class="st2" d="M377.82,14.79c0.29,0.65-0.02,1.39-0.69,1.67c-0.67,0.28-1.45-0.02-1.74-0.67c-0.29-0.65,0.02-1.39,0.69-1.67
	C376.75,13.84,377.53,14.14,377.82,14.79z"/>
<path class="st2" d="M353.39,7.74c0.29,0.49-0.02,1.06-0.69,1.28c-0.67,0.21-1.45-0.02-1.74-0.51s0.02-1.06,0.69-1.27
	C352.32,7.02,353.1,7.24,353.39,7.74z"/>
<path class="st2" d="M346.3,4.18c0.3,0.5-0.02,1.09-0.71,1.31s-1.48-0.02-1.78-0.52s0.02-1.09,0.71-1.31
	C345.21,3.45,346.01,3.68,346.3,4.18z"/>
<path class="st2" d="M381.22,49.19c0.31,0.7-0.02,1.5-0.75,1.8c-0.72,0.3-1.56-0.02-1.87-0.72s0.02-1.5,0.75-1.8
	C380.07,48.18,380.91,48.5,381.22,49.19z"/>
<path class="st2" d="M363.15,27.59c0.31,0.69-0.02,1.48-0.74,1.78c-0.72,0.3-1.54-0.02-1.85-0.71c-0.31-0.69,0.02-1.48,0.74-1.78
	C362.01,26.59,362.84,26.9,363.15,27.59z"/>
<path class="st2" d="M353.76,27.43c0.32,0.72-0.02,1.56-0.78,1.87c-0.75,0.31-1.62-0.02-1.95-0.75c-0.32-0.72,0.02-1.56,0.78-1.87
	C352.56,26.37,353.43,26.71,353.76,27.43z"/>
<path class="st2" d="M354.9,24c0.34,0.76-0.02,1.63-0.81,1.96s-1.7-0.02-2.04-0.78s0.02-1.63,0.81-1.96
	C353.65,22.89,354.56,23.24,354.9,24z"/>
<path class="st2" d="M371.51,56.18c0.4,0.9-0.03,1.94-0.96,2.32c-0.93,0.39-2.01-0.03-2.41-0.92c-0.4-0.9,0.03-1.93,0.96-2.32
	C370.03,54.87,371.11,55.29,371.51,56.18z"/>
<path class="st2" d="M379.19,50.29c0.42,0.93-0.03,2.02-1,2.42c-0.97,0.4-2.1-0.03-2.52-0.96s0.03-2.02,1-2.42
	S378.77,49.36,379.19,50.29z"/>
<path class="st2" d="M366.01,40.57c0.44,0.98-0.03,2.12-1.05,2.54s-2.2-0.03-2.64-1.01s0.03-2.12,1.05-2.54
	S365.57,39.59,366.01,40.57z"/>
<path class="st2" d="M370.6,65.86c0.33,0.73-0.02,1.58-0.78,1.89s-1.64-0.02-1.97-0.75s0.02-1.58,0.78-1.89
	C369.4,64.79,370.28,65.13,370.6,65.86z"/>
<path class="st2" d="M357.81,62.4c0.34,0.76-0.03,1.65-0.82,1.98c-0.8,0.33-1.72-0.02-2.06-0.79c-0.34-0.76,0.03-1.65,0.82-1.98
	C356.54,61.28,357.46,61.63,357.81,62.4z"/>
<path class="st2" d="M357.88,61.15c0.37,0.82-0.03,1.77-0.88,2.12s-1.84-0.03-2.21-0.84c-0.37-0.82,0.03-1.77,0.88-2.12
	C356.53,59.95,357.52,60.33,357.88,61.15z"/>
<g class="st1">
	<path class="st2" d="M65.36,62.16c-0.05-0.11-0.05-0.24-0.01-0.36l15.97-39.12c0.1-0.24,0.38-0.36,0.63-0.26
		c0.25,0.09,0.37,0.37,0.28,0.61L66.26,62.15c-0.1,0.24-0.38,0.36-0.63,0.26C65.5,62.36,65.41,62.27,65.36,62.16z"/>
</g>
<g class="st11">
	<path class="st2" d="M62.33,17.63c0.04-0.06,0.11-0.09,0.19-0.07l19.01,4.99c0.1,0.03,0.16,0.12,0.13,0.22
		c-0.02,0.09-0.12,0.15-0.21,0.13l-19.01-4.99c-0.1-0.02-0.16-0.12-0.13-0.22C62.31,17.66,62.32,17.64,62.33,17.63z"/>
</g>
<g class="st6">
	<path class="st2" d="M16.46,25.46c0.03-0.04,0.08-0.08,0.14-0.09c0.11-0.02,0.2,0.04,0.21,0.14l2.18,20.84
		c0.01,0.1-0.07,0.2-0.18,0.22s-0.2-0.04-0.21-0.14l-2.18-20.84C16.42,25.54,16.43,25.5,16.46,25.46z"/>
</g>
<path class="st2" d="M18.99,47.55c-0.2,0.31-0.62,0.39-0.94,0.17c-0.31-0.22-0.4-0.65-0.2-0.96s0.62-0.39,0.94-0.17
	C19.11,46.81,19.2,47.24,18.99,47.55z"/>
<path class="st2" d="M82.23,23.24c-0.27,0.41-0.82,0.5-1.23,0.22c-0.41-0.29-0.53-0.85-0.26-1.26s0.82-0.5,1.23-0.22
	C82.38,22.27,82.5,22.83,82.23,23.24z"/>
<path class="st2" d="M63.19,18.23c-0.26,0.39-0.78,0.48-1.17,0.21s-0.5-0.81-0.25-1.2c0.26-0.39,0.78-0.48,1.17-0.21
	C63.33,17.3,63.44,17.84,63.19,18.23z"/>
<path class="st2" d="M17.56,26.27c-0.25,0.38-0.77,0.47-1.15,0.2c-0.39-0.27-0.49-0.8-0.24-1.18s0.77-0.47,1.15-0.2
	C17.71,25.36,17.82,25.89,17.56,26.27z"/>
<path class="st2" d="M165.19,11.5c0.61,1.35-0.04,2.92-1.45,3.5s-3.04-0.04-3.64-1.39c-0.61-1.35,0.04-2.92,1.45-3.5
	C162.96,9.52,164.59,10.15,165.19,11.5z"/>
<g>
	<path class="st12" d="M-1502.09,953.29c-0.05,1.34-1,2.38-2.12,2.31c-1.12-0.06-1.98-1.2-1.93-2.54c0.05-1.34,1-2.38,2.12-2.31
		C-1502.9,950.81-1502.03,951.95-1502.09,953.29z"/>
</g>
<g class="st13">
	<path class="st2" d="M515.81,21.82c-0.01-0.01-0.01-0.02-0.01-0.03l-5.73-16.1c-0.03-0.09,0.06-0.18,0.19-0.2
		c0.14-0.02,0.27,0.03,0.31,0.12l5.73,16.1c0.03,0.09-0.06,0.18-0.19,0.2S515.86,21.89,515.81,21.82z"/>
</g>
<g class="st13">
	<path class="st2" d="M529.23,43.55C529.22,43.55,529.22,43.54,529.23,43.55l-13.44-21.73c-0.06-0.09,0.01-0.19,0.15-0.23
		s0.3,0.01,0.35,0.1l13.43,21.72c0.06,0.09-0.01,0.19-0.15,0.23C529.44,43.68,529.28,43.63,529.23,43.55z"/>
</g>
<g class="st3">
	<path class="st2" d="M497.71,24.16c0,0,0-0.01-0.01-0.01l-9.83-17.48c-0.06-0.1,0.02-0.21,0.18-0.24c0.15-0.04,0.33,0.03,0.38,0.11
		l9.83,17.48c0.06,0.1-0.02,0.21-0.18,0.24C497.93,24.3,497.77,24.25,497.71,24.16z"/>
</g>
<g class="st1">
	<path class="st2" d="M493.26,24.54c-0.01-0.02-0.02-0.03-0.02-0.05c-0.02-0.11,0.1-0.21,0.26-0.22l4.44-0.38
		c0.17-0.01,0.32,0.06,0.34,0.17s-0.1,0.21-0.26,0.22l-4.44,0.38C493.44,24.67,493.31,24.62,493.26,24.54z"/>
</g>
<g class="st14">
	<path class="st2" d="M502.16,43.21c0-0.01-0.01-0.01-0.01-0.02l-8.87-18.68c-0.04-0.09,0.04-0.19,0.18-0.22
		c0.14-0.03,0.3,0.03,0.34,0.12l8.87,18.68c0.04,0.09-0.04,0.19-0.18,0.22C502.35,43.33,502.21,43.29,502.16,43.21z"/>
</g>
<g class="st6">
	<path class="st2" d="M511.98,56.84L511.98,56.84l-18.67-32.33c-0.05-0.08,0.02-0.17,0.14-0.2s0.24,0.02,0.31,0.09l18.66,32.32
		c0.05,0.08-0.02,0.17-0.14,0.2C512.17,56.95,512.03,56.92,511.98,56.84z"/>
</g>
<g class="st10">
	<path class="st2" d="M491.16,27.18c-0.03-0.05-0.03-0.1,0.01-0.15l2.12-2.65c0.07-0.09,0.24-0.12,0.38-0.08
		c0.14,0.05,0.19,0.15,0.12,0.24l-2.12,2.65c-0.07,0.09-0.24,0.12-0.38,0.08C491.23,27.25,491.19,27.22,491.16,27.18z"/>
</g>
<g class="st9">
	<path class="st2" d="M490.99,27.23c-0.1-0.15,0.01-0.33,0.24-0.39c0.24-0.07,0.51,0,0.62,0.15l10.99,16.03l0,0
		c0.1,0.15-0.01,0.33-0.24,0.39c-0.24,0.07-0.51,0-0.62-0.15L490.99,27.23L490.99,27.23z"/>
</g>
<g class="st5">
	<path class="st2" d="M482.1,14.64c-0.07-0.1,0-0.21,0.15-0.26s0.34,0,0.41,0.1l9.04,12.54c0.09,0.09,0,0.22-0.15,0.26
		c-0.15,0.05-0.34,0-0.41-0.1L482.1,14.64C482.1,14.65,482.1,14.64,482.1,14.64z"/>
</g>
<g class="st14">
	<path class="st2" d="M482.11,14.64c-0.06-0.09,0-0.2,0.14-0.24c0.14-0.05,0.32-0.01,0.39,0.08l21.98,28.02
		c0.07,0.09,0.01,0.21-0.13,0.25c-0.14,0.05-0.32,0.01-0.39-0.08l-21.98-28.02C482.12,14.64,482.11,14.64,482.11,14.64z"/>
</g>
<g class="st13">
	<path class="st2" d="M481.05,13.11c-0.06-0.09-0.02-0.2,0.11-0.27c0.15-0.08,0.38-0.06,0.5,0.04l6.47,5.2
		c0.12,0.1,0.1,0.24-0.06,0.32c-0.15,0.08-0.38,0.06-0.5-0.04l-6.47-5.2C481.07,13.15,481.06,13.13,481.05,13.11z"/>
</g>
<g class="st15">
	<path class="st2" d="M481.11,13.1c-0.06-0.09,0-0.19,0.13-0.24c0.14-0.05,0.32-0.02,0.39,0.08l29.57,35.07
		c0.07,0.09,0.02,0.2-0.12,0.25s-0.32,0.02-0.39-0.08l-29.57-35.07C481.11,13.11,481.11,13.1,481.11,13.1z"/>
</g>
<g class="st6">
	<path class="st2" d="M481.12,13.09c-0.06-0.09,0-0.19,0.13-0.23c0.14-0.04,0.3-0.01,0.37,0.08l22.99,29.56
		c0.06,0.09,0.01,0.19-0.12,0.24c-0.14,0.04-0.3,0.01-0.37-0.08L481.12,13.09C481.12,13.1,481.12,13.1,481.12,13.09z"/>
</g>
<g class="st10">
	<path class="st2" d="M489.76,46.69c-0.02-0.02-0.03-0.05-0.03-0.08l-2.24-28.38c-0.01-0.12,0.14-0.23,0.33-0.23
		c0.19-0.01,0.35,0.09,0.37,0.21l2.24,28.38c0.01,0.12-0.14,0.23-0.33,0.23C489.95,46.83,489.81,46.77,489.76,46.69z"/>
</g>
<g class="st4">
	<path class="st2" d="M511.82,56.89c-0.05-0.08-0.05-0.18,0.04-0.26c0.13-0.12,0.39-0.15,0.58-0.07l7.12,3.09
		c0.19,0.08,0.24,0.25,0.11,0.37s-0.39,0.15-0.58,0.07L511.97,57C511.9,56.97,511.85,56.93,511.82,56.89z"/>
</g>
<g class="st13">
	<path class="st2" d="M502.1,43.22c-0.07-0.11,0-0.23,0.17-0.28s0.37,0,0.45,0.11l9.79,13.65c0.07,0.1,0,0.24-0.17,0.29
		s-0.37,0-0.45-0.11L502.1,43.22C502.1,43.23,502.1,43.22,502.1,43.22z"/>
</g>
<g class="st16">
	<path class="st2" d="M503.87,42.72c-0.09-0.14-0.03-0.31,0.17-0.41c0.23-0.12,0.57-0.09,0.75,0.06l6.58,5.51
		c0.18,0.15,0.14,0.37-0.1,0.48c-0.23,0.12-0.57,0.09-0.75-0.06l-6.58-5.51C503.91,42.77,503.89,42.74,503.87,42.72z"/>
</g>
<g class="st7">
	<path class="st2" d="M471.24,53.98c-0.09-0.14-0.02-0.3,0.19-0.38l18.4-7.26c0.23-0.09,0.52-0.04,0.66,0.1s0.07,0.33-0.16,0.42
		l-18.4,7.26c-0.23,0.09-0.52,0.04-0.66-0.1C471.26,54.01,471.25,53.99,471.24,53.98z"/>
</g>
<g class="st7">
	<path class="st2" d="M39.76,39.15c0.03-0.01,0.05-0.02,0.08-0.03l37.7-10c0.21-0.05,0.42,0.07,0.47,0.29
		c0.05,0.21-0.07,0.43-0.28,0.49l-37.7,10c-0.21,0.05-0.42-0.07-0.47-0.29C39.52,39.42,39.61,39.23,39.76,39.15z"/>
</g>
<g class="st4">
	<path class="st2" d="M42.27,26.03c0.04-0.02,0.08-0.04,0.13-0.04l34.64-6.38c0.24-0.04,0.47,0.12,0.52,0.38
		c0.04,0.25-0.11,0.49-0.36,0.54l-34.64,6.38c-0.24,0.04-0.47-0.12-0.52-0.38C42,26.31,42.1,26.12,42.27,26.03z"/>
</g>
<g class="st8">
	<path class="st2" d="M43.48,25.92c0.04-0.02,0.09-0.04,0.14-0.05l36.91-5.43c0.24-0.04,0.47,0.14,0.5,0.39
		c0.04,0.25-0.13,0.48-0.37,0.52l-36.91,5.43c-0.24,0.04-0.47-0.14-0.5-0.39C43.21,26.2,43.31,26.01,43.48,25.92z"/>
</g>
<g class="st6">
	<path class="st2" d="M42.34,26.17c0.03-0.01,0.06-0.02,0.09-0.03l38.12-5.53c0.16-0.02,0.3,0.09,0.32,0.25s-0.09,0.31-0.24,0.34
		l-38.12,5.53c-0.16,0.02-0.3-0.09-0.32-0.25C42.18,26.35,42.24,26.23,42.34,26.17z"/>
</g>
<g class="st13">
	<path class="st2" d="M16.41,25.34c0.08-0.04,0.18-0.06,0.28-0.05l47.99,6.93c0.26,0.04,0.44,0.29,0.41,0.56s-0.27,0.46-0.53,0.42
		l-47.99-6.93c-0.26-0.04-0.44-0.29-0.41-0.56C16.18,25.55,16.28,25.41,16.41,25.34z"/>
</g>
<g class="st5">
	<path class="st2" d="M436.13,70.2c-0.01-0.01-0.01-0.02-0.02-0.04L419.4,30.51c-0.06-0.14,0.07-0.29,0.3-0.33
		c0.23-0.04,0.46,0.05,0.52,0.19l16.71,39.65c0.06,0.14-0.07,0.29-0.3,0.33C436.43,70.39,436.21,70.32,436.13,70.2z"/>
</g>
<g class="st5">
	<path class="st2" d="M422.15,42.05c-0.01-0.02-0.02-0.04-0.03-0.07l-2.72-11.5c-0.03-0.15,0.12-0.28,0.35-0.3
		c0.23-0.02,0.44,0.08,0.47,0.22l2.72,11.5c0.03,0.15-0.12,0.28-0.35,0.3C422.41,42.23,422.23,42.16,422.15,42.05z"/>
</g>
<g class="st14">
	<path class="st2" d="M397.37,60.95c-0.06-0.1-0.04-0.21,0.07-0.3l24.75-18.89c0.16-0.12,0.44-0.14,0.63-0.03
		c0.19,0.1,0.21,0.28,0.05,0.4l-24.75,18.89c-0.16,0.12-0.44,0.14-0.63,0.03C397.44,61.02,397.4,60.99,397.37,60.95z"/>
</g>
<g class="st8">
	<path class="st2" d="M459.81,63.35c-0.01-0.02-0.02-0.03-0.03-0.05l-14.44-33.91c-0.09-0.21,0.1-0.42,0.43-0.48
		c0.32-0.06,0.66,0.06,0.74,0.27l14.44,33.91c0.09,0.21-0.1,0.42-0.43,0.48C460.23,63.62,459.92,63.52,459.81,63.35z"/>
</g>
<g class="st11">
	<path class="st2" d="M436.13,70.2c-0.01-0.01-0.01-0.02-0.01-0.03l-13.99-28.15c-0.07-0.14,0.05-0.3,0.28-0.34
		c0.22-0.05,0.47,0.03,0.53,0.18l13.99,28.15c0.07,0.14-0.05,0.3-0.28,0.34C436.44,70.39,436.22,70.32,436.13,70.2z"/>
</g>
<g class="st17">
	<path class="st2" d="M459.75,63.36c-0.03-0.05-0.05-0.09-0.05-0.15l-0.45-5.77c-0.02-0.23,0.26-0.43,0.63-0.44
		c0.36-0.01,0.68,0.17,0.69,0.4l0.45,5.77c0.02,0.23-0.26,0.43-0.63,0.44C460.11,63.63,459.86,63.52,459.75,63.36z"/>
</g>
<g class="st11">
	<path class="st2" d="M420.75,48.29c-0.06-0.08-0.05-0.18,0.03-0.27c0.13-0.14,0.41-0.18,0.62-0.1l39.19,15.02
		c0.21,0.08,0.29,0.26,0.16,0.4s-0.41,0.18-0.62,0.1l-39.19-15.02C420.85,48.39,420.79,48.34,420.75,48.29z"/>
</g>
<g class="st6">
	<path class="st2" d="M370.24,42.52c0.03-0.02,0.06-0.03,0.1-0.03l99.05-14.08c0.15-0.02,0.3,0.09,0.32,0.25
		c0.02,0.16-0.08,0.31-0.24,0.33l-99.05,14.08c-0.15,0.02-0.3-0.09-0.32-0.25C370.08,42.69,370.14,42.58,370.24,42.52z"/>
</g>
<g class="st1">
	<path class="st2" d="M488.56,4.49c0.13-0.07,0.3-0.06,0.42,0.04c0.16,0.14,0.18,0.38,0.05,0.54l-19.31,23.87
		c-0.13,0.16-0.36,0.18-0.52,0.04s-0.18-0.38-0.05-0.54l19.31-23.87C488.49,4.54,488.52,4.51,488.56,4.49z"/>
</g>
<g class="st14">
	<path class="st2" d="M257.24,65.79c-0.01,0-0.03,0.01-0.04,0.01c-0.24,0.05-0.49-0.06-0.56-0.23l-8.37-21.2
		c-0.07-0.18,0.06-0.36,0.31-0.41c0.24-0.05,0.49,0.06,0.56,0.23l8.37,21.2C257.57,65.56,257.45,65.73,257.24,65.79z"/>
</g>
<g class="st15">
	<path class="st2" d="M486.47,3.83c0.05-0.03,0.1-0.04,0.16-0.03l78.7,8.08c0.15,0.02,0.26,0.15,0.25,0.31s-0.15,0.27-0.3,0.25
		l-78.7-8.08c-0.15-0.02-0.26-0.15-0.25-0.31C486.34,3.95,486.39,3.87,486.47,3.83z"/>
</g>
<g class="st14">
	<path class="st2" d="M478.96,12.67c0.04-0.02,0.09-0.04,0.14-0.04l86.2-0.78c0.16,0,0.29,0.13,0.29,0.3s-0.12,0.3-0.29,0.3
		l-86.2,0.78c-0.16,0-0.29-0.13-0.29-0.3C478.81,12.82,478.87,12.72,478.96,12.67z"/>
</g>
<g class="st11">
	<path class="st2" d="M572.44,2.89c0.1-0.06,0.23-0.05,0.32,0.03c0.12,0.1,0.14,0.29,0.04,0.41l-7.28,9
		c-0.1,0.12-0.28,0.14-0.4,0.03c-0.12-0.1-0.14-0.29-0.04-0.41l7.28-9C572.39,2.93,572.41,2.91,572.44,2.89z"/>
</g>
<path class="st2" d="M517.06,21.48c0.24,0.36-0.02,0.78-0.58,0.93c-0.56,0.16-1.22-0.01-1.46-0.37s0.02-0.78,0.58-0.93
	C516.17,20.95,516.82,21.11,517.06,21.48z"/>
<path class="st2" d="M530.57,43.18c0.26,0.39-0.02,0.83-0.62,1s-1.3-0.01-1.56-0.4s0.02-0.83,0.62-1S530.31,42.79,530.57,43.18z"/>
<path class="st2" d="M499.05,23.79c0.25,0.38-0.02,0.82-0.61,0.98s-1.28-0.01-1.53-0.39s0.02-0.82,0.61-0.98
	S498.79,23.41,499.05,23.79z"/>
<path class="st2" d="M494.66,24.15c0.27,0.4-0.02,0.86-0.64,1.03c-0.62,0.17-1.34-0.01-1.6-0.41c-0.27-0.4,0.02-0.86,0.64-1.03
	S494.39,23.76,494.66,24.15z"/>
<path class="st2" d="M492.62,26.78c0.29,0.42-0.02,0.92-0.68,1.1s-1.43-0.01-1.72-0.44c-0.29-0.42,0.02-0.92,0.68-1.1
	S492.33,26.35,492.62,26.78z"/>
<path class="st2" d="M489.26,17.83c0.34,0.5-0.02,1.09-0.81,1.31s-1.7-0.02-2.04-0.52s0.02-1.09,0.81-1.31
	S488.93,17.32,489.26,17.83z"/>
<path class="st2" d="M520.53,59.54c0.29,0.43-0.02,0.93-0.69,1.11s-1.45-0.01-1.74-0.44s0.02-0.93,0.69-1.11
	C519.47,58.91,520.24,59.11,520.53,59.54z"/>
<path class="st2" d="M513.45,56.44c0.3,0.44-0.02,0.95-0.71,1.14s-1.48-0.01-1.78-0.45s0.02-0.95,0.71-1.14
	C512.35,55.8,513.15,56,513.45,56.44z"/>
<path class="st2" d="M503.66,42.79c0.3,0.44-0.02,0.96-0.71,1.15s-1.49-0.01-1.79-0.46c-0.3-0.44,0.02-0.96,0.71-1.15
	S503.36,42.35,503.66,42.79z"/>
<path class="st2" d="M505.75,42.2c0.33,0.49-0.02,1.06-0.79,1.27c-0.76,0.21-1.65-0.02-1.98-0.5c-0.33-0.49,0.02-1.06,0.79-1.27
	C504.53,41.49,505.42,41.71,505.75,42.2z"/>
<path class="st2" d="M512.42,47.68c0.35,0.52-0.03,1.13-0.84,1.35c-0.82,0.22-1.76-0.02-2.11-0.54c-0.35-0.52,0.03-1.13,0.84-1.35
	S512.07,47.16,512.42,47.68z"/>
<path class="st2" d="M491.67,46.16c0.38,0.56-0.03,1.21-0.9,1.45c-0.88,0.24-1.89-0.02-2.27-0.58s0.03-1.21,0.9-1.45
	S491.29,45.6,491.67,46.16z"/>
<path class="st2" d="M473.33,53.4c0.39,0.58-0.03,1.26-0.94,1.51s-1.97-0.02-2.36-0.6c-0.39-0.58,0.03-1.26,0.94-1.51
	S472.94,52.82,473.33,53.4z"/>
<g class="st13">
	<path class="st2" d="M196.37,20c-0.01-0.01-0.01-0.02-0.01-0.03l-5.73-16.1c-0.03-0.09,0.06-0.18,0.19-0.2
		c0.14-0.02,0.27,0.03,0.31,0.12l5.73,16.1c0.03,0.09-0.06,0.18-0.19,0.2S196.42,20.07,196.37,20z"/>
</g>
<g class="st13">
	<path class="st2" d="M209.79,41.72C209.78,41.72,209.78,41.72,209.79,41.72l-13.44-21.73c-0.06-0.09,0.01-0.19,0.15-0.23
		s0.3,0.01,0.35,0.1l13.43,21.72c0.06,0.09-0.01,0.19-0.15,0.23C210,41.85,209.84,41.81,209.79,41.72z"/>
</g>
<g class="st3">
	<path class="st2" d="M178.26,22.34l-0.01-0.01l-9.83-17.48c-0.06-0.1,0.02-0.21,0.18-0.24c0.15-0.04,0.33,0.03,0.38,0.11
		l9.83,17.48c0.06,0.1-0.02,0.21-0.18,0.24C178.49,22.48,178.33,22.43,178.26,22.34z"/>
</g>
<g class="st1">
	<path class="st2" d="M173.82,22.72c-0.01-0.02-0.02-0.03-0.02-0.05c-0.02-0.11,0.09-0.21,0.26-0.22l4.44-0.38
		c0.17-0.01,0.32,0.06,0.34,0.17s-0.09,0.21-0.26,0.22l-4.44,0.38C174,22.85,173.87,22.8,173.82,22.72z"/>
</g>
<g class="st14">
	<path class="st2" d="M182.72,41.38c0-0.01-0.01-0.01-0.01-0.02l-8.87-18.68c-0.04-0.09,0.04-0.19,0.18-0.22
		c0.14-0.03,0.3,0.03,0.34,0.12l8.87,18.68c0.04,0.09-0.04,0.19-0.18,0.22C182.91,41.51,182.77,41.47,182.72,41.38z"/>
</g>
<g class="st6">
	<path class="st2" d="M192.54,55.02L192.54,55.02l-18.67-32.33c-0.05-0.08,0.02-0.17,0.14-0.2s0.24,0.02,0.31,0.09l18.66,32.32
		c0.05,0.08-0.02,0.17-0.14,0.2C192.73,55.13,192.59,55.1,192.54,55.02z"/>
</g>
<g class="st10">
	<path class="st2" d="M171.72,25.36c-0.03-0.05-0.03-0.1,0.01-0.15l2.12-2.65c0.07-0.09,0.24-0.12,0.38-0.08
		c0.14,0.05,0.19,0.15,0.12,0.24l-2.12,2.65c-0.07,0.09-0.24,0.12-0.38,0.08C171.79,25.43,171.74,25.39,171.72,25.36z"/>
</g>
<g class="st9">
	<path class="st2" d="M171.55,25.4c-0.1-0.15,0.01-0.33,0.24-0.39c0.24-0.07,0.51,0,0.62,0.15l10.99,16.03l0,0
		c0.1,0.15-0.01,0.33-0.24,0.39c-0.24,0.07-0.51,0-0.62-0.15L171.55,25.4C171.55,25.41,171.55,25.41,171.55,25.4z"/>
</g>
<g class="st5">
	<path class="st2" d="M162.66,12.82c-0.07-0.1,0-0.21,0.15-0.26s0.34,0,0.41,0.1l9.04,12.54c0.09,0.09,0,0.22-0.15,0.26
		c-0.15,0.05-0.34,0-0.41-0.1L162.66,12.82L162.66,12.82z"/>
</g>
<g class="st14">
	<path class="st2" d="M162.67,12.82c-0.06-0.09,0-0.2,0.14-0.24c0.14-0.05,0.32-0.01,0.39,0.08l21.98,28.02
		c0.07,0.09,0.01,0.21-0.13,0.25c-0.14,0.05-0.32,0.01-0.39-0.08L162.67,12.82C162.68,12.82,162.67,12.82,162.67,12.82z"/>
</g>
<g class="st13">
	<path class="st2" d="M161.6,11.29c-0.06-0.09-0.02-0.2,0.11-0.27c0.15-0.08,0.38-0.06,0.5,0.04l6.47,5.2
		c0.12,0.1,0.1,0.24-0.06,0.32c-0.15,0.08-0.38,0.06-0.5-0.04l-6.47-5.2C161.63,11.33,161.62,11.31,161.6,11.29z"/>
</g>
<g class="st15">
	<path class="st2" d="M161.67,11.27c-0.06-0.09,0-0.19,0.13-0.24c0.14-0.05,0.32-0.02,0.39,0.08l29.57,35.07
		c0.07,0.09,0.02,0.2-0.12,0.25s-0.32,0.02-0.39-0.08l-29.57-35.07C161.67,11.28,161.67,11.28,161.67,11.27z"/>
</g>
<g class="st6">
	<path class="st2" d="M161.68,11.27c-0.06-0.09,0-0.19,0.13-0.23c0.14-0.04,0.3-0.01,0.37,0.08l22.99,29.56
		c0.06,0.09,0.01,0.19-0.12,0.24c-0.14,0.04-0.3,0.01-0.37-0.08L161.68,11.27C161.68,11.28,161.68,11.27,161.68,11.27z"/>
</g>
<g class="st10">
	<path class="st2" d="M170.32,44.86c-0.02-0.02-0.03-0.05-0.03-0.08l-2.24-28.38c-0.01-0.12,0.14-0.23,0.33-0.23
		c0.19-0.01,0.35,0.09,0.37,0.21l2.24,28.38c0.01,0.12-0.14,0.23-0.33,0.23C170.51,45,170.37,44.95,170.32,44.86z"/>
</g>
<g class="st4">
	<path class="st2" d="M192.38,55.07c-0.05-0.08-0.05-0.18,0.04-0.26c0.13-0.12,0.39-0.15,0.58-0.07l7.11,3.09
		c0.19,0.08,0.24,0.25,0.11,0.37s-0.39,0.15-0.58,0.07l-7.11-3.09C192.46,55.15,192.41,55.11,192.38,55.07z"/>
</g>
<g class="st13">
	<path class="st2" d="M182.66,41.4c-0.07-0.11,0-0.23,0.17-0.28s0.37,0,0.45,0.11l9.79,13.65c0.07,0.1,0,0.24-0.17,0.29
		s-0.37,0-0.45-0.11L182.66,41.4L182.66,41.4z"/>
</g>
<g class="st16">
	<path class="st2" d="M184.43,40.9c-0.09-0.14-0.03-0.31,0.17-0.41c0.23-0.12,0.57-0.09,0.75,0.06l6.58,5.51
		c0.18,0.15,0.14,0.37-0.1,0.48c-0.23,0.12-0.57,0.09-0.75-0.06l-6.58-5.51C184.47,40.95,184.45,40.92,184.43,40.9z"/>
</g>
<g class="st7">
	<path class="st2" d="M151.8,52.16c-0.09-0.14-0.02-0.3,0.19-0.38l18.4-7.26c0.23-0.09,0.52-0.04,0.66,0.1s0.07,0.33-0.16,0.42
		l-18.4,7.26c-0.23,0.09-0.52,0.04-0.66-0.1C151.82,52.19,151.81,52.17,151.8,52.16z"/>
</g>
<path class="st2" d="M421.43,30c0.38,0.57-0.03,1.23-0.92,1.48s-1.93-0.02-2.31-0.59s0.03-1.23,0.92-1.48S421.04,29.43,421.43,30z"
	/>
<path class="st2" d="M424.38,41.44c0.44,0.65-0.03,1.41-1.05,1.69s-2.2-0.02-2.63-0.67c-0.44-0.65,0.03-1.41,1.05-1.69
	C422.76,40.49,423.94,40.79,424.38,41.44z"/>
<path class="st2" d="M442.01,59.43c0.44,0.66-0.03,1.42-1.06,1.7s-2.21-0.02-2.65-0.68s0.03-1.42,1.06-1.7
	C440.38,58.47,441.57,58.77,442.01,59.43z"/>
<g class="st5">
	<path class="st2" d="M126.65,59.29c-0.01-0.01-0.01-0.02-0.02-0.04L109.92,19.6c-0.06-0.14,0.07-0.29,0.3-0.33
		c0.23-0.04,0.46,0.05,0.52,0.19l16.71,39.65c0.06,0.14-0.07,0.29-0.3,0.33C126.94,59.48,126.73,59.41,126.65,59.29z"/>
</g>
<g class="st5">
	<path class="st2" d="M112.67,31.14c-0.01-0.02-0.02-0.04-0.03-0.07l-2.72-11.5c-0.03-0.15,0.12-0.28,0.35-0.3
		c0.23-0.02,0.44,0.08,0.47,0.22l2.72,11.5c0.03,0.15-0.12,0.28-0.35,0.3C112.92,31.32,112.74,31.25,112.67,31.14z"/>
</g>
<g class="st14">
	<path class="st2" d="M66.33,61.87c-0.12-0.15-0.08-0.34,0.12-0.48l45.6-30.48c0.29-0.19,0.81-0.22,1.15-0.06
		c0.35,0.16,0.39,0.45,0.1,0.65L67.7,61.98c-0.29,0.19-0.81,0.22-1.15,0.06C66.45,61.99,66.38,61.93,66.33,61.87z"/>
</g>
<g class="st11">
	<path class="st2" d="M126.65,59.29c-0.01-0.01-0.01-0.02-0.01-0.03l-13.99-28.15c-0.07-0.14,0.05-0.3,0.28-0.34
		c0.22-0.05,0.47,0.03,0.53,0.18l13.99,28.15c0.07,0.14-0.05,0.3-0.28,0.34C126.96,59.48,126.74,59.42,126.65,59.29z"/>
</g>
<g class="st11">
	<path class="st2" d="M111.27,37.38c-0.06-0.08-0.05-0.18,0.03-0.27c0.13-0.14,0.41-0.18,0.62-0.1l39.19,15.02
		c0.21,0.08,0.29,0.26,0.16,0.4s-0.41,0.18-0.62,0.1l-39.19-15.02C111.37,37.48,111.31,37.43,111.27,37.38z"/>
</g>
<path class="st2" d="M200.04,58.8c0.35,0.37,0.56,0.92,0.54,1.52c-0.01,0.2-0.05,0.39-0.1,0.57l23.75-7.07l-0.15-2.17L200.04,58.8z"
	/>
<path class="st18" d="M200.04,58.8c0.35,0.37,0.56,0.92,0.54,1.52c-0.01,0.2-0.05,0.39-0.1,0.57l23.75-7.07l-0.15-2.17L200.04,58.8z
	"/>
<path class="st2" d="M249.56,46.28c-0.35-0.37-0.56-0.91-0.54-1.51c0.01-0.21,0.05-0.4,0.11-0.58l-23.29,6.93l0.15,2.17
	L249.56,46.28z"/>
<path class="st18" d="M249.56,46.28c-0.35-0.37-0.56-0.91-0.54-1.51c0.01-0.21,0.05-0.4,0.11-0.58l-23.29,6.93l0.15,2.17
	L249.56,46.28z"/>
<polygon class="st2" points="224.08,51.65 225.84,51.02 223,1 221.08,-1.15 "/>
<polygon class="st19" points="232.62,71.64 233.83,70.94 231.89,15.18 230.58,12.79 "/>
<path class="st2" d="M224.32,55.17c0.31-0.26,0.69-0.42,1.1-0.39c0.25,0.01,0.48,0.09,0.69,0.21L226,53.3l-1.76,0.52L224.32,55.17z"
	/>
<path class="st19" d="M224.32,55.17c0.31-0.26,0.69-0.42,1.1-0.39c0.25,0.01,0.48,0.09,0.69,0.21L226,53.3l-1.76,0.52L224.32,55.17z
	"/>
<polygon class="st2" points="224.23,53.82 225.99,53.29 225.84,51.12 224.08,51.65 "/>
<polygon class="st18" points="224.23,53.82 225.99,53.29 225.84,51.12 224.08,51.65 "/>
<polygon class="st19" points="224.23,53.82 225.99,53.29 225.84,51.12 224.08,51.65 "/>
<polygon class="st2" points="118.45,59.59 118.94,61.96 164.37,11.96 161.72,11.96 "/>
<polygon class="st20" points="0,72.75 2.08,73.01 161.45,0 151.81,3.2 "/>
<polygon class="st20" points="519.41,59.6 519.9,61.97 565.33,11.97 562.68,11.97 "/>
<path class="st2" d="M251.16,63.54c0.03,0,0.06,0.01,0.09,0.02l-18.7-49.19h-1.97l19.05,50.08
	C249.96,63.87,250.53,63.5,251.16,63.54z"/>
<path class="st21" d="M398.64,59.93c0.03,0,0.06,0.02,0.09,0.02l-18.7-61.1h-1.97l19.05,62.2
	C397.44,60.34,398.01,59.89,398.64,59.93z"/>
<g class="st13">
	<path class="st2" d="M324.4,35.64c-0.01-0.03-0.02-0.07-0.02-0.11c0.01-0.13,0.12-0.23,0.26-0.22l12.48,0.68
		c0.13,0.01,0.24,0.12,0.23,0.25s-0.12,0.23-0.25,0.22l-12.48-0.68C324.51,35.77,324.44,35.72,324.4,35.64z"/>
</g>
<g class="st10">
	<path class="st2" d="M325.53,50.89c-0.03-0.07-0.02-0.15,0.03-0.22l11.36-14.57c0.07-0.1,0.22-0.12,0.32-0.04
		c0.1,0.07,0.12,0.21,0.05,0.3l-11.36,14.57c-0.07,0.1-0.22,0.12-0.32,0.04C325.57,50.95,325.54,50.92,325.53,50.89z"/>
</g>
<g class="st3">
	<path class="st2" d="M315.34,17.89c-0.05-0.12,0-0.26,0.12-0.32c0.13-0.06,0.28-0.01,0.34,0.11l9.04,17.75
		c0.06,0.12,0.01,0.27-0.12,0.33s-0.28,0.01-0.34-0.11l-9.04-17.75C315.34,17.9,315.34,17.9,315.34,17.89z"/>
</g>
<g class="st13">
	<path class="st2" d="M303.65,54.01c-0.01-0.02-0.01-0.04-0.02-0.06c-0.02-0.13,0.07-0.24,0.2-0.26l21.87-3.12
		c0.13-0.02,0.25,0.07,0.27,0.2s-0.07,0.24-0.2,0.26l-21.87,3.12C303.79,54.16,303.69,54.11,303.65,54.01z"/>
</g>
<g class="st13">
	<path class="st2" d="M325.51,50.9c-0.01-0.02-0.02-0.05-0.02-0.08l-1.11-15.25c-0.01-0.13,0.09-0.24,0.23-0.25
		c0.13-0.01,0.25,0.09,0.26,0.22l1.11,15.25c0.01,0.13-0.09,0.24-0.23,0.25C325.64,51.05,325.55,50.99,325.51,50.9z"/>
</g>
<g class="st6">
	<path class="st2" d="M286.77,40.69c-0.03-0.06-0.02-0.14,0.03-0.2l15.47-17.28c0.07-0.08,0.19-0.09,0.27-0.02s0.09,0.18,0.02,0.26
		l-15.47,17.28c-0.07,0.08-0.19,0.09-0.27,0.02C286.8,40.74,286.78,40.72,286.77,40.69z"/>
</g>
<g class="st15">
	<path class="st2" d="M285.24,49.82c-0.02-0.04-0.02-0.08-0.01-0.12c0.02-0.1,0.13-0.16,0.23-0.14l18.45,4.17
		c0.1,0.02,0.17,0.12,0.14,0.22c-0.02,0.1-0.13,0.16-0.23,0.14l-18.45-4.17C285.32,49.91,285.27,49.87,285.24,49.82z"/>
</g>
<g class="st8">
	<path class="st2" d="M285.16,49.85c-0.02-0.05-0.03-0.1-0.02-0.15l1.53-9.13c0.03-0.15,0.17-0.25,0.33-0.23
		c0.16,0.02,0.27,0.17,0.24,0.32l-1.53,9.13c-0.03,0.15-0.17,0.25-0.33,0.23C285.28,50,285.19,49.94,285.16,49.85z"/>
</g>
<g class="st11">
	<path class="st2" d="M314.78,17.93c-0.07-0.11-0.01-0.24,0.16-0.29c0.18-0.06,0.4-0.02,0.5,0.09l41.22,46.25
		c0.11,0.11,0.04,0.25-0.14,0.32c-0.18,0.06-0.4,0.02-0.5-0.09L314.8,17.96C314.79,17.94,314.78,17.94,314.78,17.93z"/>
</g>
<g class="st11">
	<path class="st2" d="M282.68,0.24c-0.08-0.12-0.01-0.26,0.16-0.32c0.18-0.07,0.41-0.03,0.52,0.1l42.51,50.53
		c0.11,0.12,0.04,0.28-0.15,0.35c-0.18,0.07-0.41,0.03-0.52-0.1L282.69,0.27C282.69,0.26,282.68,0.25,282.68,0.24z"/>
</g>
<path class="st2" d="M326.64,50.43c0.22,0.48-0.02,1.04-0.52,1.25s-1.08-0.02-1.3-0.5s0.02-1.04,0.52-1.25
	C325.85,49.72,326.43,49.94,326.64,50.43z"/>
<path class="st2" d="M325.54,35.17c0.22,0.49-0.02,1.05-0.52,1.26s-1.09-0.02-1.31-0.5c-0.22-0.49,0.02-1.05,0.52-1.26
	S325.32,34.68,325.54,35.17z"/>
<path class="st2" d="M304.75,53.55c0.21,0.47-0.02,1.01-0.5,1.21c-0.49,0.2-1.05-0.01-1.26-0.48s0.02-1.01,0.5-1.21
	C303.98,52.87,304.54,53.09,304.75,53.55z"/>
<path class="st2" d="M286.32,49.37c0.21,0.48-0.02,1.03-0.51,1.23c-0.49,0.2-1.07-0.02-1.28-0.49c-0.21-0.48,0.02-1.03,0.51-1.23
	C285.53,48.68,286.1,48.9,286.32,49.37z"/>
<path class="st2" d="M287.87,40.24c0.22,0.49-0.02,1.05-0.52,1.26c-0.51,0.21-1.09-0.02-1.31-0.5c-0.22-0.49,0.02-1.05,0.52-1.26
	C287.06,39.53,287.65,39.75,287.87,40.24z"/>
<g class="st1">
	<path class="st2" d="M537.7,31.08c-0.04-0.1-0.03-0.21,0.04-0.3c0.1-0.13,0.3-0.15,0.43-0.05l21.35,15.92
		c0.14,0.1,0.16,0.29,0.05,0.42c-0.1,0.13-0.3,0.15-0.43,0.05L537.79,31.2C537.75,31.17,537.72,31.13,537.7,31.08z"/>
</g>
<g class="st15">
	<path class="st2" d="M537.76,31.06c-0.02-0.05-0.03-0.12,0-0.18c0.05-0.12,0.19-0.18,0.31-0.13l8.59,3.3
		c0.12,0.05,0.18,0.18,0.13,0.3s-0.19,0.18-0.31,0.13l-8.59-3.3C537.83,31.16,537.79,31.11,537.76,31.06z"/>
</g>
<g class="st7">
	<path class="st2" d="M546.2,62.62c-0.01-0.03-0.02-0.06-0.03-0.1l-4.77-29.45c-0.04-0.22,0.12-0.43,0.35-0.47
		c0.23-0.03,0.45,0.12,0.48,0.34L547,62.39c0.04,0.22-0.12,0.43-0.35,0.47C546.46,62.89,546.28,62.79,546.2,62.62z"/>
</g>
<path class="st2" d="M560.49,46.41c0.28,0.61-0.02,1.33-0.66,1.59s-1.38-0.02-1.66-0.63s0.02-1.33,0.66-1.59
	C559.48,45.51,560.22,45.79,560.49,46.41z"/>
<path class="st2" d="M539.1,30.5c0.26,0.59-0.02,1.28-0.63,1.53c-0.61,0.25-1.33-0.02-1.59-0.61s0.02-1.28,0.63-1.53
	C538.12,29.64,538.83,29.91,539.1,30.5z"/>
<path class="st2" d="M547.82,33.75c0.3,0.66-0.02,1.43-0.71,1.71s-1.48-0.02-1.78-0.68s0.02-1.43,0.71-1.71
	S547.53,33.09,547.82,33.75z"/>
<path class="st2" d="M543.22,32.43c0.33,0.74-0.02,1.6-0.8,1.92c-0.77,0.32-1.67-0.02-2-0.77c-0.33-0.74,0.02-1.6,0.8-1.92
	C541.99,31.35,542.89,31.69,543.22,32.43z"/>
<path class="st2" d="M548.16,61.81c0.37,0.83-0.03,1.79-0.89,2.15c-0.86,0.36-1.87-0.03-2.24-0.86s0.03-1.79,0.89-2.15
	C546.78,60.6,547.78,60.98,548.16,61.81z"/>
<path class="st2" d="M226.5,54.33c0.32,0.71-0.02,1.53-0.76,1.84s-1.59-0.02-1.91-0.73s0.02-1.53,0.76-1.84
	C225.33,53.29,226.18,53.62,226.5,54.33z"/>
<path class="st2" d="M252.03,63.95c0.32,0.71-0.02,1.53-0.76,1.84s-1.59-0.02-1.91-0.73c-0.32-0.71,0.02-1.53,0.76-1.84
	S251.72,63.24,252.03,63.95z"/>
<path class="st2" d="M152.64,51.47c0.21,0.47-0.02,1.01-0.5,1.21c-0.49,0.2-1.05-0.01-1.26-0.48s0.02-1.01,0.5-1.21
	C151.86,50.78,152.43,51,152.64,51.47z"/>
<path class="st2" d="M201.89,59.41c0.44,0.98-0.03,2.12-1.05,2.54s-2.2-0.03-2.64-1.01s0.03-2.12,1.05-2.54
	C200.27,57.97,201.45,58.43,201.89,59.41z"/>
<path class="st2" d="M113.55,30.92c0.22,0.49-0.02,1.05-0.52,1.26c-0.51,0.21-1.09-0.02-1.31-0.5c-0.22-0.49,0.02-1.05,0.52-1.26
	S113.33,30.44,113.55,30.92z"/>
<path class="st2" d="M128.38,59.07c0.22,0.49-0.02,1.05-0.52,1.26c-0.51,0.21-1.09-0.02-1.31-0.5c-0.22-0.49,0.02-1.05,0.52-1.26
	C127.58,58.36,128.16,58.59,128.38,59.07z"/>
<path class="st2" d="M193.26,46.23c0.22,0.49-0.02,1.05-0.52,1.26c-0.51,0.21-1.09-0.02-1.31-0.5c-0.22-0.49,0.02-1.05,0.52-1.26
	C192.46,45.52,193.05,45.74,193.26,46.23z"/>
<path class="st2" d="M173.1,25.51c0.22,0.49-0.02,1.05-0.52,1.26c-0.51,0.21-1.09-0.02-1.31-0.5c-0.22-0.49,0.02-1.05,0.52-1.26
	C172.3,24.8,172.88,25.03,173.1,25.51z"/>
<path class="st2" d="M78.85,29.62c0.22,0.49-0.02,1.05-0.52,1.26s-1.09-0.02-1.31-0.5c-0.22-0.49,0.02-1.05,0.52-1.26
	C78.05,28.9,78.63,29.13,78.85,29.62z"/>
<path class="st2" d="M77.85,19.22c0.22,0.49-0.02,1.05-0.52,1.26c-0.51,0.21-1.09-0.02-1.31-0.5c-0.22-0.49,0.02-1.05,0.52-1.26
	C77.05,18.51,77.64,18.73,77.85,19.22z"/>
<path class="st2" d="M110.83,19.22c0.22,0.49-0.02,1.05-0.52,1.26c-0.51,0.21-1.09-0.02-1.31-0.5c-0.22-0.49,0.02-1.05,0.52-1.26
	C110.03,18.51,110.61,18.73,110.83,19.22z"/>
<path class="st2" d="M232.93,13.25c0.32,0.71-0.02,1.53-0.76,1.84s-1.59-0.02-1.91-0.73c-0.32-0.71,0.02-1.53,0.76-1.84
	C231.75,12.21,232.61,12.54,232.93,13.25z"/>
<path class="st2" d="M258.43,64.83c0.21,0.48-0.02,1.03-0.51,1.23s-1.07-0.02-1.28-0.49c-0.21-0.48,0.02-1.03,0.51-1.23
	C257.64,64.13,258.21,64.35,258.43,64.83z"/>
</svg>
