<?xml version="1.0" encoding="utf-8"?>
<!-- Generator: Adobe Illustrator 25.2.1, SVG Export Plug-In . SVG Version: 6.00 Build 0)  -->
<svg version="1.1" id="Layer_1" xmlns="http://www.w3.org/2000/svg" xmlns:xlink="http://www.w3.org/1999/xlink" x="0px" y="0px"
	 viewBox="0 0 584.76 74.12" style="enable-background:new 0 0 584.76 74.12;" xml:space="preserve">
<style type="text/css">
	.st0{opacity:0.5;fill:#231F20;enable-background:new    ;}
	.st1{fill:#FFFFFF;}
	.st2{opacity:0.29;}
	.st3{fill:#231F20;}
	.st4{opacity:0.31;}
	.st5{opacity:0.43;}
	.st6{opacity:0.34;}
	.st7{opacity:0.33;}
	.st8{opacity:0.35;}
	.st9{opacity:0.36;}
	.st10{opacity:0.47;}
	.st11{opacity:0.32;}
	.st12{opacity:0.3;}
	.st13{opacity:0.39;}
	.st14{opacity:0.38;}
	.st15{opacity:0.37;}
	.st16{opacity:0.4;}
	.st17{opacity:0.45;}
	.st18{opacity:0.46;}
	.st19{opacity:0.42;}
	.st20{opacity:0.41;}
	.st21{opacity:0.44;}
	.st22{opacity:0.5;}
	.st23{opacity:0.49;}
	.st24{opacity:0.52;}
	.st25{opacity:0.57;}
	.st26{opacity:0.53;}
	.st27{opacity:0.94;fill:#231F20;enable-background:new    ;}
	.st28{opacity:0.96;fill:#231F20;enable-background:new    ;}
	.st29{opacity:0.98;fill:#231F20;enable-background:new    ;}
	.st30{opacity:0.89;fill:#231F20;enable-background:new    ;}
	.st31{opacity:0.9;fill:#231F20;enable-background:new    ;}
	.st32{opacity:0.92;fill:#231F20;enable-background:new    ;}
	.st33{opacity:0.97;fill:#231F20;enable-background:new    ;}
	.st34{opacity:0.95;fill:#231F20;enable-background:new    ;}
	.st35{opacity:0.99;fill:#231F20;enable-background:new    ;}
	.st36{opacity:0.88;fill:#231F20;enable-background:new    ;}
	.st37{opacity:0.86;fill:#231F20;enable-background:new    ;}
	.st38{opacity:0.84;fill:#231F20;enable-background:new    ;}
</style>
<g>
	<path class="st0" d="M-1502.09,953.29c-0.05,1.34-1,2.38-2.12,2.31c-1.12-0.06-1.98-1.2-1.93-2.54c0.05-1.34,1-2.38,2.12-2.31
		C-1502.9,950.81-1502.03,951.95-1502.09,953.29z"/>
</g>
<rect x="0.45" y="0.52" class="st1" width="583.87" height="73.65"/>
<g class="st2">
	<path class="st3" d="M522.18,37.38c-0.01-0.03-0.01-0.07,0.02-0.1l9.98-10.46c0.04-0.04,0.1-0.04,0.14-0.01
		c0.04,0.03,0.04,0.1,0.01,0.13l-9.98,10.46c-0.04,0.04-0.1,0.04-0.14,0.01C522.2,37.4,522.19,37.39,522.18,37.38z"/>
</g>
<g class="st4">
	<path class="st3" d="M524.99,17.38c-0.02-0.04-0.01-0.1,0.04-0.12c0.05-0.03,0.11-0.02,0.15,0.02l7.16,9.54
		c0.03,0.04,0.02,0.11-0.02,0.14c-0.05,0.03-0.11,0.02-0.15-0.02l-7.16-9.54C525,17.4,525,17.39,524.99,17.38z"/>
</g>
<g class="st4">
	<path class="st3" d="M516.83,28.09c-0.01-0.03-0.01-0.07,0.01-0.1l8.17-10.71c0.03-0.05,0.1-0.06,0.15-0.02
		c0.05,0.03,0.06,0.1,0.02,0.14l-8.17,10.71c-0.03,0.05-0.1,0.06-0.15,0.02C516.84,28.12,516.83,28.11,516.83,28.09z"/>
</g>
<g class="st5">
	<path class="st3" d="M520.37,12.52c-0.03-0.07-0.01-0.14,0.04-0.2c0.07-0.06,0.19-0.06,0.25,0.01l4.56,4.89
		c0.06,0.07,0.06,0.18-0.01,0.24s-0.19,0.06-0.25-0.01l-4.56-4.89C520.38,12.55,520.37,12.53,520.37,12.52z"/>
</g>
<g class="st6">
	<path class="st3" d="M511.47,20.82c-0.02-0.04-0.01-0.1,0.03-0.13l8.95-8.33c0.05-0.05,0.13-0.04,0.17,0
		c0.05,0.05,0.05,0.12,0,0.17l-8.95,8.33c-0.05,0.05-0.13,0.04-0.17,0C511.48,20.85,511.47,20.84,511.47,20.82z"/>
</g>
<g class="st7">
	<path class="st3" d="M520.43,12.49c0,0,0-0.01-0.01-0.01L516.85,0.5c-0.02-0.06,0.02-0.12,0.08-0.14c0.06-0.02,0.12,0.01,0.14,0.08
		l3.57,11.98c0.02,0.06-0.02,0.12-0.08,0.14C520.51,12.57,520.45,12.54,520.43,12.49z"/>
</g>
<g class="st8">
	<path class="st3" d="M523.4,51.25c-0.01-0.03-0.02-0.06-0.01-0.09c0.02-0.07,0.1-0.11,0.17-0.09l7.04,1.92
		c0.07,0.02,0.12,0.09,0.1,0.16c-0.02,0.07-0.1,0.11-0.17,0.09l-7.04-1.92C523.45,51.32,523.42,51.29,523.4,51.25z"/>
</g>
<g class="st8">
	<path class="st3" d="M528.56,59.66c-0.01-0.03-0.02-0.06-0.01-0.09l1.89-6.48c0.02-0.07,0.1-0.11,0.17-0.09s0.12,0.09,0.1,0.16
		l-1.89,6.48c-0.02,0.07-0.1,0.11-0.17,0.09C528.6,59.72,528.57,59.69,528.56,59.66z"/>
</g>
<g class="st9">
	<path class="st3" d="M524.91,47.21c-0.02-0.05-0.01-0.12,0.04-0.16c0.06-0.05,0.15-0.05,0.2,0.01l5.53,5.97
		c0.05,0.06,0.05,0.14-0.01,0.19s-0.15,0.05-0.2-0.01l-5.53-5.97C524.92,47.23,524.91,47.22,524.91,47.21z"/>
</g>
<g class="st4">
	<path class="st3" d="M517.07,42.48c-0.01-0.03-0.01-0.07,0.01-0.1c0.03-0.05,0.1-0.07,0.16-0.04l7.87,4.72
		c0.05,0.03,0.07,0.1,0.04,0.15c-0.03,0.05-0.1,0.07-0.16,0.04l-7.87-4.72C517.09,42.52,517.08,42.5,517.07,42.48z"/>
</g>
<g class="st10">
	<path class="st3" d="M523.33,51.29c-0.02-0.05-0.02-0.1-0.01-0.16l1.51-4.05c0.04-0.11,0.17-0.17,0.28-0.13
		c0.12,0.04,0.18,0.16,0.13,0.27l-1.51,4.05c-0.04,0.11-0.17,0.17-0.28,0.13C523.4,51.38,523.35,51.34,523.33,51.29z"/>
</g>
<g class="st7">
	<path class="st3" d="M524.93,47.2c0-0.01,0-0.01-0.01-0.02l-2.76-9.81c-0.02-0.06,0.02-0.13,0.09-0.14
		c0.07-0.02,0.13,0.02,0.15,0.08l2.76,9.81c0.02,0.06-0.02,0.13-0.09,0.14C525.01,47.28,524.95,47.25,524.93,47.2z"/>
</g>
<g class="st7">
	<path class="st3" d="M517.06,42.48c-0.02-0.04-0.01-0.1,0.03-0.13l5.1-5.09c0.05-0.05,0.13-0.05,0.18,0s0.05,0.12,0,0.17l-5.1,5.09
		c-0.05,0.05-0.13,0.05-0.18,0C517.07,42.51,517.06,42.5,517.06,42.48z"/>
</g>
<g class="st11">
	<path class="st3" d="M516.81,28.09c-0.02-0.05,0-0.12,0.05-0.15c0.06-0.03,0.13-0.01,0.16,0.04l5.35,9.29
		c0.03,0.06,0.01,0.12-0.05,0.16c-0.06,0.03-0.13,0.01-0.16-0.04l-5.35-9.29C516.82,28.1,516.82,28.1,516.81,28.09z"/>
</g>
<g class="st7">
	<path class="st3" d="M511.79,32.36c-0.02-0.04-0.01-0.1,0.03-0.13l5.02-4.27c0.05-0.04,0.12-0.04,0.17,0.01
		c0.04,0.05,0.04,0.12-0.01,0.16l-5.02,4.27c-0.05,0.04-0.12,0.04-0.17-0.01C511.8,32.38,511.8,32.37,511.79,32.36z"/>
</g>
<g class="st9">
	<path class="st3" d="M511.45,20.83c-0.03-0.06-0.01-0.12,0.05-0.16s0.15-0.03,0.19,0.03l5.34,7.27c0.04,0.06,0.03,0.14-0.03,0.19
		c-0.06,0.04-0.15,0.03-0.19-0.03l-5.34-7.27C511.46,20.85,511.46,20.84,511.45,20.83z"/>
</g>
<g class="st12">
	<path class="st3" d="M504.67,20.74c-0.01-0.01-0.01-0.03-0.01-0.04c0-0.05,0.05-0.1,0.1-0.1l6.81,0.08c0.06,0,0.1,0.05,0.1,0.1
		c0,0.05-0.05,0.1-0.1,0.1l-6.81-0.08C504.72,20.8,504.69,20.77,504.67,20.74z"/>
</g>
<g class="st4">
	<path class="st3" d="M504.86,10.04c-0.02-0.05,0-0.1,0.04-0.13c0.05-0.03,0.12-0.01,0.15,0.04l6.62,10.77
		c0.03,0.05,0.01,0.11-0.04,0.14c-0.05,0.03-0.12,0.01-0.15-0.04l-6.62-10.77C504.87,10.05,504.87,10.05,504.86,10.04z"/>
</g>
<g class="st13">
	<path class="st3" d="M500.83,12.12c-0.03-0.07,0-0.15,0.07-0.18l4-2.06c0.07-0.04,0.16-0.01,0.2,0.06
		c0.04,0.08,0.01,0.15-0.06,0.19l-4,2.06c-0.07,0.04-0.16,0.01-0.2-0.06C500.83,12.13,500.83,12.12,500.83,12.12z"/>
</g>
<g class="st14">
	<path class="st3" d="M528.54,59.66c-0.02-0.04-0.02-0.1,0.01-0.14c0.05-0.07,0.14-0.08,0.21-0.04l6.8,4.37
		c0.07,0.05,0.09,0.13,0.04,0.2s-0.14,0.08-0.21,0.04l-6.8-4.37C528.57,59.71,528.56,59.69,528.54,59.66z"/>
</g>
<g class="st12">
	<path class="st3" d="M527.34,61.49c-0.01-0.03-0.01-0.07,0.01-0.1l1.24-1.85c0.03-0.05,0.1-0.06,0.15-0.03
		c0.05,0.03,0.06,0.09,0.03,0.14l-1.24,1.85c-0.03,0.05-0.1,0.06-0.15,0.03C527.36,61.53,527.35,61.51,527.34,61.49z"/>
</g>
<g class="st7">
	<path class="st3" d="M523.42,51.25c-0.02-0.05,0-0.12,0.05-0.15c0.06-0.03,0.13-0.01,0.17,0.04l5.15,8.4
		c0.04,0.06,0.01,0.13-0.04,0.16c-0.06,0.03-0.13,0.01-0.17-0.04l-5.15-8.4C523.42,51.26,523.42,51.25,523.42,51.25z"/>
</g>
<g class="st2">
	<path class="st3" d="M519.5,56.27c-0.01-0.03-0.01-0.07,0.01-0.09l3.94-5.04c0.03-0.04,0.09-0.05,0.14-0.02
		c0.04,0.03,0.05,0.09,0.02,0.13l-3.94,5.04c-0.03,0.04-0.09,0.05-0.14,0.02C519.52,56.3,519.51,56.29,519.5,56.27z"/>
</g>
<g class="st4">
	<path class="st3" d="M517.07,42.48c-0.02-0.05-0.01-0.1,0.04-0.13s0.12-0.02,0.16,0.03l6.36,8.77c0.04,0.05,0.02,0.12-0.03,0.15
		s-0.12,0.02-0.16-0.03l-6.36-8.77C517.07,42.49,517.07,42.48,517.07,42.48z"/>
</g>
<g class="st11">
	<path class="st3" d="M513.55,42.23c-0.01-0.02-0.01-0.03-0.01-0.05c0-0.06,0.06-0.11,0.12-0.1l3.52,0.25
		c0.06,0,0.11,0.06,0.11,0.12s-0.06,0.11-0.12,0.1l-3.52-0.25C513.6,42.29,513.56,42.26,513.55,42.23z"/>
</g>
<g class="st11">
	<path class="st3" d="M511.79,32.36c-0.02-0.05,0-0.12,0.05-0.14c0.06-0.03,0.13-0.01,0.15,0.05l5.27,10.12
		c0.04,0.05,0.01,0.12-0.05,0.15s-0.13,0.01-0.15-0.05L511.79,32.36C511.8,32.36,511.79,32.36,511.79,32.36z"/>
</g>
<g class="st7">
	<path class="st3" d="M500.07,15.57c-0.02-0.04-0.01-0.09,0.03-0.12c0.05-0.04,0.12-0.03,0.16,0.01l4.6,5.17
		c0.04,0.04,0.03,0.11-0.01,0.15c-0.05,0.04-0.12,0.03-0.16-0.01l-4.6-5.17C500.08,15.59,500.07,15.58,500.07,15.57z"/>
</g>
<g class="st15">
	<path class="st3" d="M504.65,20.75c-0.03-0.06,0-0.12,0.05-0.16c0.06-0.04,0.14-0.02,0.18,0.04l1.53,2.38
		c0.04,0.06,0.02,0.14-0.04,0.17c-0.06,0.04-0.14,0.02-0.18-0.04l-1.53-2.38C504.65,20.76,504.65,20.76,504.65,20.75z"/>
</g>
<g class="st16">
	<path class="st3" d="M504.63,20.76L504.63,20.76l-3.81-8.64c-0.03-0.07,0-0.16,0.08-0.19c0.08-0.03,0.16,0,0.2,0.08l0,0l3.81,8.64
		c0.03,0.07,0,0.16-0.08,0.19C504.75,20.87,504.66,20.83,504.63,20.76z"/>
</g>
<g class="st11">
	<path class="st3" d="M500.07,15.57c-0.01-0.02-0.01-0.04-0.01-0.06l0.79-3.47c0.01-0.06,0.07-0.09,0.13-0.08s0.09,0.07,0.08,0.12
		l-0.79,3.47c-0.01,0.06-0.07,0.09-0.13,0.08C500.11,15.63,500.08,15.6,500.07,15.57z"/>
</g>
<g class="st7">
	<path class="st3" d="M494.64,1.1c-0.02-0.05,0-0.11,0.05-0.14c0.06-0.03,0.13-0.01,0.16,0.04l6.21,11.01
		c0.03,0.05,0.01,0.12-0.05,0.15s-0.13,0.01-0.16-0.04L494.64,1.1C494.64,1.11,494.64,1.1,494.64,1.1z"/>
</g>
<g class="st8">
	<path class="st3" d="M492.75,1.14c-0.01-0.01-0.01-0.03-0.01-0.05c0-0.07,0.05-0.12,0.12-0.12l1.88-0.03
		c0.07,0,0.13,0.05,0.13,0.12s-0.05,0.12-0.12,0.12l-1.88,0.03C492.81,1.21,492.77,1.18,492.75,1.14z"/>
</g>
<g class="st13">
	<path class="st3" d="M527.31,61.51c0-0.01-0.01-0.01-0.01-0.02c-0.02-0.08,0.03-0.15,0.11-0.17l2.46-0.58
		c0.08-0.02,0.16,0.02,0.18,0.1c0.02,0.08-0.03,0.15-0.11,0.17l-2.46,0.58C527.4,61.61,527.33,61.57,527.31,61.51z"/>
</g>
<g class="st15">
	<path class="st3" d="M519.47,56.29c-0.02-0.04-0.02-0.09,0.01-0.13c0.04-0.06,0.13-0.08,0.19-0.03l7.85,5.22
		c0.06,0.04,0.08,0.12,0.04,0.19c-0.04,0.06-0.13,0.08-0.19,0.03l-7.85-5.22C519.49,56.33,519.48,56.31,519.47,56.29z"/>
</g>
<g class="st11">
	<path class="st3" d="M513.55,42.22c-0.01-0.02-0.01-0.03-0.01-0.05l1.03-12.86c0-0.06,0.06-0.1,0.11-0.09c0.06,0,0.1,0.05,0.1,0.11
		l-1.03,12.86c0,0.06-0.06,0.1-0.11,0.09C513.6,42.28,513.57,42.26,513.55,42.22z"/>
</g>
<g class="st16">
	<path class="st3" d="M514.54,29.38c-0.01-0.03-0.02-0.06-0.01-0.09l2.23-8.88c0.02-0.08,0.1-0.13,0.19-0.11
		c0.08,0.02,0.13,0.1,0.11,0.18l-2.23,8.88c-0.02,0.08-0.1,0.13-0.19,0.11C514.6,29.46,514.56,29.42,514.54,29.38z"/>
</g>
<g class="st6">
	<path class="st3" d="M514.57,29.37c-0.02-0.05-0.01-0.11,0.04-0.14l9.72-6.68c0.05-0.04,0.13-0.02,0.17,0.03
		c0.04,0.05,0.03,0.12-0.03,0.16l-9.72,6.68c-0.05,0.04-0.13,0.02-0.17-0.03C514.58,29.38,514.58,29.38,514.57,29.37z"/>
</g>
<g class="st9">
	<path class="st3" d="M506.18,23.13c-0.02-0.04-0.01-0.09,0.02-0.12c0.04-0.05,0.12-0.06,0.18-0.02l8.38,6.24
		c0.05,0.04,0.07,0.12,0.02,0.17c-0.04,0.05-0.12,0.06-0.18,0.02l-8.38-6.24C506.2,23.17,506.19,23.15,506.18,23.13z"/>
</g>
<g class="st16">
	<path class="st3" d="M500.03,15.59c-0.03-0.06-0.01-0.13,0.05-0.17c0.07-0.05,0.16-0.04,0.21,0.02l6.13,7.55
		c0.05,0.06,0.04,0.15-0.03,0.2c-0.07,0.05-0.16,0.04-0.21-0.02l-6.13-7.55C500.04,15.61,500.03,15.6,500.03,15.59z"/>
</g>
<g class="st17">
	<path class="st3" d="M492.69,1.16c-0.04-0.08,0-0.19,0.08-0.23c0.09-0.05,0.21-0.02,0.26,0.07l2.11,3.62
		c0.05,0.08,0.02,0.2-0.07,0.25c-0.09,0.05-0.21,0.02-0.26-0.07l-2.11-3.62C492.69,1.17,492.69,1.17,492.69,1.16z"/>
</g>
<g class="st11">
	<path class="st3" d="M529.79,60.91c-0.02-0.04-0.01-0.09,0.03-0.12c0.05-0.04,0.12-0.03,0.16,0.01l8.31,9.72
		c0.04,0.05,0.03,0.11-0.01,0.15c-0.05,0.04-0.12,0.03-0.16-0.01l-8.31-9.72C529.8,60.93,529.8,60.92,529.79,60.91z"/>
</g>
<g class="st18">
	<path class="st3" d="M516.73,20.52c-0.02-0.04-0.02-0.09-0.01-0.13c0.03-0.1,0.15-0.16,0.25-0.13l7.49,2.2
		c0.11,0.03,0.17,0.14,0.13,0.24c-0.03,0.1-0.15,0.16-0.25,0.13l-7.49-2.2C516.8,20.61,516.75,20.57,516.73,20.52z"/>
</g>
<g class="st11">
	<path class="st3" d="M504.4,11.64c-0.02-0.03-0.01-0.07,0.01-0.11l4.04-5.99c0.04-0.05,0.11-0.07,0.16-0.03
		c0.05,0.04,0.07,0.11,0.04,0.16l-4.04,5.99c-0.04,0.05-0.11,0.07-0.16,0.03C504.42,11.67,504.41,11.66,504.4,11.64z"/>
</g>
<g class="st6">
	<path class="st3" d="M494.86,4.76c-0.02-0.04-0.01-0.09,0.02-0.12c0.04-0.06,0.13-0.07,0.18-0.03l9.53,6.88
		c0.06,0.04,0.07,0.12,0.03,0.18s-0.13,0.07-0.18,0.03l-9.53-6.88C494.88,4.8,494.86,4.78,494.86,4.76z"/>
</g>
<g class="st11">
	<path class="st3" d="M494.87,4.75c-0.01-0.03-0.01-0.05,0-0.08l0.25-0.62c0.02-0.06,0.09-0.09,0.15-0.06
		c0.06,0.02,0.09,0.08,0.07,0.14l-0.25,0.62c-0.02,0.06-0.09,0.09-0.15,0.06C494.9,4.8,494.88,4.78,494.87,4.75z"/>
</g>
<g class="st8">
	<path class="st3" d="M495.1,4.14c-0.01-0.02-0.01-0.04-0.01-0.07c0.01-0.07,0.08-0.13,0.15-0.12l13.32,1.52
		c0.08,0.01,0.13,0.08,0.12,0.15s-0.08,0.13-0.15,0.12l-13.32-1.52C495.16,4.21,495.11,4.18,495.1,4.14z"/>
</g>
<g class="st5">
	<path class="st3" d="M521.93,1.3c-0.02-0.04-0.02-0.08-0.01-0.12c0.02-0.11,0.14-0.19,0.26-0.17l8.91,1.67
		c0.12,0.02,0.19,0.13,0.17,0.25c-0.02,0.11-0.14,0.19-0.26,0.17l-8.91-1.67C522.02,1.41,521.96,1.36,521.93,1.3z"/>
</g>
<g class="st13">
	<path class="st3" d="M527.41,6.13c-0.03-0.07-0.02-0.14,0.04-0.2l3.47-3.18c0.07-0.07,0.19-0.06,0.26,0.01s0.07,0.18-0.01,0.25
		l-3.47,3.18c-0.07,0.07-0.19,0.06-0.26-0.01C527.43,6.17,527.41,6.15,527.41,6.13z"/>
</g>
<g class="st6">
	<path class="st3" d="M514.68,0.99c-0.01-0.02-0.01-0.05-0.01-0.07c0.01-0.08,0.08-0.13,0.16-0.12l16.23,1.96
		c0.08,0.01,0.14,0.08,0.13,0.16c-0.01,0.08-0.08,0.13-0.16,0.12L514.8,1.08C514.74,1.06,514.7,1.03,514.68,0.99z"/>
</g>
<g class="st19">
	<path class="st3" d="M514.62,1.01c-0.01-0.03-0.02-0.06-0.02-0.09c0-0.11,0.1-0.19,0.21-0.19l7.32,0.29c0.11,0,0.2,0.1,0.2,0.21
		s-0.1,0.19-0.21,0.19l-7.32-0.29C514.72,1.13,514.65,1.08,514.62,1.01z"/>
</g>
<g class="st20">
	<path class="st3" d="M492.87-1.14c-0.03-0.08-0.01-0.17,0.07-0.22c0.09-0.05,0.2-0.03,0.26,0.05l2.23,3.22
		c0.06,0.08,0.03,0.19-0.05,0.25c-0.09,0.05-0.2,0.03-0.26-0.05l-2.23-3.22C492.88-1.12,492.88-1.13,492.87-1.14z"/>
</g>
<g class="st7">
	<path class="st3" d="M531.35,25.18c0-0.01-0.01-0.02-0.01-0.03l-2.2-14.09c-0.01-0.08,0.04-0.15,0.12-0.16
		c0.08-0.01,0.16,0.04,0.17,0.12l2.2,14.09c0.01,0.08-0.04,0.15-0.12,0.16C531.44,25.28,531.38,25.24,531.35,25.18z"/>
</g>
<g class="st14">
	<path class="st3" d="M518.16-0.23c-0.02-0.05-0.02-0.12,0.02-0.17c0.06-0.08,0.17-0.1,0.25-0.04l9.24,6.36
		c0.08,0.06,0.1,0.17,0.04,0.24c-0.06,0.08-0.17,0.1-0.25,0.04l-9.24-6.37C518.2-0.18,518.18-0.2,518.16-0.23z"/>
</g>
<g class="st17">
	<path class="st3" d="M529.07,11.12c0-0.01-0.01-0.01-0.01-0.02l-1.72-4.97c-0.04-0.12,0.03-0.25,0.15-0.29s0.26,0.03,0.3,0.15
		l1.72,4.97c0.04,0.12-0.03,0.25-0.15,0.29C529.25,11.29,529.12,11.23,529.07,11.12z"/>
</g>
<g class="st18">
	<path class="st3" d="M521.91,1.31c-0.04-0.08-0.02-0.18,0.04-0.25c0.09-0.09,0.24-0.1,0.34-0.01l5.44,4.85
		c0.1,0.09,0.1,0.23,0.01,0.33c-0.09,0.09-0.24,0.1-0.34,0.01l-5.44-4.85C521.94,1.37,521.93,1.34,521.91,1.31z"/>
</g>
<g class="st9">
	<path class="st3" d="M518.18-0.24c-0.02-0.04-0.02-0.08,0-0.12c0.04-0.08,0.13-0.12,0.22-0.09l3.8,1.52
		c0.08,0.03,0.12,0.13,0.09,0.21c-0.04,0.08-0.13,0.12-0.22,0.09l-3.8-1.52C518.23-0.17,518.2-0.2,518.18-0.24z"/>
</g>
<g class="st7">
	<path class="st3" d="M489.37-0.62c0-0.01-0.01-0.02-0.01-0.03c-0.01-0.07,0.04-0.14,0.12-0.15l3.55-0.54
		c0.08-0.01,0.15,0.04,0.16,0.11c0.01,0.07-0.04,0.14-0.12,0.15l-3.55,0.54C489.46-0.53,489.4-0.56,489.37-0.62z"/>
</g>
<g class="st21">
	<path class="st3" d="M530.9,22.22c-0.01-0.02-0.01-0.03-0.02-0.05l-1.82-11.1c-0.02-0.12,0.07-0.24,0.19-0.26
		c0.13-0.02,0.25,0.06,0.27,0.19l1.82,11.1c0.02,0.12-0.07,0.24-0.19,0.26C531.04,22.37,530.94,22.31,530.9,22.22z"/>
</g>
<g class="st11">
	<path class="st3" d="M530.43,25.11c-0.01-0.01-0.01-0.03-0.01-0.04l-1.28-14.03c-0.01-0.08,0.05-0.15,0.13-0.15
		c0.08-0.01,0.15,0.05,0.16,0.13l1.28,14.03c0.01,0.08-0.05,0.15-0.13,0.15C530.51,25.2,530.46,25.17,530.43,25.11z"/>
</g>
<g class="st8">
	<path class="st3" d="M518.18-0.24c-0.03-0.06-0.01-0.13,0.04-0.18c0.07-0.06,0.17-0.06,0.23,0.01l10.96,11.33
		c0.06,0.06,0.06,0.16-0.01,0.22s-0.17,0.06-0.23-0.01L518.21-0.2C518.2-0.21,518.19-0.22,518.18-0.24z"/>
</g>
<g class="st19">
	<path class="st3" d="M485.52,6.31c-0.03-0.06-0.02-0.12,0.01-0.18l3.78-6.89c0.06-0.1,0.19-0.14,0.29-0.09
		c0.11,0.05,0.15,0.18,0.09,0.28l-3.78,6.89c-0.06,0.1-0.19,0.14-0.29,0.09C485.57,6.39,485.54,6.35,485.52,6.31z"/>
</g>
<g class="st9">
	<path class="st3" d="M520.14,15.01c-0.03-0.06-0.01-0.14,0.04-0.19c0.07-0.07,0.18-0.06,0.25,0l10.27,10.12
		c0.07,0.07,0.07,0.18,0,0.24c-0.07,0.07-0.18,0.06-0.25,0l-10.27-10.12C520.16,15.04,520.14,15.03,520.14,15.01z"/>
</g>
<g class="st11">
	<path class="st3" d="M509.57,29.98c-0.02-0.04-0.02-0.1,0.01-0.14l10.59-14.98c0.05-0.07,0.14-0.08,0.21-0.04
		c0.07,0.05,0.09,0.13,0.04,0.2L509.83,30c-0.05,0.07-0.14,0.08-0.21,0.04C509.6,30.03,509.58,30,509.57,29.98z"/>
</g>
<g class="st6">
	<path class="st3" d="M485.57,6.28c-0.03-0.07,0-0.16,0.07-0.2c0.08-0.04,0.17-0.01,0.21,0.07l7.51,14.13
		c0.04,0.07,0.01,0.17-0.07,0.21c-0.08,0.04-0.17,0.01-0.21-0.07L485.57,6.28C485.58,6.29,485.57,6.29,485.57,6.28z"/>
</g>
<g class="st5">
	<path class="st3" d="M509.49,30.01c-0.04-0.08-0.02-0.18,0.04-0.24c0.09-0.09,0.24-0.1,0.34-0.02l8.2,7.15
		c0.1,0.09,0.1,0.23,0.02,0.32c-0.09,0.09-0.24,0.1-0.34,0.02l-8.2-7.15C509.52,30.07,509.5,30.04,509.49,30.01z"/>
</g>
<g class="st6">
	<path class="st3" d="M491.57,36.54C491.57,36.53,491.57,36.53,491.57,36.54c-0.03-0.09,0.01-0.18,0.09-0.21l17.99-6.55
		c0.08-0.03,0.18,0.01,0.21,0.09s-0.01,0.17-0.09,0.2l-17.99,6.55C491.69,36.65,491.6,36.61,491.57,36.54z"/>
</g>
<g class="st7">
	<path class="st3" d="M471.26,36.61c-0.02-0.04-0.02-0.08,0-0.12l1.79-3.37c0.04-0.07,0.13-0.1,0.2-0.06
		c0.07,0.04,0.1,0.12,0.06,0.19l-1.79,3.37c-0.04,0.07-0.13,0.1-0.2,0.06C471.29,36.67,471.27,36.64,471.26,36.61z"/>
</g>
<g class="st19">
	<path class="st3" d="M471.2,36.64c-0.01-0.02-0.02-0.04-0.02-0.07l-0.67-12.65c-0.01-0.11,0.08-0.2,0.2-0.21
		c0.11-0.01,0.21,0.08,0.22,0.19l0.67,12.65c0.01,0.11-0.08,0.2-0.2,0.21C471.31,36.76,471.24,36.71,471.2,36.64z"/>
</g>
<g class="st7">
	<path class="st3" d="M473.06,33.24c0-0.01-0.01-0.01-0.01-0.02l-2.47-9.28c-0.02-0.07,0.03-0.15,0.1-0.17
		c0.08-0.02,0.15,0.03,0.17,0.1l2.47,9.28c0.02,0.07-0.03,0.15-0.1,0.17C473.15,33.34,473.08,33.3,473.06,33.24z"/>
</g>
<g class="st13">
	<path class="st3" d="M487.29,65.52c-0.03-0.07-0.02-0.15,0.04-0.21l8.31-8.37c0.08-0.08,0.2-0.08,0.28-0.01
		C496,57,496,57.12,495.93,57.2l-8.31,8.37c-0.08,0.08-0.2,0.08-0.28,0.01C487.32,65.56,487.3,65.54,487.29,65.52z"/>
</g>
<g class="st7">
	<path class="st3" d="M498.14,73.38c0-0.01-0.01-0.02-0.01-0.04l-2.49-16.25c-0.01-0.08,0.04-0.15,0.12-0.16
		c0.08-0.01,0.16,0.04,0.17,0.12l2.49,16.25c0.01,0.08-0.04,0.15-0.12,0.16C498.23,73.47,498.16,73.44,498.14,73.38z"/>
</g>
<g class="st16">
	<path class="st3" d="M471.75,40.22c-0.01-0.03-0.02-0.07-0.01-0.11l1.25-6.95c0.02-0.11,0.12-0.18,0.23-0.16
		c0.11,0.02,0.18,0.12,0.16,0.22l-1.25,6.95c-0.02,0.11-0.12,0.18-0.23,0.16C471.83,40.32,471.77,40.27,471.75,40.22z"/>
</g>
<g class="st6">
	<path class="st3" d="M473.04,33.25c-0.01-0.02-0.01-0.03-0.01-0.05l-1.23-19.13c-0.01-0.08,0.06-0.16,0.15-0.16
		c0.09-0.01,0.16,0.06,0.17,0.14l1.23,19.13c0.01,0.08-0.06,0.16-0.15,0.16C473.13,33.35,473.07,33.31,473.04,33.25z"/>
</g>
<g class="st22">
	<path class="st3" d="M471.67,14.18c-0.01-0.02-0.01-0.03-0.02-0.05l-2.4-9.6c-0.04-0.16,0.06-0.33,0.23-0.37s0.34,0.06,0.38,0.23
		l2.4,9.6c0.04,0.16-0.06,0.33-0.23,0.37C471.88,14.39,471.73,14.31,471.67,14.18z"/>
</g>
<g class="st14">
	<path class="st3" d="M487.3,65.51c-0.03-0.06-0.02-0.13,0.02-0.18c0.06-0.08,0.18-0.09,0.26-0.03l10.8,7.88
		c0.08,0.06,0.1,0.17,0.04,0.25c-0.06,0.08-0.18,0.09-0.26,0.03l-10.8-7.88C487.33,65.56,487.31,65.54,487.3,65.51z"/>
</g>
<g class="st6">
	<path class="st3" d="M475.92,55.8c-0.02-0.05-0.02-0.12,0.03-0.16c0.06-0.06,0.16-0.07,0.22-0.01l11.41,9.7
		c0.06,0.05,0.07,0.15,0.01,0.22c-0.06,0.06-0.16,0.07-0.22,0.01l-11.41-9.7C475.94,55.84,475.93,55.82,475.92,55.8z"/>
</g>
<g class="st23">
	<path class="st3" d="M470.43,64c-0.04-0.08-0.03-0.17,0.02-0.25l5.38-8.15c0.08-0.13,0.26-0.16,0.39-0.08
		c0.13,0.08,0.17,0.25,0.09,0.37l-5.38,8.15c-0.08,0.13-0.26,0.16-0.39,0.08C470.48,64.09,470.45,64.04,470.43,64z"/>
</g>
<g class="st8">
	<path class="st3" d="M475.91,55.8c0-0.01-0.01-0.02-0.01-0.02l-4.13-15.6c-0.02-0.09,0.03-0.17,0.12-0.19s0.18,0.04,0.2,0.12
		l4.13,15.6c0.02,0.09-0.03,0.17-0.12,0.19C476.02,55.91,475.94,55.87,475.91,55.8z"/>
</g>
<g class="st6">
	<path class="st3" d="M502.58,71.08c-0.02-0.03-0.02-0.07-0.01-0.11l2.22-7.37c0.03-0.09,0.12-0.14,0.21-0.11s0.14,0.12,0.12,0.2
		l-2.22,7.37c-0.03,0.09-0.12,0.14-0.21,0.11C502.64,71.16,502.6,71.12,502.58,71.08z"/>
</g>
<g class="st9">
	<path class="st3" d="M477.75,61.16c-0.02-0.04-0.02-0.09,0-0.14c0.04-0.09,0.15-0.14,0.25-0.1l11.7,4.63
		c0.1,0.04,0.14,0.15,0.1,0.24c-0.04,0.09-0.15,0.14-0.25,0.1l-11.7-4.63C477.8,61.24,477.77,61.2,477.75,61.16z"/>
</g>
<g class="st6">
	<path class="st3" d="M489.47,65.78c-0.01-0.01-0.01-0.03-0.01-0.04c-0.01-0.09,0.05-0.18,0.15-0.19l15.32-2.07
		c0.1-0.01,0.18,0.05,0.2,0.14c0.01,0.09-0.05,0.18-0.15,0.19l-15.32,2.07C489.57,65.89,489.5,65.84,489.47,65.78z"/>
</g>
<g class="st13">
	<path class="st3" d="M338.6,38.33c-0.09,0.01-0.17-0.03-0.2-0.12c-0.03-0.1,0.02-0.21,0.11-0.24l11.98-4.57
		c0.09-0.04,0.2,0.01,0.23,0.11c0.03,0.1-0.02,0.21-0.11,0.24l-11.98,4.57C338.62,38.32,338.61,38.33,338.6,38.33z"/>
</g>
<g class="st16">
	<path class="st3" d="M504.73,63.73c-0.02-0.05-0.03-0.12,0-0.17c0.05-0.12,0.19-0.17,0.31-0.13l14.19,5.38
		c0.12,0.05,0.18,0.18,0.13,0.3s-0.19,0.17-0.31,0.13l-14.19-5.38C504.8,63.83,504.76,63.79,504.73,63.73z"/>
</g>
<g class="st7">
	<path class="st3" d="M343.72,63.64c-0.04,0.01-0.09-0.01-0.12-0.05c-0.05-0.06-0.04-0.15,0.02-0.2l12.21-10.67
		c0.06-0.05,0.14-0.04,0.19,0.01c0.05,0.06,0.04,0.15-0.02,0.2L343.79,63.6C343.76,63.63,343.74,63.64,343.72,63.64z"/>
</g>
<g class="st7">
	<path class="st3" d="M323.55,54.24c-0.05,0.01-0.11-0.01-0.15-0.05l-13.83-16.32c-0.06-0.07-0.05-0.17,0.02-0.23
		c0.07-0.06,0.17-0.06,0.23,0.01l13.83,16.32c0.06,0.07,0.05,0.17-0.02,0.23C323.61,54.23,323.58,54.24,323.55,54.24z"/>
</g>
<g class="st7">
	<path class="st3" d="M58.21,22.75c-0.01-0.02-0.01-0.04-0.01-0.06c0-0.07,0.07-0.12,0.14-0.12l14.12,0.83
		c0.07,0,0.13,0.06,0.12,0.13c0,0.07-0.07,0.12-0.14,0.12l-14.12-0.83C58.28,22.82,58.23,22.79,58.21,22.75z"/>
</g>
<g class="st9">
	<path class="st3" d="M53.15,24.17c0-0.01,0-0.01-0.01-0.02c-0.02-0.08,0.02-0.16,0.1-0.18l5.04-1.41c0.08-0.02,0.16,0.01,0.19,0.1
		c0.02,0.08-0.02,0.16-0.1,0.18l-5.04,1.41C53.26,24.28,53.18,24.24,53.15,24.17z"/>
</g>
<g class="st9">
	<path class="st3" d="M365.96,71c-0.06,0.01-0.13-0.02-0.16-0.08l-6.2-10.35c-0.05-0.08-0.02-0.18,0.05-0.23
		c0.08-0.05,0.18-0.03,0.23,0.05l6.2,10.35c0.05,0.08,0.02,0.18-0.05,0.23C366,70.99,365.98,71,365.96,71z"/>
</g>
<g class="st11">
	<path class="st3" d="M323.55,54.24c-0.05,0.01-0.1-0.01-0.13-0.04c-0.06-0.06-0.06-0.16,0-0.22l11.55-12.02
		c0.06-0.06,0.16-0.06,0.22,0s0.06,0.16,0,0.22L323.64,54.2C323.61,54.21,323.58,54.23,323.55,54.24z"/>
</g>
<g class="st11">
	<path class="st3" d="M316.9,48.36c-0.03,0-0.05,0-0.08,0c-0.1-0.03-0.15-0.13-0.12-0.23l5.94-21.1c0.03-0.1,0.13-0.16,0.23-0.13
		s0.15,0.13,0.12,0.23l-5.94,21.1C317.03,48.29,316.97,48.34,316.9,48.36z"/>
</g>
<g class="st14">
	<path class="st3" d="M326.48,43.53c-0.12,0.02-0.24-0.06-0.27-0.18l-3.63-16.22c-0.03-0.13,0.05-0.26,0.18-0.3
		c0.12-0.04,0.25,0.05,0.28,0.18l3.63,16.22c0.03,0.13-0.05,0.26-0.18,0.3C326.49,43.53,326.48,43.53,326.48,43.53z"/>
</g>
<g class="st18">
	<path class="st3" d="M322.86,27.39c-0.02,0-0.04,0-0.06,0l-14.23-0.1c-0.17,0-0.31-0.15-0.31-0.33s0.15-0.33,0.32-0.33l14.23,0.1
		c0.17,0,0.31,0.15,0.31,0.33C323.13,27.23,323.01,27.36,322.86,27.39z"/>
</g>
<g class="st11">
	<path class="st3" d="M168.05,47.96c0-0.01-0.01-0.01-0.01-0.02L167.66,46c-0.01-0.06,0.03-0.11,0.09-0.12s0.12,0.03,0.13,0.08
		l0.38,1.94c0.01,0.06-0.03,0.11-0.09,0.12C168.12,48.03,168.07,48,168.05,47.96z"/>
</g>
<g class="st12">
	<path class="st3" d="M147.34,39.16c-0.01-0.02-0.01-0.05,0-0.08c0.02-0.05,0.08-0.08,0.14-0.06l9.64,3.5
		c0.06,0.02,0.08,0.08,0.06,0.13c-0.02,0.05-0.08,0.08-0.14,0.06l-9.64-3.5C147.37,39.21,147.35,39.19,147.34,39.16z"/>
</g>
<g class="st2">
	<path class="st3" d="M145.64,49.89c-0.01-0.02-0.01-0.04-0.01-0.06l1.69-10.72c0.01-0.06,0.06-0.09,0.12-0.09
		c0.06,0.01,0.1,0.06,0.09,0.12l-1.69,10.72c-0.01,0.06-0.06,0.09-0.12,0.09C145.69,49.94,145.66,49.92,145.64,49.89z"/>
</g>
<g class="st15">
	<path class="st3" d="M358.21,48.41c-0.07,0.01-0.14-0.01-0.19-0.07l-7.13-8.01c-0.08-0.09-0.07-0.23,0.01-0.31
		c0.09-0.08,0.22-0.08,0.3,0.01l7.13,8.01c0.08,0.09,0.07,0.23-0.01,0.31C358.29,48.38,358.25,48.4,358.21,48.41z"/>
</g>
<g class="st24">
	<path class="st3" d="M316.93,48.58c-0.17,0.03-0.35-0.06-0.43-0.23c-0.1-0.21-0.01-0.46,0.19-0.56l9.57-4.88
		c0.2-0.1,0.44-0.02,0.54,0.19s0.01,0.46-0.19,0.56l-9.57,4.88C317.01,48.56,316.97,48.58,316.93,48.58z"/>
</g>
<g class="st11">
	<path class="st3" d="M145.27,40.31c-0.01-0.02-0.01-0.04-0.01-0.06l2.08-13.55c0.01-0.06,0.07-0.11,0.13-0.1
		c0.06,0.01,0.11,0.07,0.1,0.13l-2.08,13.55c-0.01,0.06-0.07,0.11-0.13,0.1C145.32,40.37,145.29,40.34,145.27,40.31z"/>
</g>
<g class="st13">
	<path class="st3" d="M147.38,28.94c-0.01-0.02-0.01-0.04-0.01-0.06l-0.07-2.17c0-0.08,0.07-0.15,0.15-0.16
		c0.09,0,0.16,0.06,0.16,0.15l0.07,2.17c0,0.08-0.07,0.15-0.15,0.16C147.46,29.04,147.4,29,147.38,28.94z"/>
</g>
<g class="st15">
	<path class="st3" d="M359.6,59.64L359.6,59.64c-0.13,0.02-0.24-0.07-0.26-0.2l-1.39-11.22c-0.02-0.13,0.07-0.25,0.19-0.26
		c0.12-0.02,0.24,0.07,0.25,0.2l1.39,11.22C359.8,59.5,359.72,59.62,359.6,59.64z"/>
</g>
<g class="st20">
	<path class="st3" d="M210.88,26c-0.04-0.07-0.02-0.16,0.06-0.22l8.46-5.89c0.09-0.07,0.23-0.05,0.31,0.02
		c0.08,0.08,0.07,0.2-0.03,0.26l-8.46,5.89c-0.09,0.07-0.23,0.05-0.31-0.02C210.9,26.03,210.89,26.02,210.88,26z"/>
</g>
<g class="st11">
	<path class="st3" d="M145.27,40.31c-0.01-0.02-0.01-0.04-0.01-0.07l2.14-11.38c0.01-0.06,0.07-0.1,0.14-0.09
		c0.06,0.01,0.11,0.07,0.1,0.13l-2.14,11.38c-0.01,0.06-0.07,0.1-0.14,0.09C145.32,40.37,145.29,40.34,145.27,40.31z"/>
</g>
<g class="st19">
	<path class="st3" d="M215.8,14.66c-0.03-0.05-0.03-0.12,0-0.17l2.81-5.77c0.06-0.12,0.21-0.17,0.35-0.12
		c0.14,0.05,0.2,0.18,0.15,0.29l-2.81,5.77c-0.06,0.12-0.21,0.17-0.35,0.12C215.88,14.76,215.83,14.72,215.8,14.66z"/>
</g>
<g class="st11">
	<path class="st3" d="M226.8,25.55L226.8,25.55l-8.11-16.69c-0.04-0.08,0.01-0.17,0.1-0.2s0.2,0.01,0.24,0.08l8.11,16.69
		c0.04,0.08-0.01,0.17-0.1,0.2C226.94,25.66,226.84,25.63,226.8,25.55z"/>
</g>
<g class="st11">
	<path class="st3" d="M157.33,25.9c-0.01-0.02-0.01-0.05-0.01-0.07c0.01-0.08,0.08-0.15,0.17-0.14l16.26,1.11
		c0.09,0.01,0.15,0.08,0.15,0.16c-0.01,0.08-0.08,0.15-0.17,0.14l-16.26-1.11C157.4,25.98,157.35,25.95,157.33,25.9z"/>
</g>
<g class="st7">
	<path class="st3" d="M157.24,26.47c-0.01-0.02-0.01-0.04-0.01-0.07c0-0.09,0.08-0.15,0.17-0.15l16.35,0.54
		c0.09,0,0.16,0.08,0.16,0.16c0,0.09-0.08,0.15-0.17,0.15l-16.35-0.54C157.32,26.56,157.26,26.52,157.24,26.47z"/>
</g>
<g class="st11">
	<path class="st3" d="M157.24,26.46c-0.01-0.02-0.02-0.05-0.01-0.08l0.09-0.57c0.01-0.08,0.09-0.14,0.18-0.12
		c0.08,0.01,0.14,0.09,0.13,0.17l-0.09,0.57c-0.01,0.08-0.09,0.14-0.18,0.12C157.31,26.54,157.26,26.51,157.24,26.46z"/>
</g>
<g class="st15">
	<path class="st3" d="M239.19,45.19c-0.02-0.05-0.03-0.1,0-0.15l5.52-10.93c0.05-0.1,0.18-0.14,0.3-0.1s0.17,0.15,0.12,0.25
		l-5.52,10.93c-0.05,0.1-0.18,0.14-0.3,0.1C239.25,45.27,239.21,45.23,239.19,45.19z"/>
</g>
<g class="st6">
	<path class="st3" d="M226.78,25.56c-0.02-0.05-0.02-0.1,0.01-0.15c0.06-0.08,0.18-0.11,0.28-0.06l17.95,8.69
		c0.1,0.05,0.13,0.15,0.07,0.23c-0.06,0.08-0.18,0.11-0.28,0.06l-17.95-8.69C226.83,25.62,226.8,25.59,226.78,25.56z"/>
</g>
<g class="st15">
	<path class="st3" d="M215.84,14.65c-0.04-0.07-0.02-0.16,0.06-0.22c0.09-0.07,0.23-0.06,0.31,0.02l10.92,10.91
		c0.08,0.08,0.07,0.2-0.03,0.26c-0.09,0.07-0.23,0.06-0.31-0.02l-10.92-10.91C215.86,14.68,215.85,14.66,215.84,14.65z"/>
</g>
<g class="st11">
	<path class="st3" d="M139.91,18.47c-0.02-0.04-0.02-0.09,0-0.13c0.04-0.08,0.14-0.12,0.22-0.08l17.41,7.43
		c0.08,0.04,0.12,0.13,0.08,0.21s-0.14,0.12-0.22,0.08l-17.41-7.43C139.96,18.54,139.93,18.51,139.91,18.47z"/>
</g>
<g class="st11">
	<path class="st3" d="M225.57,60.4c-0.02-0.03-0.02-0.07-0.01-0.11c0.03-0.09,0.14-0.13,0.24-0.11l21.35,5.49
		c0.1,0.03,0.16,0.12,0.13,0.2c-0.03,0.09-0.14,0.13-0.24,0.11l-21.35-5.49C225.63,60.48,225.59,60.45,225.57,60.4z"/>
</g>
<g class="st7">
	<path class="st3" d="M225.56,60.41c-0.03-0.05-0.02-0.12,0.02-0.17l13.65-15.23c0.07-0.08,0.2-0.09,0.29-0.03s0.11,0.17,0.04,0.24
		l-13.65,15.23c-0.07,0.08-0.2,0.09-0.29,0.03C225.59,60.46,225.57,60.43,225.56,60.41z"/>
</g>
<g class="st5">
	<path class="st3" d="M226.29,39.62c-0.03-0.07-0.03-0.15,0.01-0.22c0.08-0.12,0.26-0.17,0.41-0.11l12.83,5.59
		c0.15,0.06,0.21,0.22,0.13,0.34s-0.26,0.17-0.41,0.11l-12.83-5.59C226.37,39.72,226.32,39.67,226.29,39.62z"/>
</g>
<g class="st6">
	<path class="st3" d="M226.37,39.59c-0.02-0.03-0.02-0.07-0.01-0.1l2.81-14.46c0.02-0.1,0.13-0.17,0.25-0.15
		c0.12,0.02,0.2,0.11,0.18,0.21l-2.81,14.46c-0.02,0.1-0.13,0.17-0.25,0.15C226.46,39.69,226.4,39.65,226.37,39.59z"/>
</g>
<g class="st11">
	<path class="st3" d="M120.95,50.28c-0.03-0.08,0-0.16,0.08-0.2l17.93-8.57c0.08-0.04,0.18-0.01,0.22,0.07
		c0.05,0.08,0.01,0.17-0.07,0.21l-17.93,8.57C121.09,50.4,120.99,50.37,120.95,50.28C120.95,50.29,120.95,50.29,120.95,50.28z"/>
</g>
<g class="st19">
	<path class="st3" d="M225.48,60.44c-0.06-0.11-0.01-0.25,0.12-0.31c0.14-0.07,0.32-0.03,0.4,0.09l7.81,11.43
		c0.08,0.12,0.03,0.27-0.11,0.34c-0.14,0.07-0.32,0.03-0.4-0.09l-7.81-11.43C225.49,60.45,225.48,60.44,225.48,60.44z"/>
</g>
<g class="st9">
	<path class="st3" d="M212.53,72.39c-0.03-0.07-0.02-0.15,0.04-0.2l13.01-11.98c0.08-0.08,0.23-0.08,0.32-0.01s0.1,0.19,0.01,0.27
		L212.9,72.45c-0.08,0.08-0.23,0.08-0.32,0.01C212.56,72.44,212.54,72.41,212.53,72.39z"/>
</g>
<g class="st6">
	<path class="st3" d="M204.6,55c-0.02-0.04-0.02-0.08-0.01-0.12c0.03-0.09,0.15-0.14,0.26-0.12l20.95,5.41
		c0.11,0.03,0.17,0.13,0.14,0.22c-0.03,0.09-0.15,0.15-0.26,0.12l-20.95-5.41C204.67,55.08,204.62,55.05,204.6,55z"/>
</g>
<g class="st8">
	<path class="st3" d="M184.13,58.75c-0.01-0.01-0.01-0.02-0.01-0.03c-0.03-0.1,0.05-0.19,0.16-0.21l20.47-3.75
		c0.12-0.02,0.23,0.04,0.25,0.14c0.03,0.1-0.05,0.19-0.16,0.21l-20.47,3.75C184.27,58.88,184.17,58.83,184.13,58.75z"/>
</g>
<g class="st7">
	<path class="st3" d="M212.55,72.38C212.54,72.38,212.54,72.38,212.55,72.38l-7.94-17.39c-0.04-0.09,0.01-0.19,0.12-0.22
		c0.1-0.03,0.22,0.01,0.26,0.09c0,0,0,0,0,0.01l7.94,17.38c0.04,0.09-0.01,0.19-0.12,0.22C212.7,72.51,212.59,72.47,212.55,72.38z"
		/>
</g>
<g class="st15">
	<path class="st3" d="M195.44,42.59c-0.05-0.09-0.01-0.2,0.09-0.25c0.11-0.06,0.26-0.03,0.33,0.07L205,54.83
		c0.07,0.09,0.03,0.22-0.08,0.27c-0.11,0.06-0.26,0.03-0.33-0.07l-9.14-12.42C195.45,42.61,195.44,42.6,195.44,42.59z"/>
</g>
<g class="st8">
	<path class="st3" d="M179,53.2c-0.04-0.08-0.01-0.17,0.07-0.22l16.45-10.62c0.1-0.06,0.24-0.05,0.31,0.03
		c0.08,0.08,0.06,0.2-0.04,0.26l-16.45,10.62c-0.1,0.06-0.24,0.05-0.31-0.03C179.01,53.23,179.01,53.22,179,53.2z"/>
</g>
<g class="st7">
	<path class="st3" d="M184.14,58.75c-0.02-0.05-0.02-0.1,0.01-0.15l11.33-16.17c0.06-0.08,0.18-0.11,0.28-0.06
		c0.09,0.05,0.13,0.15,0.07,0.23L184.5,58.77c-0.06,0.08-0.18,0.11-0.28,0.06C184.18,58.81,184.15,58.78,184.14,58.75z"/>
</g>
<g class="st6">
	<path class="st3" d="M129.91,58.45c-0.01-0.02-0.01-0.04-0.02-0.07c0-0.1,0.08-0.18,0.18-0.19l16.18-0.41
		c0.11,0,0.19,0.08,0.2,0.18c0,0.1-0.08,0.18-0.18,0.19l-16.18,0.41C130.01,58.56,129.94,58.51,129.91,58.45z"/>
</g>
<g class="st16">
	<path class="st3" d="M110.12,40.02c-0.04-0.08-0.02-0.18,0.05-0.25c0.09-0.09,0.24-0.09,0.33,0l10.76,10.29
		c0.09,0.09,0.09,0.23,0,0.32s-0.24,0.09-0.33,0l-10.76-10.29C110.15,40.07,110.13,40.05,110.12,40.02z"/>
</g>
<g class="st20">
	<path class="st3" d="M101.7,28.38c-0.05-0.1-0.01-0.23,0.09-0.3c0.12-0.08,0.27-0.05,0.35,0.06l8.4,11.65
		c0.08,0.11,0.05,0.26-0.06,0.34c-0.12,0.08-0.27,0.05-0.35-0.06l-8.4-11.65C101.72,28.41,101.71,28.39,101.7,28.38z"/>
</g>
<g class="st7">
	<path class="st3" d="M100.31,28.91C100.3,28.91,100.3,28.91,100.31,28.91c-0.04-0.1,0.01-0.2,0.1-0.24l1.46-0.56
		c0.1-0.04,0.2-0.01,0.24,0.1c0.04,0.09-0.01,0.2-0.1,0.23L100.55,29C100.45,29.05,100.35,29,100.31,28.91z"/>
</g>
<g class="st25">
	<path class="st3" d="M178.74,53.3c-0.09-0.17-0.03-0.38,0.16-0.5c0.22-0.14,0.54-0.11,0.71,0.08l5.12,5.55
		c0.17,0.18,0.13,0.45-0.09,0.59c-0.22,0.14-0.54,0.11-0.71-0.08l-5.12-5.55C178.78,53.36,178.76,53.33,178.74,53.3z"/>
</g>
<g class="st19">
	<path class="st3" d="M129.82,58.48c-0.05-0.12-0.01-0.27,0.11-0.34c0.13-0.08,0.31-0.05,0.4,0.08l6.98,10.42
		c0.09,0.13,0.05,0.3-0.09,0.38c-0.13,0.08-0.31,0.05-0.4-0.08l-6.98-10.42C129.83,58.51,129.83,58.5,129.82,58.48z"/>
</g>
<g class="st6">
	<path class="st3" d="M100.28,28.93c-0.04-0.09-0.01-0.19,0.07-0.25c0.1-0.07,0.23-0.05,0.31,0.04l10.93,14.02
		c0.07,0.09,0.05,0.22-0.04,0.29c-0.1,0.07-0.23,0.05-0.31-0.04l-10.93-14.02C100.29,28.96,100.28,28.94,100.28,28.93z"/>
</g>
<g class="st15">
	<path class="st3" d="M107.79,41.27c-0.04-0.09-0.03-0.19,0.04-0.28c0.1-0.12,0.28-0.14,0.4-0.05l19.05,14.1
		c0.12,0.09,0.15,0.26,0.05,0.38c-0.1,0.12-0.28,0.14-0.4,0.05l-19.05-14.1C107.84,41.35,107.81,41.31,107.79,41.27z"/>
</g>
<g class="st21">
	<path class="st3" d="M98.82,30.27c-0.07-0.15-0.02-0.33,0.12-0.43c0.17-0.12,0.41-0.09,0.53,0.07l8.88,11.04
		c0.13,0.16,0.1,0.39-0.07,0.51s-0.4,0.09-0.53-0.07l-8.88-11.04C98.85,30.32,98.83,30.29,98.82,30.27z"/>
</g>
<g class="st8">
	<path class="st3" d="M90.61,65.94c-0.02-0.04-0.03-0.09-0.02-0.14c0.01-0.17,0.16-0.29,0.34-0.28l27.73,1.79
		c0.17,0.01,0.31,0.16,0.29,0.32c-0.01,0.17-0.16,0.29-0.34,0.28l-27.73-1.79C90.76,66.11,90.65,66.04,90.61,65.94z"/>
</g>
<g class="st15">
	<path class="st3" d="M459.59,36.25c-0.02-0.05-0.03-0.11-0.03-0.17l3.12-35.99c0.02-0.19,0.2-0.34,0.4-0.32
		c0.2,0.02,0.35,0.19,0.34,0.38l-3.12,35.99c-0.02,0.19-0.2,0.34-0.4,0.32C459.76,36.45,459.65,36.36,459.59,36.25z"/>
</g>
<g class="st6">
	<path class="st3" d="M436.4,68.12c-0.05-0.11-0.04-0.23,0.04-0.34l23.2-31.87c0.11-0.16,0.34-0.2,0.5-0.09
		c0.16,0.11,0.2,0.33,0.09,0.48l-23.2,31.87c-0.11,0.16-0.34,0.2-0.5,0.09C436.47,68.23,436.43,68.18,436.4,68.12z"/>
</g>
<g class="st19">
	<path class="st3" d="M436.93,43.34c-0.01-0.01-0.01-0.03-0.02-0.04c-0.08-0.25,0.06-0.51,0.31-0.59l22.55-7.05
		c0.26-0.08,0.53,0.05,0.61,0.3s-0.06,0.51-0.31,0.59l-22.55,7.05C437.29,43.67,437.03,43.56,436.93,43.34z"/>
</g>
<g class="st8">
	<path class="st3" d="M403.41,48.67c-0.01-0.03-0.02-0.06-0.03-0.09c-0.04-0.21,0.11-0.41,0.33-0.44l33.6-5.36
		c0.22-0.03,0.42,0.1,0.46,0.32c0.04,0.21-0.11,0.41-0.33,0.44l-33.6,5.37C403.66,48.93,403.48,48.83,403.41,48.67z"/>
</g>
<g class="st16">
	<path class="st3" d="M416.2,21.33c-0.08-0.17-0.04-0.38,0.12-0.52c0.19-0.17,0.5-0.16,0.67,0.03l20.74,22.01
		c0.18,0.19,0.16,0.48-0.03,0.65c-0.19,0.17-0.5,0.15-0.67-0.03l-20.74-22.01C416.25,21.41,416.22,21.37,416.2,21.33z"/>
</g>
<g class="st26">
	<path class="st3" d="M436.01,68.28c-0.04-0.1-0.07-0.2-0.06-0.32l0.65-24.83c0.01-0.41,0.37-0.74,0.8-0.73
		c0.43,0.01,0.77,0.35,0.76,0.77L437.51,68c-0.01,0.41-0.37,0.74-0.8,0.73C436.4,68.72,436.13,68.54,436.01,68.28z"/>
</g>
<g class="st18">
	<path class="st3" d="M403.23,48.75c-0.06-0.14-0.07-0.31,0-0.46l12.86-27.37c0.14-0.29,0.49-0.42,0.79-0.29
		c0.3,0.13,0.44,0.47,0.3,0.76l-12.86,27.37c-0.14,0.29-0.49,0.42-0.79,0.29C403.39,48.98,403.29,48.87,403.23,48.75z"/>
</g>
<g class="st7">
	<path class="st3" d="M436.4,68.12C436.4,68.12,436.39,68.12,436.4,68.12l-20.09-46.84c-0.08-0.18,0.01-0.38,0.2-0.46
		c0.19-0.07,0.42,0.03,0.48,0.19l20.09,46.84c0.08,0.18-0.01,0.38-0.2,0.46C436.69,68.38,436.47,68.29,436.4,68.12z"/>
</g>
<g class="st9">
	<path class="st3" d="M403.38,48.69c-0.05-0.12-0.05-0.27,0.03-0.39c0.13-0.2,0.4-0.26,0.6-0.14l32.95,19.46
		c0.21,0.12,0.27,0.38,0.14,0.58c-0.13,0.2-0.4,0.26-0.6,0.14l-32.95-19.46C403.47,48.83,403.41,48.76,403.38,48.69z"/>
</g>
<g class="st15">
	<path class="st3" d="M358.22,11.14c-0.01-0.01-0.02-0.03-0.01-0.05l4.55-8.08c0.02-0.04,0.1-0.06,0.17-0.05s0.12,0.05,0.1,0.09
		l-4.55,8.08c-0.02,0.04-0.1,0.06-0.17,0.05C358.27,11.17,358.24,11.16,358.22,11.14z"/>
</g>
<g class="st13">
	<path class="st3" d="M383.34,38.32c-0.1-0.23-0.04-0.52,0.17-0.68c0.26-0.21,0.64-0.17,0.86,0.08l30.53,35.79
		c0.21,0.25,0.18,0.62-0.08,0.82c-0.26,0.21-0.64,0.17-0.86-0.08l-30.53-35.79C383.39,38.42,383.36,38.37,383.34,38.32z"/>
</g>
<g class="st19">
	<path class="st3" d="M358.09,10.95c-0.11-0.25-0.05-0.56,0.18-0.75c0.28-0.24,0.72-0.21,0.97,0.06l25.18,27.4
		c0.25,0.27,0.22,0.69-0.06,0.93s-0.72,0.21-0.97-0.06l-25.18-27.4C358.16,11.07,358.12,11.01,358.09,10.95z"/>
</g>
<path class="st27" d="M525.59,17.14c0.12,0.26-0.01,0.57-0.28,0.68s-0.59-0.01-0.71-0.27c-0.12-0.26,0.01-0.57,0.28-0.68
	C525.15,16.75,525.47,16.88,525.59,17.14z"/>
<path class="st28" d="M521.03,12.25c0.12,0.26-0.01,0.57-0.28,0.68s-0.59-0.01-0.71-0.27c-0.12-0.26,0.01-0.57,0.28-0.68
	C520.59,11.86,520.91,11.98,521.03,12.25z"/>
<path class="st29" d="M517.46,0.26c0.12,0.27-0.01,0.58-0.29,0.69c-0.28,0.11-0.6-0.01-0.72-0.27c-0.12-0.27,0.01-0.58,0.29-0.69
	C517.02-0.13,517.34-0.01,517.46,0.26z"/>
<path class="st30" d="M525.52,46.96c0.11,0.25-0.01,0.55-0.27,0.66c-0.27,0.11-0.57-0.01-0.69-0.26c-0.11-0.25,0.01-0.55,0.27-0.66
	C525.1,46.58,525.41,46.7,525.52,46.96z"/>
<path class="st31" d="M522.76,37.14c0.11,0.25-0.01,0.55-0.27,0.66c-0.27,0.11-0.57-0.01-0.69-0.26c-0.11-0.26,0.01-0.55,0.27-0.66
	C522.33,36.77,522.64,36.89,522.76,37.14z"/>
<path class="st32" d="M517.41,27.85c0.12,0.26-0.01,0.56-0.28,0.67c-0.27,0.11-0.58-0.01-0.7-0.27c-0.12-0.26,0.01-0.56,0.28-0.67
	C516.98,27.47,517.3,27.59,517.41,27.85z"/>
<path class="st27" d="M512.08,20.57c0.12,0.26-0.01,0.57-0.28,0.68c-0.27,0.11-0.59-0.01-0.71-0.27c-0.12-0.26,0.01-0.57,0.28-0.68
	C511.64,20.19,511.96,20.31,512.08,20.57z"/>
<path class="st33" d="M505.46,9.79c0.12,0.27-0.01,0.58-0.29,0.69c-0.28,0.11-0.6-0.01-0.72-0.27c-0.12-0.27,0.01-0.58,0.29-0.69
	S505.35,9.53,505.46,9.79z"/>
<path class="st31" d="M529.16,59.41c0.11,0.25-0.01,0.55-0.27,0.66c-0.27,0.11-0.57-0.01-0.69-0.26c-0.11-0.25,0.01-0.55,0.27-0.66
	C528.74,59.03,529.05,59.15,529.16,59.41z"/>
<path class="st31" d="M524.01,51c0.11,0.26-0.01,0.55-0.27,0.66c-0.27,0.11-0.57-0.01-0.69-0.26c-0.11-0.25,0.01-0.55,0.27-0.66
	C523.59,50.63,523.9,50.75,524.01,51z"/>
<path class="st32" d="M517.66,42.23c0.12,0.26-0.01,0.56-0.28,0.67c-0.27,0.11-0.58-0.01-0.7-0.27c-0.12-0.26,0.01-0.56,0.28-0.67
	C517.23,41.85,517.54,41.97,517.66,42.23z"/>
<path class="st34" d="M512.39,32.11c0.12,0.26-0.01,0.57-0.28,0.68c-0.27,0.11-0.59-0.01-0.71-0.27c-0.12-0.26,0.01-0.57,0.28-0.68
	C511.96,31.73,512.28,31.85,512.39,32.11z"/>
<path class="st3" d="M505.28,20.49c0.12,0.27-0.01,0.58-0.29,0.7c-0.28,0.12-0.61-0.01-0.73-0.28s0.01-0.58,0.29-0.7
	C504.83,20.09,505.16,20.22,505.28,20.49z"/>
<path class="st3" d="M501.47,11.85c0.12,0.27-0.01,0.58-0.29,0.7c-0.28,0.12-0.61-0.01-0.73-0.28s0.01-0.58,0.29-0.7
	S501.35,11.58,501.47,11.85z"/>
<path class="st3" d="M495.27,0.84c0.12,0.28-0.01,0.6-0.3,0.72c-0.29,0.12-0.62-0.01-0.75-0.29c-0.12-0.28,0.01-0.6,0.3-0.72
	S495.15,0.56,495.27,0.84z"/>
<path class="st33" d="M527.94,61.25c0.12,0.27-0.01,0.58-0.29,0.69c-0.28,0.11-0.6-0.01-0.72-0.27c-0.12-0.27,0.01-0.58,0.29-0.69
	C527.5,60.86,527.82,60.98,527.94,61.25z"/>
<path class="st34" d="M520.09,56.03c0.12,0.26-0.01,0.57-0.28,0.68s-0.59-0.01-0.71-0.27c-0.12-0.26,0.01-0.57,0.28-0.68
	C519.65,55.65,519.97,55.77,520.09,56.03z"/>
<path class="st35" d="M514.16,41.97c0.12,0.27-0.01,0.58-0.29,0.69c-0.28,0.11-0.6-0.01-0.72-0.27c-0.12-0.27,0.01-0.58,0.29-0.69
	C513.71,41.58,514.04,41.71,514.16,41.97z"/>
<path class="st3" d="M515.21,29.1c0.13,0.28-0.01,0.61-0.3,0.73c-0.29,0.12-0.63-0.01-0.76-0.29s0.01-0.61,0.3-0.73
	C514.75,28.69,515.09,28.82,515.21,29.1z"/>
<path class="st3" d="M506.82,22.87c0.12,0.28-0.01,0.6-0.3,0.72s-0.63-0.01-0.75-0.29s0.01-0.6,0.3-0.72S506.7,22.59,506.82,22.87z"
	/>
<path class="st3" d="M500.7,15.31c0.13,0.28-0.01,0.61-0.3,0.73c-0.29,0.12-0.63-0.01-0.76-0.29c-0.13-0.28,0.01-0.61,0.3-0.73
	C500.23,14.9,500.57,15.03,500.7,15.31z"/>
<path class="st3" d="M493.41,0.86c0.13,0.29-0.01,0.63-0.31,0.75c-0.3,0.12-0.65-0.01-0.78-0.3c-0.13-0.29,0.01-0.63,0.31-0.75
	C492.93,0.44,493.28,0.57,493.41,0.86z"/>
<path class="st3" d="M530.41,60.66c0.12,0.27-0.01,0.59-0.29,0.71c-0.29,0.12-0.62-0.01-0.74-0.28s0.01-0.59,0.29-0.71
	C529.96,60.26,530.29,60.38,530.41,60.66z"/>
<path class="st3" d="M524.97,22.41c0.13,0.3-0.01,0.65-0.32,0.78c-0.31,0.13-0.68-0.01-0.81-0.31s0.01-0.65,0.32-0.78
	C524.47,21.97,524.84,22.11,524.97,22.41z"/>
<path class="st3" d="M517.47,20.21c0.13,0.29-0.01,0.63-0.32,0.76c-0.31,0.13-0.66-0.01-0.79-0.3c-0.13-0.29,0.01-0.63,0.32-0.76
	C516.98,19.78,517.34,19.92,517.47,20.21z"/>
<path class="st3" d="M505.07,11.36c0.13,0.3-0.01,0.64-0.32,0.77c-0.31,0.13-0.67-0.01-0.8-0.31s0.01-0.64,0.32-0.77
	C504.58,10.92,504.94,11.06,505.07,11.36z"/>
<path class="st3" d="M495.53,4.48c0.13,0.29-0.01,0.63-0.32,0.76s-0.66-0.01-0.79-0.3c-0.13-0.29,0.01-0.63,0.32-0.76
	C495.04,4.05,495.4,4.19,495.53,4.48z"/>
<path class="st3" d="M509.14,5.36c0.14,0.32-0.01,0.68-0.34,0.82c-0.33,0.14-0.71-0.01-0.85-0.33c-0.14-0.32,0.01-0.68,0.34-0.82
	C508.62,4.89,509,5.04,509.14,5.36z"/>
<path class="st3" d="M495.8,3.84c0.14,0.31-0.01,0.67-0.33,0.8c-0.32,0.13-0.69-0.01-0.83-0.32c-0.14-0.31,0.01-0.67,0.33-0.8
	C495.29,3.39,495.67,3.53,495.8,3.84z"/>
<path class="st3" d="M515.46,0.66c0.15,0.34-0.01,0.74-0.37,0.89c-0.36,0.15-0.77-0.01-0.93-0.35c-0.15-0.34,0.01-0.74,0.37-0.89
	C514.89,0.16,515.31,0.32,515.46,0.66z"/>
<path class="st3" d="M495.89,1.75c0.15,0.33-0.01,0.71-0.35,0.85c-0.34,0.14-0.74-0.01-0.88-0.34c-0.15-0.33,0.01-0.71,0.35-0.85
	C495.34,1.27,495.74,1.43,495.89,1.75z"/>
<path class="st3" d="M528.25,5.79c0.16,0.36-0.01,0.78-0.39,0.93c-0.37,0.15-0.81-0.01-0.97-0.37c-0.16-0.36,0.01-0.78,0.39-0.93
	C527.66,5.26,528.09,5.43,528.25,5.79z"/>
<path class="st3" d="M522.8,0.94c0.16,0.36-0.01,0.77-0.38,0.92c-0.37,0.15-0.8-0.01-0.96-0.37c-0.16-0.36,0.01-0.77,0.38-0.92
	C522.22,0.42,522.64,0.59,522.8,0.94z"/>
<path class="st3" d="M493.68-1.47c0.15,0.34-0.01,0.73-0.36,0.88s-0.76-0.01-0.92-0.35c-0.15-0.34,0.01-0.73,0.36-0.88
	C493.12-1.97,493.53-1.81,493.68-1.47z"/>
<path class="st3" d="M529.98,10.75c0.16,0.37-0.01,0.79-0.39,0.95s-0.82-0.01-0.99-0.38s0.01-0.79,0.39-0.95
	S529.82,10.38,529.98,10.75z"/>
<path class="st3" d="M519.03-0.59c0.17,0.37-0.01,0.8-0.4,0.96s-0.83-0.01-1-0.38s0.01-0.8,0.4-0.96
	C518.42-1.13,518.86-0.96,519.03-0.59z"/>
<path class="st3" d="M490.17-0.95c0.16,0.36-0.01,0.78-0.39,0.93s-0.81-0.01-0.97-0.37s0.01-0.78,0.39-0.93S490.01-1.31,490.17-0.95
	z"/>
<path class="st3" d="M521.02,14.64c0.17,0.38-0.01,0.83-0.41,0.99s-0.86-0.01-1.03-0.39c-0.17-0.38,0.01-0.83,0.41-0.99
	C520.39,14.08,520.85,14.26,521.02,14.64z"/>
<path class="st3" d="M493.9,20.07c0.16,0.36-0.01,0.78-0.39,0.93c-0.37,0.15-0.81-0.01-0.97-0.37s0.01-0.78,0.39-0.93
	S493.74,19.71,493.9,20.07z"/>
<path class="st3" d="M486.4,5.94c0.16,0.36-0.01,0.78-0.39,0.94s-0.82-0.01-0.98-0.37c-0.16-0.36,0.01-0.78,0.39-0.94
	S486.24,5.58,486.4,5.94z"/>
<path class="st3" d="M518.62,36.78c0.17,0.38-0.01,0.82-0.41,0.98c-0.39,0.16-0.85-0.01-1.02-0.39c-0.17-0.38,0.01-0.82,0.41-0.98
	C517.99,36.23,518.45,36.4,518.62,36.78z"/>
<path class="st3" d="M510.43,29.62c0.17,0.38-0.01,0.83-0.41,0.99s-0.86-0.01-1.03-0.39c-0.17-0.38,0.01-0.83,0.41-0.99
	C509.8,29.07,510.26,29.24,510.43,29.62z"/>
<path class="st3" d="M472.04,36.29c0.15,0.34-0.01,0.74-0.37,0.89c-0.36,0.15-0.77-0.01-0.93-0.35c-0.15-0.34,0.01-0.74,0.37-0.89
	C471.47,35.79,471.89,35.95,472.04,36.29z"/>
<path class="st3" d="M471.39,23.63c0.16,0.36-0.01,0.77-0.38,0.92c-0.37,0.15-0.8-0.01-0.96-0.37s0.01-0.77,0.38-0.92
	C470.8,23.11,471.23,23.27,471.39,23.63z"/>
<path class="st3" d="M496.47,56.79c0.16,0.36-0.01,0.78-0.39,0.94s-0.82-0.01-0.98-0.37c-0.16-0.36,0.01-0.78,0.39-0.94
	S496.3,56.43,496.47,56.79z"/>
<path class="st3" d="M492.42,36.18c0.17,0.37-0.01,0.81-0.4,0.97c-0.39,0.16-0.84-0.01-1.01-0.39c-0.17-0.37,0.01-0.81,0.4-0.97
	C491.8,35.64,492.26,35.81,492.42,36.18z"/>
<path class="st3" d="M473.88,32.9c0.16,0.37-0.01,0.79-0.39,0.95s-0.82-0.01-0.99-0.38s0.01-0.79,0.39-0.95
	C473.27,32.37,473.71,32.54,473.88,32.9z"/>
<path class="st3" d="M472.7,13.76c0.17,0.39-0.01,0.84-0.42,1.01s-0.88-0.01-1.05-0.4c-0.17-0.39,0.01-0.84,0.42-1.01
	C472.05,13.19,472.52,13.37,472.7,13.76z"/>
<path class="st3" d="M470.3,4.15c0.18,0.39-0.01,0.85-0.42,1.02s-0.89-0.01-1.06-0.41c-0.18-0.39,0.01-0.85,0.42-1.02
	S470.13,3.76,470.3,4.15z"/>
<path class="st3" d="M488.16,65.16c0.16,0.36-0.01,0.78-0.39,0.94s-0.82-0.01-0.98-0.37c-0.16-0.36,0.01-0.78,0.39-0.94
	C487.56,64.63,487.99,64.8,488.16,65.16z"/>
<path class="st3" d="M476.77,55.45c0.17,0.37-0.01,0.81-0.4,0.97c-0.39,0.16-0.84-0.01-1.01-0.39c-0.17-0.37,0.01-0.81,0.4-0.97
	C476.15,54.9,476.6,55.07,476.77,55.45z"/>
<path class="st3" d="M472.65,39.84c0.17,0.38-0.01,0.82-0.41,0.98c-0.39,0.16-0.85-0.01-1.02-0.39c-0.17-0.38,0.01-0.82,0.41-0.98
	C472.02,39.29,472.48,39.47,472.65,39.84z"/>
<path class="st3" d="M279.78,17.38c0.42-0.07,0.81,0.22,0.87,0.65s-0.23,0.84-0.64,0.91c-0.42,0.07-0.81-0.22-0.87-0.65
	S279.36,17.45,279.78,17.38z"/>
<path class="st3" d="M490.39,65.4c0.18,0.4-0.01,0.87-0.43,1.04c-0.42,0.17-0.9-0.01-1.08-0.41c-0.18-0.4,0.01-0.87,0.43-1.04
	C489.72,64.81,490.21,65,490.39,65.4z"/>
<path class="st3" d="M471.38,63.6c0.17,0.37-0.01,0.8-0.4,0.96c-0.39,0.16-0.83-0.01-1-0.38s0.01-0.8,0.4-0.96
	S471.22,63.23,471.38,63.6z"/>
<path class="st3" d="M350.45,32.86c0.38-0.07,0.74,0.2,0.8,0.6s-0.21,0.77-0.59,0.84s-0.74-0.2-0.8-0.6S350.06,32.92,350.45,32.86z"
	/>
<path class="st3" d="M338.47,37.42c0.39-0.07,0.75,0.2,0.81,0.6s-0.21,0.78-0.6,0.85s-0.75-0.2-0.81-0.6
	C337.81,37.86,338.08,37.48,338.47,37.42z"/>
<path class="st3" d="M505.76,63.31c0.19,0.43-0.01,0.93-0.46,1.11s-0.96-0.01-1.16-0.44c-0.19-0.43,0.01-0.93,0.46-1.11
	C505.05,62.68,505.57,62.88,505.76,63.31z"/>
<path class="st3" d="M478.7,60.76c0.18,0.41-0.01,0.89-0.44,1.07c-0.43,0.18-0.93-0.01-1.11-0.43c-0.18-0.41,0.01-0.89,0.44-1.07
	C478.02,60.16,478.52,60.35,478.7,60.76z"/>
<path class="st3" d="M355.81,52.15c0.37-0.06,0.71,0.19,0.76,0.57c0.05,0.38-0.2,0.74-0.56,0.8c-0.37,0.06-0.71-0.19-0.76-0.57
	C355.19,52.57,355.44,52.21,355.81,52.15z"/>
<path class="st3" d="M343.6,62.8c0.38-0.07,0.72,0.2,0.78,0.58c0.06,0.39-0.2,0.75-0.58,0.82c-0.38,0.07-0.72-0.2-0.78-0.58
	C342.96,63.24,343.22,62.87,343.6,62.8z"/>
<path class="st3" d="M309.58,36.93c0.44-0.08,0.85,0.23,0.92,0.69s-0.24,0.89-0.68,0.97s-0.85-0.23-0.92-0.69
	C308.83,37.44,309.14,37.01,309.58,36.93z"/>
<g class="st6">
	<path class="st3" d="M260.42,26.74c-0.05-0.02-0.08-0.07-0.07-0.13c0.01-0.07,0.08-0.12,0.14-0.11l9.35,1.24
		c0.07,0.01,0.11,0.07,0.1,0.14c-0.01,0.07-0.08,0.12-0.14,0.11l-9.35-1.24C260.44,26.74,260.43,26.74,260.42,26.74z"/>
</g>
<g class="st7">
	<path class="st3" d="M275.05,12.93c-0.03-0.06,0-0.14,0.06-0.17c0.07-0.04,0.16-0.02,0.2,0.05l7.52,11.92
		c0.04,0.06,0.02,0.15-0.05,0.19c-0.07,0.04-0.15,0.02-0.2-0.05l-7.52-11.92C275.06,12.95,275.05,12.94,275.05,12.93z"/>
</g>
<g class="st20">
	<path class="st3" d="M271.98,27.67c0-0.01-0.01-0.02-0.01-0.03c-0.03-0.11,0.03-0.21,0.14-0.24l10.53-2.79
		c0.11-0.03,0.23,0.03,0.25,0.14c0.03,0.11-0.03,0.21-0.14,0.24l-10.53,2.79C272.12,27.8,272.02,27.75,271.98,27.67z"/>
</g>
<path class="st30" d="M260.69,26.15c0.26,0.11,0.37,0.41,0.25,0.67s-0.42,0.39-0.68,0.28c-0.26-0.11-0.37-0.41-0.25-0.67
	S260.43,26.04,260.69,26.15z"/>
<path class="st3" d="M275.82,12.62c0.15,0.34-0.01,0.73-0.36,0.88c-0.35,0.15-0.76-0.01-0.92-0.35c-0.15-0.34,0.01-0.73,0.36-0.88
	C275.26,12.12,275.67,12.28,275.82,12.62z"/>
<path class="st3" d="M283.37,24.52c0.16,0.36-0.01,0.77-0.38,0.92c-0.37,0.15-0.8-0.01-0.96-0.37s0.01-0.77,0.38-0.92
	C282.78,24,283.21,24.17,283.37,24.52z"/>
<path class="st3" d="M272.84,27.31c0.16,0.36-0.01,0.77-0.38,0.92c-0.37,0.15-0.8-0.01-0.96-0.37s0.01-0.77,0.38-0.92
	S272.68,26.95,272.84,27.31z"/>
<path class="st3" d="M73.07,23.27c0.15,0.33-0.01,0.71-0.35,0.85c-0.34,0.14-0.74-0.01-0.88-0.34c-0.15-0.33,0.01-0.71,0.35-0.85
	C72.53,22.79,72.92,22.94,73.07,23.27z"/>
<path class="st3" d="M58.94,22.45c0.14,0.32-0.01,0.69-0.34,0.83c-0.33,0.14-0.72-0.01-0.86-0.33c-0.14-0.32,0.01-0.69,0.34-0.83
	C58.41,21.98,58.79,22.13,58.94,22.45z"/>
<path class="st3" d="M359.63,59.76c0.39-0.07,0.76,0.2,0.82,0.61c0.06,0.4-0.21,0.79-0.6,0.86s-0.76-0.2-0.82-0.61
	S359.24,59.83,359.63,59.76z"/>
<path class="st3" d="M334.96,41.24c0.44-0.08,0.85,0.23,0.91,0.68c0.07,0.45-0.24,0.88-0.67,0.96c-0.44,0.08-0.85-0.23-0.91-0.68
	C334.22,41.75,334.52,41.32,334.96,41.24z"/>
<path class="st3" d="M323.41,53.28c0.43-0.07,0.82,0.22,0.89,0.66c0.06,0.44-0.23,0.86-0.65,0.93c-0.43,0.07-0.82-0.22-0.89-0.66
	C322.69,53.78,322.98,53.36,323.41,53.28z"/>
<path class="st3" d="M53.93,23.85c0.15,0.34-0.01,0.73-0.36,0.87c-0.35,0.14-0.76-0.01-0.91-0.35c-0.15-0.34,0.01-0.73,0.36-0.87
	S53.77,23.52,53.93,23.85z"/>
<path class="st3" d="M365.83,70.09c0.4-0.07,0.77,0.21,0.83,0.62s-0.22,0.8-0.62,0.87s-0.77-0.21-0.83-0.62
	C365.15,70.55,365.43,70.16,365.83,70.09z"/>
<path class="st3" d="M322.67,26.09c0.52-0.09,1.01,0.27,1.08,0.81c0.08,0.54-0.28,1.05-0.8,1.14c-0.52,0.09-1.01-0.27-1.08-0.81
	C321.79,26.69,322.15,26.18,322.67,26.09z"/>
<path class="st3" d="M308.44,25.99c0.53-0.09,1.01,0.27,1.09,0.82c0.08,0.54-0.28,1.06-0.81,1.15s-1.01-0.27-1.09-0.82
	C307.55,26.59,307.92,26.08,308.44,25.99z"/>
<path class="st33" d="M168.26,45.77c0.12,0.27-0.01,0.58-0.29,0.69c-0.28,0.11-0.6-0.01-0.72-0.27c-0.12-0.27,0.01-0.58,0.29-0.69
	C167.82,45.38,168.15,45.5,168.26,45.77z"/>
<path class="st36" d="M157.56,42.42c0.11,0.25-0.01,0.55-0.27,0.66s-0.57-0.01-0.69-0.26c-0.11-0.25,0.01-0.55,0.27-0.66
	S157.44,42.17,157.56,42.42z"/>
<path class="st37" d="M147.91,38.93c0.11,0.25-0.01,0.54-0.27,0.65s-0.56-0.01-0.68-0.26c-0.11-0.25,0.01-0.54,0.27-0.65
	S147.8,38.68,147.91,38.93z"/>
<path class="st3" d="M350.92,39.26c0.49-0.09,0.95,0.26,1.02,0.76c0.07,0.51-0.27,0.99-0.76,1.08c-0.49,0.09-0.95-0.26-1.02-0.76
	C350.09,39.83,350.43,39.35,350.92,39.26z"/>
<path class="st3" d="M326.3,42.3c0.53-0.09,1.01,0.27,1.09,0.82c0.08,0.54-0.28,1.06-0.81,1.15s-1.01-0.27-1.09-0.82
	C325.41,42.91,325.77,42.4,326.3,42.3z"/>
<path class="st3" d="M316.73,47.17c0.53-0.09,1.03,0.28,1.11,0.83s-0.29,1.07-0.82,1.17c-0.53,0.09-1.03-0.28-1.11-0.83
	C315.83,47.79,316.19,47.26,316.73,47.17z"/>
<path class="st3" d="M168.68,47.69c0.13,0.28-0.01,0.61-0.3,0.73c-0.29,0.12-0.63-0.01-0.76-0.29s0.01-0.61,0.3-0.73
	C168.21,47.28,168.55,47.41,168.68,47.69z"/>
<path class="st38" d="M146.21,49.65c0.11,0.25-0.01,0.53-0.27,0.64c-0.26,0.11-0.56-0.01-0.67-0.25c-0.11-0.25,0.01-0.53,0.27-0.64
	S146.1,49.4,146.21,49.65z"/>
<path class="st3" d="M148.02,26.48c0.13,0.3-0.01,0.64-0.32,0.77c-0.31,0.13-0.67-0.01-0.8-0.31s0.01-0.64,0.32-0.77
	C147.53,26.05,147.89,26.18,148.02,26.48z"/>
<path class="st3" d="M358.04,47.23c0.51-0.09,0.99,0.27,1.07,0.8c0.08,0.53-0.28,1.03-0.79,1.12s-0.99-0.27-1.07-0.8
	S357.53,47.32,358.04,47.23z"/>
<path class="st3" d="M220.27,19.77c0.17,0.34-0.01,0.73-0.41,0.87s-0.87-0.01-1.04-0.35s0.01-0.73,0.41-0.87
	C219.63,19.28,220.1,19.43,220.27,19.77z"/>
<path class="st3" d="M145.94,40.03c0.13,0.3-0.01,0.64-0.32,0.77c-0.31,0.13-0.67-0.01-0.8-0.31s0.01-0.64,0.32-0.77
	C145.45,39.59,145.81,39.73,145.94,40.03z"/>
<path class="st3" d="M148.11,28.64c0.14,0.31-0.01,0.68-0.34,0.81s-0.7-0.01-0.84-0.32s0.01-0.68,0.34-0.81
	C147.6,28.18,147.97,28.33,148.11,28.64z"/>
<path class="st3" d="M359.42,58.4c0.54-0.09,1.05,0.28,1.13,0.84c0.08,0.56-0.29,1.09-0.83,1.18c-0.54,0.09-1.05-0.28-1.13-0.84
	C358.5,59.02,358.88,58.49,359.42,58.4z"/>
<path class="st3" d="M211.83,25.66c0.18,0.35-0.01,0.75-0.43,0.9c-0.41,0.15-0.89-0.01-1.07-0.36c-0.18-0.35,0.01-0.75,0.43-0.9
	C211.17,25.15,211.65,25.31,211.83,25.66z"/>
<path class="st3" d="M219.71,8.49c0.2,0.39-0.01,0.85-0.49,1.02C218.75,9.68,218.2,9.5,218,9.1c-0.2-0.39,0.01-0.85,0.49-1.02
	C218.96,7.92,219.51,8.1,219.71,8.49z"/>
<path class="st3" d="M151.79,10.23c0.18,0.35-0.01,0.76-0.43,0.91s-0.9-0.01-1.08-0.36c-0.18-0.35,0.01-0.76,0.43-0.91
	C151.12,9.72,151.61,9.88,151.79,10.23z"/>
<path class="st3" d="M158.11,26.1c0.17,0.39-0.01,0.83-0.41,1c-0.4,0.17-0.87-0.01-1.04-0.4c-0.17-0.39,0.01-0.83,0.41-1
	C157.47,25.54,157.94,25.72,158.11,26.1z"/>
<path class="st3" d="M245.81,33.86c0.21,0.41-0.02,0.89-0.51,1.07c-0.49,0.18-1.07-0.01-1.28-0.43c-0.21-0.41,0.02-0.89,0.51-1.07
	C245.02,33.25,245.6,33.45,245.81,33.86z"/>
<path class="st3" d="M227.83,25.18c0.21,0.4-0.02,0.86-0.49,1.04c-0.48,0.17-1.03-0.01-1.24-0.41s0.01-0.86,0.49-1.04
	C227.07,24.59,227.63,24.78,227.83,25.18z"/>
<path class="st3" d="M216.94,14.25c0.21,0.41-0.02,0.89-0.51,1.07s-1.07-0.01-1.28-0.43c-0.21-0.41,0.02-0.89,0.51-1.07
	C216.16,13.65,216.73,13.84,216.94,14.25z"/>
<path class="st3" d="M158.28,25.51c0.19,0.42-0.01,0.92-0.46,1.1c-0.44,0.18-0.95-0.01-1.14-0.44c-0.19-0.42,0.01-0.92,0.46-1.1
	C157.57,24.88,158.09,25.08,158.28,25.51z"/>
<path class="st3" d="M140.85,18.08c0.19,0.42-0.01,0.9-0.45,1.08c-0.43,0.18-0.94-0.01-1.12-0.43c-0.19-0.42,0.01-0.9,0.45-1.08
	C140.16,17.47,140.67,17.67,140.85,18.08z"/>
<path class="st3" d="M240.34,44.77c0.22,0.43-0.02,0.94-0.53,1.12c-0.52,0.19-1.12-0.01-1.34-0.45c-0.22-0.43,0.02-0.94,0.53-1.12
	S240.11,44.34,240.34,44.77z"/>
<path class="st3" d="M227.52,39.18c0.23,0.44-0.02,0.95-0.54,1.14c-0.53,0.19-1.14-0.01-1.36-0.45c-0.23-0.44,0.02-0.95,0.54-1.14
	C226.69,38.53,227.3,38.74,227.52,39.18z"/>
<path class="st3" d="M230.41,24.69c0.24,0.47-0.02,1.02-0.58,1.23s-1.22-0.01-1.47-0.49c-0.24-0.47,0.02-1.02,0.58-1.23
	S230.17,24.21,230.41,24.69z"/>
<path class="st3" d="M139.81,41.32c0.18,0.41-0.01,0.89-0.44,1.07s-0.93-0.01-1.11-0.43c-0.18-0.41,0.01-0.89,0.44-1.07
	C139.12,40.72,139.62,40.91,139.81,41.32z"/>
<path class="st3" d="M226.67,60.01c0.22,0.43-0.02,0.92-0.53,1.11c-0.51,0.18-1.1-0.01-1.32-0.44s0.02-0.92,0.53-1.11
	S226.45,59.58,226.67,60.01z"/>
<path class="st3" d="M205.71,54.6c0.22,0.42-0.02,0.92-0.52,1.1c-0.51,0.18-1.09-0.01-1.31-0.44c-0.22-0.42,0.02-0.92,0.52-1.1
	S205.49,54.18,205.71,54.6z"/>
<path class="st3" d="M196.6,42.17c0.22,0.44-0.02,0.94-0.54,1.13c-0.52,0.19-1.13-0.01-1.35-0.45s0.02-0.94,0.54-1.13
	C195.77,41.53,196.38,41.74,196.6,42.17z"/>
<path class="st3" d="M147.11,57.62c0.2,0.45-0.01,0.97-0.48,1.16s-1.01-0.01-1.21-0.46s0.01-0.97,0.48-1.16
	C146.37,56.96,146.91,57.17,147.11,57.62z"/>
<path class="st3" d="M121.9,49.89c0.19,0.42-0.01,0.92-0.46,1.1c-0.44,0.18-0.95-0.01-1.15-0.44c-0.19-0.42,0.01-0.92,0.46-1.1
	C121.19,49.27,121.71,49.47,121.9,49.89z"/>
<path class="st3" d="M111.16,39.6c0.2,0.44-0.01,0.94-0.47,1.13c-0.45,0.19-0.98-0.01-1.18-0.45s0.01-0.94,0.47-1.13
	C110.43,38.96,110.96,39.16,111.16,39.6z"/>
<path class="st3" d="M102.79,27.93c0.2,0.46-0.02,0.98-0.49,1.18c-0.47,0.2-1.02-0.01-1.23-0.47c-0.2-0.46,0.01-0.98,0.49-1.18
	C102.04,27.26,102.59,27.47,102.79,27.93z"/>
<path class="st3" d="M185.25,58.35c0.22,0.43-0.02,0.92-0.53,1.11c-0.51,0.18-1.1-0.01-1.32-0.44c-0.22-0.43,0.02-0.92,0.53-1.11
	C184.44,57.72,185.03,57.92,185.25,58.35z"/>
<path class="st3" d="M138.01,68.4c0.22,0.5-0.02,1.08-0.53,1.29c-0.52,0.21-1.12-0.02-1.34-0.51c-0.22-0.5,0.02-1.08,0.53-1.29
	C137.18,67.67,137.79,67.9,138.01,68.4z"/>
<path class="st3" d="M131,58c0.22,0.48-0.02,1.04-0.52,1.25s-1.08-0.02-1.3-0.5s0.02-1.04,0.52-1.25
	C130.2,57.29,130.78,57.51,131,58z"/>
<path class="st3" d="M112.39,42.46c0.24,0.53-0.02,1.13-0.56,1.36c-0.55,0.23-1.18-0.02-1.42-0.54c-0.24-0.53,0.02-1.13,0.56-1.36
	C111.53,41.69,112.16,41.93,112.39,42.46z"/>
<path class="st3" d="M101.42,28.45c0.22,0.5-0.02,1.08-0.54,1.3c-0.52,0.22-1.13-0.02-1.35-0.52s0.02-1.08,0.54-1.3
	C100.59,27.72,101.2,27.95,101.42,28.45z"/>
<path class="st3" d="M128.21,54.81c0.26,0.59-0.02,1.27-0.63,1.52c-0.61,0.25-1.32-0.02-1.58-0.61s0.02-1.27,0.63-1.52
	C127.23,53.95,127.94,54.22,128.21,54.81z"/>
<path class="st3" d="M109.17,40.7c0.27,0.59-0.02,1.28-0.64,1.54s-1.34-0.02-1.6-0.61c-0.27-0.59,0.02-1.28,0.64-1.54
	C108.19,39.83,108.91,40.1,109.17,40.7z"/>
<path class="st3" d="M100.38,29.62c0.29,0.64-0.02,1.38-0.69,1.66s-1.44-0.02-1.73-0.66s0.02-1.38,0.69-1.66
	C99.32,28.69,100.09,28.98,100.38,29.62z"/>
<path class="st3" d="M119.95,67.06c0.31,0.7-0.02,1.52-0.75,1.82s-1.58-0.02-1.89-0.73c-0.31-0.7,0.02-1.52,0.75-1.82
	C118.79,66.03,119.64,66.35,119.95,67.06z"/>
<path class="st3" d="M92.2,65.28c0.31,0.69-0.02,1.49-0.74,1.79s-1.55-0.02-1.86-0.71s0.02-1.49,0.74-1.79S91.89,64.59,92.2,65.28z"
	/>
<path class="st3" d="M461.5,35.46c0.37,0.83-0.03,1.79-0.89,2.15c-0.86,0.36-1.87-0.03-2.24-0.86s0.03-1.79,0.89-2.15
	C460.12,34.25,461.13,34.63,461.5,35.46z"/>
<path class="st3" d="M439.03,42.47c0.39,0.88-0.03,1.89-0.94,2.27c-0.91,0.38-1.97-0.03-2.36-0.9c-0.39-0.88,0.03-1.89,0.94-2.27
	C437.58,41.19,438.64,41.59,439.03,42.47z"/>
<path class="st3" d="M418.28,20.47c0.39,0.87-0.03,1.89-0.94,2.26c-0.91,0.38-1.96-0.03-2.35-0.9s0.03-1.88,0.94-2.26
	C416.84,19.19,417.89,19.59,418.28,20.47z"/>
<path class="st3" d="M300.67,43.94c0.41,0.91-0.03,1.96-0.97,2.35s-2.04-0.03-2.45-0.94s0.03-1.96,0.97-2.35
	C299.17,42.61,300.26,43.03,300.67,43.94z"/>
<path class="st3" d="M438.51,67.25c0.42,0.94-0.03,2.04-1.01,2.44c-0.98,0.41-2.12-0.03-2.54-0.97c-0.42-0.94,0.03-2.04,1.01-2.44
	C436.95,65.87,438.08,66.3,438.51,67.25z"/>
<path class="st3" d="M405.55,47.79c0.42,0.94-0.03,2.03-1.01,2.43s-2.11-0.03-2.53-0.97s0.03-2.03,1.01-2.43
	S405.13,46.85,405.55,47.79z"/>
<g class="st15">
	<path class="st3" d="M87.88,39.05c-0.02-0.04-0.03-0.09-0.03-0.13l1.02-26.36c0.01-0.17,0.16-0.3,0.33-0.3
		c0.18,0.01,0.32,0.15,0.31,0.32l-1.02,26.36c-0.01,0.17-0.16,0.3-0.33,0.3C88.04,39.24,87.93,39.16,87.88,39.05z"/>
</g>
<g class="st9">
	<path class="st3" d="M87.9,39.06c-0.01-0.02-0.01-0.03-0.02-0.05L80.07,6.19c-0.04-0.17,0.06-0.34,0.23-0.39
		c0.17-0.04,0.34,0.07,0.38,0.24l7.81,32.82c0.04,0.17-0.06,0.34-0.23,0.39C88.11,39.28,87.96,39.2,87.9,39.06z"/>
</g>
<g class="st15">
	<path class="st3" d="M84.72,75.06c-0.02-0.05-0.03-0.11-0.03-0.17l3.12-35.99c0.02-0.19,0.2-0.34,0.4-0.32s0.35,0.19,0.34,0.38
		l-3.12,35.99c-0.02,0.19-0.2,0.34-0.4,0.32C84.89,75.26,84.77,75.18,84.72,75.06z"/>
</g>
<g class="st15">
	<path class="st3" d="M73.16,23.45c-0.06-0.14-0.03-0.3,0.09-0.41c0.15-0.13,0.39-0.12,0.53,0.03l14.68,15.62
		c0.14,0.15,0.13,0.37-0.03,0.51c-0.15,0.13-0.39,0.12-0.53-0.03L73.22,23.55C73.19,23.52,73.17,23.49,73.16,23.45z"/>
</g>
<path class="st3" d="M89.58,38.35c0.33,0.75-0.02,1.61-0.8,1.93s-1.68-0.02-2.01-0.77s0.02-1.61,0.8-1.93
	C88.35,37.26,89.25,37.61,89.58,38.35z"/>
<path class="st3" d="M386.1,37.18c0.52,1.17-0.04,2.53-1.26,3.03s-2.63-0.04-3.15-1.21c-0.52-1.17,0.04-2.53,1.26-3.03
	C384.17,35.47,385.58,36.01,386.1,37.18z"/>
<path class="st3" d="M360.92,9.78c0.52,1.17-0.04,2.52-1.25,3.02s-2.62-0.04-3.14-1.2c-0.52-1.17,0.04-2.52,1.25-3.02
	C358.99,8.08,360.39,8.62,360.92,9.78z"/>
<g class="st8">
	<path class="st3" d="M224.81,50.73c-0.22,0.06-0.49,0.01-0.63-0.15L200.6,24.3c-0.16-0.18-0.09-0.41,0.14-0.53
		c0.24-0.11,0.56-0.06,0.72,0.11l23.58,26.28c0.16,0.18,0.09,0.41-0.14,0.53C224.87,50.71,224.84,50.72,224.81,50.73z"/>
</g>
<g class="st11">
	<path class="st3" d="M255.66,45.12c-0.12,0.03-0.26,0.03-0.38-0.02l-54.44-20.7c-0.23-0.09-0.32-0.29-0.21-0.46
		c0.11-0.17,0.39-0.23,0.62-0.15l54.44,20.7c0.23,0.09,0.32,0.29,0.21,0.46C255.84,45.03,255.76,45.09,255.66,45.12z"/>
</g>
<g class="st13">
	<path class="st3" d="M152.63,40.5c-0.29,0.08-0.62-0.02-0.76-0.23c-0.14-0.22-0.01-0.48,0.29-0.57l48.63-15.99
		c0.3-0.1,0.65,0,0.78,0.22c0.14,0.22,0.01,0.48-0.29,0.57l-48.63,15.99C152.65,40.5,152.64,40.5,152.63,40.5z"/>
</g>
<g class="st13">
	<path class="st3" d="M224.84,50.78c-0.1,0.03-0.21,0.04-0.32,0.02l-72.21-10.28c-0.32-0.05-0.53-0.27-0.47-0.5
		c0.06-0.23,0.36-0.39,0.68-0.34l72.21,10.28c0.32,0.05,0.53,0.27,0.48,0.5C225.16,50.61,225.02,50.73,224.84,50.78z"/>
</g>
<g class="st15">
	<path class="st3" d="M179.9,31.03c-0.09,0.02-0.18,0.03-0.28,0.03l-87.89-7.75c-0.32-0.03-0.56-0.24-0.53-0.48
		c0.03-0.24,0.32-0.41,0.65-0.38l87.89,7.75c0.32,0.03,0.56,0.24,0.53,0.48C180.24,30.84,180.1,30.97,179.9,31.03z"/>
</g>
<g class="st8">
	<path class="st3" d="M150.39,10.35c-0.01,0-0.03,0.01-0.04,0.01l-58.4,12.9c-0.29,0.06-0.59-0.06-0.68-0.27
		c-0.09-0.21,0.06-0.43,0.35-0.5l58.4-12.9c0.29-0.06,0.59,0.06,0.68,0.27C150.79,10.07,150.65,10.28,150.39,10.35z"/>
</g>
<g class="st8">
	<path class="st3" d="M255.67,45.14c-0.07,0.02-0.15,0.03-0.23,0.02c-0.27-0.02-0.48-0.2-0.45-0.4l2.97-23.97
		c0.03-0.2,0.27-0.35,0.54-0.32c0.27,0.02,0.47,0.2,0.45,0.4l-2.97,23.97C255.96,44.98,255.83,45.09,255.67,45.14z"/>
</g>
<g class="st11">
	<path class="st3" d="M324.62,67.61c-0.11,0.03-0.24,0.03-0.36-0.01L255.3,45.11c-0.24-0.08-0.35-0.28-0.25-0.46
		c0.1-0.17,0.38-0.25,0.61-0.17l68.96,22.49c0.24,0.08,0.35,0.28,0.25,0.46C324.82,67.52,324.73,67.58,324.62,67.61z"/>
</g>
<g class="st9">
	<path class="st3" d="M307.31,69.47c-0.16,0.04-0.34,0.04-0.49-0.04l-51.62-24.3c-0.25-0.12-0.33-0.37-0.17-0.55
		c0.16-0.18,0.49-0.24,0.75-0.12l51.62,24.3c0.25,0.12,0.33,0.37,0.17,0.55C307.5,69.39,307.41,69.44,307.31,69.47z"/>
</g>
<g class="st11">
	<path class="st3" d="M324.63,67.63c-0.09,0.03-0.19,0.03-0.29,0.01l-99.82-16.91c-0.27-0.05-0.44-0.24-0.38-0.44
		s0.32-0.32,0.59-0.27l99.82,16.91c0.27,0.05,0.44,0.24,0.38,0.44C324.89,67.5,324.77,67.59,324.63,67.63z"/>
</g>
<g class="st19">
	<path class="st3" d="M254.39,71.53c-0.26,0.07-0.56,0.04-0.78-0.12l-29.49-20.64c-0.3-0.21-0.31-0.55-0.04-0.77
		c0.28-0.22,0.74-0.22,1.04-0.01l29.49,20.64c0.3,0.21,0.31,0.55,0.04,0.77C254.57,71.45,254.48,71.5,254.39,71.53z"/>
</g>
<g class="st7">
	<path class="st3" d="M324.65,67.67c-0.05,0.01-0.1,0.02-0.16,0.03l-70.33,3.73c-0.31,0.02-0.58-0.15-0.6-0.38
		c-0.03-0.22,0.2-0.42,0.5-0.44l70.33-3.73c0.31-0.02,0.58,0.15,0.6,0.38C325.02,67.44,324.87,67.61,324.65,67.67z"/>
</g>
<g class="st7">
	<path class="st3" d="M280.15,48.7c-0.18,0.05-0.39,0-0.49-0.13l-21.39-27.43c-0.11-0.14-0.05-0.32,0.14-0.39
		c0.18-0.08,0.43-0.03,0.54,0.11l21.39,27.43c0.11,0.14,0.05,0.32-0.14,0.39C280.18,48.69,280.17,48.7,280.15,48.7z"/>
</g>
<g class="st7">
	<path class="st3" d="M299.65,46.31c-0.14,0.04-0.3,0.02-0.41-0.06l-26.87-17.84c-0.16-0.11-0.18-0.29-0.03-0.41s0.4-0.13,0.56-0.02
		l26.87,17.84c0.16,0.11,0.18,0.29,0.03,0.41C299.75,46.27,299.7,46.3,299.65,46.31z"/>
</g>
<g class="st7">
	<path class="st3" d="M324.63,67.64c-0.04,0.01-0.07,0.02-0.11,0.02l-17.34,1.81c-0.28,0.03-0.54-0.11-0.58-0.32
		c-0.04-0.21,0.14-0.39,0.42-0.42l17.34-1.81c0.28-0.03,0.54,0.11,0.58,0.32C324.98,67.41,324.85,67.58,324.63,67.64z"/>
</g>
<g class="st6">
	<path class="st3" d="M299.65,46.32c-0.2,0.06-0.43-0.01-0.52-0.16c-0.1-0.15-0.01-0.33,0.19-0.4l25.28-8.6
		c0.2-0.07,0.45,0,0.55,0.15c0.1,0.15,0.01,0.33-0.19,0.4l-25.28,8.6C299.66,46.32,299.66,46.32,299.65,46.32z"/>
</g>
<g class="st8">
	<path class="st3" d="M48.32,73.45c-0.02-0.04-0.02-0.08-0.01-0.12L68.95,2.17c0.04-0.15,0.3-0.21,0.57-0.14
		c0.27,0.08,0.45,0.26,0.41,0.41L49.29,73.6c-0.04,0.15-0.3,0.21-0.57,0.14C48.52,73.68,48.36,73.57,48.32,73.45z"/>
</g>
<g class="st13">
	<path class="st3" d="M584.21,36.52c-0.2,0-0.41-0.01-0.64-0.02L281.6,18.13c-0.87-0.05-1.56-0.19-1.54-0.31s0.74-0.18,1.61-0.12
		l301.97,18.37c0.87,0.05,1.56,0.19,1.54,0.31C585.16,36.47,584.76,36.52,584.21,36.52z"/>
</g>
</svg>
